G04 (created by PCBNEW (2013-07-07 BZR 4022)-stable) date 03/02/2018 19:35:14*
%MOIN*%
G04 Gerber Fmt 3.4, Leading zero omitted, Abs format*
%FSLAX34Y34*%
G01*
G70*
G90*
G04 APERTURE LIST*
%ADD10C,0.00590551*%
%ADD11C,0.0551181*%
%ADD12C,0.0984252*%
%ADD13C,0.0590551*%
%ADD14R,0.0866X0.06*%
%ADD15O,0.0866X0.06*%
%ADD16O,0.0590551X0.0866142*%
%ADD17C,0.16*%
%ADD18O,0.177701X0.177701*%
%ADD19O,0.158098X0.158098*%
%ADD20C,0.1181*%
%ADD21C,0.0689*%
%ADD22R,0.06X0.0787*%
%ADD23O,0.06X0.0787*%
%ADD24C,0.0314961*%
%ADD25C,0.023622*%
%ADD26C,0.011811*%
%ADD27C,0.01*%
G04 APERTURE END LIST*
G54D10*
G54D11*
X42400Y-53753D03*
X41400Y-53753D03*
X41900Y-52753D03*
X42900Y-52753D03*
X43400Y-53753D03*
X43900Y-52753D03*
X44400Y-53753D03*
X44900Y-52753D03*
G54D12*
X40098Y-55049D03*
X46201Y-55049D03*
G54D13*
X44640Y-57820D03*
X45650Y-57820D03*
X40660Y-57820D03*
X41650Y-57820D03*
G54D14*
X44070Y-34855D03*
G54D15*
X44070Y-35855D03*
G54D16*
X53601Y-20447D03*
X54601Y-20447D03*
X55601Y-20447D03*
X56601Y-20447D03*
X57601Y-20447D03*
X58601Y-20447D03*
X59601Y-20447D03*
X60601Y-20447D03*
X61601Y-20447D03*
X62601Y-20447D03*
X63601Y-20447D03*
X64601Y-20447D03*
X65601Y-20447D03*
X66601Y-20447D03*
X67601Y-20447D03*
X68601Y-20447D03*
G54D17*
X80800Y-57650D03*
X35900Y-57650D03*
X80800Y-20250D03*
G54D18*
X38749Y-24600D03*
G54D19*
X37587Y-26529D03*
X36387Y-24600D03*
G54D17*
X35900Y-20250D03*
G54D20*
X38041Y-35963D03*
X38041Y-41137D03*
G54D21*
X46756Y-19946D03*
X48724Y-20930D03*
X46756Y-21914D03*
X73166Y-50056D03*
X72182Y-52024D03*
X71198Y-50056D03*
X69039Y-50046D03*
X68055Y-52014D03*
X67071Y-50046D03*
G54D14*
X39940Y-28890D03*
G54D15*
X39940Y-29890D03*
X39940Y-30890D03*
X39940Y-31890D03*
X39940Y-32890D03*
X39940Y-33890D03*
G54D14*
X36015Y-28895D03*
G54D15*
X36015Y-29895D03*
X36015Y-30895D03*
X36015Y-31895D03*
X36015Y-32895D03*
X36015Y-33895D03*
G54D22*
X46825Y-36088D03*
G54D23*
X46825Y-34892D03*
X47825Y-36088D03*
X47825Y-34892D03*
X48825Y-36088D03*
X48825Y-34892D03*
X49825Y-36088D03*
X49825Y-34892D03*
X50825Y-36088D03*
X50825Y-34892D03*
X51825Y-36088D03*
X51825Y-34892D03*
X52825Y-36088D03*
X52825Y-34892D03*
X53825Y-36088D03*
X53825Y-34892D03*
X54825Y-36088D03*
X54825Y-34892D03*
X55825Y-36088D03*
X55825Y-34892D03*
X56825Y-36088D03*
X56825Y-34892D03*
X57825Y-36088D03*
X57825Y-34892D03*
G54D22*
X70270Y-36018D03*
G54D23*
X70270Y-34822D03*
X71270Y-36018D03*
X71270Y-34822D03*
X72270Y-36018D03*
X72270Y-34822D03*
X73270Y-36018D03*
X73270Y-34822D03*
X74270Y-36018D03*
X74270Y-34822D03*
X75270Y-36018D03*
X75270Y-34822D03*
X76270Y-36018D03*
X76270Y-34822D03*
X77270Y-36018D03*
X77270Y-34822D03*
X78270Y-36018D03*
X78270Y-34822D03*
X79270Y-36018D03*
X79270Y-34822D03*
X80270Y-36018D03*
X80270Y-34822D03*
X81270Y-36018D03*
X81270Y-34822D03*
G54D24*
X44861Y-35019D03*
X43470Y-38160D03*
X42952Y-39781D03*
X45423Y-29705D03*
X44051Y-23261D03*
X70210Y-33705D03*
X71925Y-36813D03*
X64328Y-46418D03*
X64776Y-48090D03*
X66885Y-53775D03*
X69045Y-55095D03*
X72653Y-49658D03*
X74228Y-55374D03*
X74158Y-49357D03*
X58268Y-45115D03*
X58257Y-47223D03*
X58397Y-48123D03*
X60100Y-47360D03*
X61809Y-47667D03*
X61290Y-48411D03*
X51310Y-49252D03*
X49880Y-55310D03*
X54840Y-51990D03*
X54666Y-54162D03*
X74220Y-40215D03*
X71670Y-40080D03*
X71475Y-38190D03*
X57564Y-41949D03*
X60368Y-42294D03*
X70356Y-49764D03*
X68398Y-49434D03*
X47790Y-54620D03*
X48590Y-55340D03*
X43943Y-51296D03*
X68820Y-30600D03*
X70500Y-30600D03*
X49480Y-27820D03*
X47930Y-27820D03*
X36149Y-45045D03*
X35794Y-41008D03*
X40310Y-34790D03*
X68551Y-36246D03*
X66689Y-38010D03*
X65420Y-48540D03*
G54D25*
X73220Y-38655D03*
X71232Y-38940D03*
X71241Y-39879D03*
X67692Y-47254D03*
X73890Y-43070D03*
X73549Y-38955D03*
X73629Y-43502D03*
X67510Y-46990D03*
X61230Y-24100D03*
X59270Y-38898D03*
X59472Y-39123D03*
X59654Y-39333D03*
X59856Y-39558D03*
X60081Y-39789D03*
X60294Y-39966D03*
X60515Y-40175D03*
X60720Y-40392D03*
X60930Y-40617D03*
X58635Y-38220D03*
X60930Y-22960D03*
X59064Y-38673D03*
X60651Y-22446D03*
X58830Y-38451D03*
X67683Y-46501D03*
X70898Y-46377D03*
X64036Y-43505D03*
X73161Y-29658D03*
X73290Y-28532D03*
X74074Y-26908D03*
X56046Y-53889D03*
X57382Y-53616D03*
X61302Y-47610D03*
X60333Y-47667D03*
X55776Y-44991D03*
X55809Y-44244D03*
X56553Y-44226D03*
X75132Y-29633D03*
X56799Y-53033D03*
X56021Y-53028D03*
X72527Y-29400D03*
X63780Y-42770D03*
X56043Y-53307D03*
X57102Y-53223D03*
X56153Y-44987D03*
X72808Y-29534D03*
X55143Y-46926D03*
X57470Y-41230D03*
X63118Y-37576D03*
X69342Y-28518D03*
X69811Y-26663D03*
X72870Y-24892D03*
X64484Y-43799D03*
X75908Y-29477D03*
X60510Y-47930D03*
X61260Y-47950D03*
X57006Y-53577D03*
X56048Y-53604D03*
X54099Y-21501D03*
X73740Y-28860D03*
X60656Y-41252D03*
X52227Y-44649D03*
X46680Y-44613D03*
X48407Y-45468D03*
X52600Y-45550D03*
X55672Y-45550D03*
X57687Y-45570D03*
X60945Y-45147D03*
X61794Y-45135D03*
X49046Y-45684D03*
X52640Y-45885D03*
X55697Y-45849D03*
X57726Y-45870D03*
X61010Y-45434D03*
X61779Y-45426D03*
X55893Y-46626D03*
X55426Y-44247D03*
X52448Y-44195D03*
X51494Y-44231D03*
X43400Y-42490D03*
X53438Y-46949D03*
X53271Y-47193D03*
X43846Y-41008D03*
X52654Y-44884D03*
X46406Y-44862D03*
X42768Y-45468D03*
X43061Y-46053D03*
X43088Y-47012D03*
X61029Y-50364D03*
X42847Y-47194D03*
X61188Y-50662D03*
X42882Y-44261D03*
X45780Y-45618D03*
X46437Y-45693D03*
X52500Y-46228D03*
X56076Y-46041D03*
X57902Y-46143D03*
X61038Y-45753D03*
X61770Y-45731D03*
X61860Y-46007D03*
X60932Y-46073D03*
X59877Y-46112D03*
X58604Y-46467D03*
X57700Y-46474D03*
X43952Y-47268D03*
X50710Y-50270D03*
X49742Y-49896D03*
X50328Y-47340D03*
X51435Y-47505D03*
X45402Y-51898D03*
X42087Y-51144D03*
X44793Y-47999D03*
X43362Y-51933D03*
X45045Y-46571D03*
X40860Y-49860D03*
X39354Y-51821D03*
X39291Y-51058D03*
X45536Y-46431D03*
X38720Y-49970D03*
X45048Y-49914D03*
X45650Y-48070D03*
X66720Y-32685D03*
X59265Y-32355D03*
X44050Y-31510D03*
X66432Y-37122D03*
X70441Y-53718D03*
X71820Y-47236D03*
X71848Y-46564D03*
X66294Y-36609D03*
X63950Y-48362D03*
X42287Y-32137D03*
X59822Y-31731D03*
X66440Y-31710D03*
X67949Y-36512D03*
X66318Y-36134D03*
X64211Y-48186D03*
X68012Y-36113D03*
X66420Y-32025D03*
X59820Y-32040D03*
X42650Y-31700D03*
X70043Y-53685D03*
X71424Y-50638D03*
X71904Y-50610D03*
X72171Y-47259D03*
X72185Y-46593D03*
X67704Y-37345D03*
X47007Y-38397D03*
X39597Y-42021D03*
X38687Y-39011D03*
X45041Y-38439D03*
X46247Y-38466D03*
X56642Y-41454D03*
X56691Y-42543D03*
X58838Y-44436D03*
X61580Y-46283D03*
X45033Y-38022D03*
X46230Y-38031D03*
X56931Y-41655D03*
X56934Y-42348D03*
X58528Y-44298D03*
X61548Y-46588D03*
X38624Y-38097D03*
X39195Y-42270D03*
X66942Y-40955D03*
X65844Y-44033D03*
X64782Y-44069D03*
X63332Y-44148D03*
X73917Y-36734D03*
X72999Y-36729D03*
X68630Y-38214D03*
X67892Y-38943D03*
X68187Y-42616D03*
X63565Y-44351D03*
X64800Y-44364D03*
X65936Y-44348D03*
X68156Y-39148D03*
X68886Y-38448D03*
X72968Y-37037D03*
X73950Y-37038D03*
X53598Y-38115D03*
X55678Y-42624D03*
X56286Y-42738D03*
X61176Y-42312D03*
X53334Y-38291D03*
X55643Y-42948D03*
X56475Y-43020D03*
X61034Y-42588D03*
X53070Y-38460D03*
X55650Y-43260D03*
X56707Y-43260D03*
X60851Y-42826D03*
X81420Y-53100D03*
X61223Y-51449D03*
X65517Y-50988D03*
X74007Y-51858D03*
X73846Y-52870D03*
X81435Y-51780D03*
X79853Y-52758D03*
X79115Y-53181D03*
X74435Y-52614D03*
X74361Y-51723D03*
X65723Y-50711D03*
X61226Y-51124D03*
X79947Y-51147D03*
X78960Y-51150D03*
X77697Y-52122D03*
X64893Y-51444D03*
X60978Y-51690D03*
X77382Y-54054D03*
X61159Y-51961D03*
X64780Y-51860D03*
X77643Y-53223D03*
X73500Y-52920D03*
X73710Y-51800D03*
X65205Y-51147D03*
X60945Y-52224D03*
X42890Y-29330D03*
X42900Y-30316D03*
X45105Y-37545D03*
X54300Y-47790D03*
X56310Y-51855D03*
X56325Y-51015D03*
X55390Y-47680D03*
X55450Y-46620D03*
X56188Y-48054D03*
X56535Y-48606D03*
X54996Y-48219D03*
X54990Y-47613D03*
X57924Y-50153D03*
X59175Y-54015D03*
X62734Y-52871D03*
X65429Y-52857D03*
X70155Y-52860D03*
X62895Y-52584D03*
X59499Y-53811D03*
X58158Y-50517D03*
X53090Y-22580D03*
X70343Y-27328D03*
X36321Y-53708D03*
X37044Y-53681D03*
X40523Y-45486D03*
X43530Y-45501D03*
X51219Y-41315D03*
X49998Y-41325D03*
X67424Y-47677D03*
X67245Y-44790D03*
X72810Y-52250D03*
X70191Y-37229D03*
X42371Y-36316D03*
X46386Y-46330D03*
X47950Y-47201D03*
X47971Y-47964D03*
X47985Y-48566D03*
X41998Y-32890D03*
X41900Y-31120D03*
X47640Y-55730D03*
X49880Y-55700D03*
X64113Y-37170D03*
X64110Y-35220D03*
X75215Y-40033D03*
X75236Y-41384D03*
X49191Y-40806D03*
X48207Y-40821D03*
X76520Y-38380D03*
X78678Y-48771D03*
X76888Y-38353D03*
X78690Y-47439D03*
X77260Y-38330D03*
X78687Y-46060D03*
X77625Y-38318D03*
X78683Y-44429D03*
X78003Y-38316D03*
X78692Y-42840D03*
X78381Y-38286D03*
X78710Y-41280D03*
X78701Y-38250D03*
X78720Y-40050D03*
X44100Y-49945D03*
X44112Y-48522D03*
X42465Y-48720D03*
X43701Y-48474D03*
X37961Y-52150D03*
X47187Y-48537D03*
X47196Y-47961D03*
X46922Y-46598D03*
X45882Y-46577D03*
X46620Y-45104D03*
G54D26*
X44890Y-34990D02*
X46825Y-34990D01*
X44861Y-35019D02*
X44890Y-34990D01*
X43470Y-39263D02*
X43470Y-38160D01*
X42952Y-39781D02*
X43470Y-39263D01*
X44045Y-29705D02*
X45423Y-29705D01*
X43802Y-29462D02*
X44045Y-29705D01*
X43802Y-23510D02*
X43802Y-29462D01*
X44051Y-23261D02*
X43802Y-23510D01*
X71267Y-33705D02*
X70210Y-33705D01*
X71766Y-34204D02*
X71267Y-33705D01*
X71766Y-36654D02*
X71766Y-34204D01*
X71925Y-36813D02*
X71766Y-36654D01*
X64328Y-46418D02*
X64776Y-46866D01*
X64776Y-46866D02*
X64776Y-48090D01*
X69045Y-55095D02*
X73949Y-55095D01*
X73949Y-55095D02*
X74228Y-55374D01*
X67725Y-53775D02*
X66885Y-53775D01*
X69045Y-55095D02*
X67725Y-53775D01*
X72954Y-49357D02*
X74158Y-49357D01*
X72653Y-49658D02*
X72954Y-49357D01*
X74228Y-55374D02*
X74888Y-54714D01*
X74158Y-50668D02*
X74158Y-49357D01*
X74888Y-51398D02*
X74158Y-50668D01*
X74888Y-54714D02*
X74888Y-51398D01*
X58257Y-47223D02*
X58257Y-45126D01*
X58257Y-45126D02*
X58268Y-45115D01*
X58485Y-47451D02*
X58485Y-47464D01*
X58257Y-47223D02*
X58485Y-47451D01*
X58590Y-47360D02*
X60100Y-47360D01*
X58437Y-47513D02*
X58485Y-47464D01*
X58485Y-47464D02*
X58590Y-47360D01*
X58437Y-48083D02*
X58437Y-47513D01*
X58397Y-48123D02*
X58437Y-48083D01*
X61362Y-47220D02*
X61809Y-47667D01*
X60240Y-47220D02*
X61362Y-47220D01*
X60100Y-47360D02*
X60240Y-47220D01*
X61809Y-47892D02*
X61809Y-47667D01*
X61290Y-48411D02*
X61809Y-47892D01*
X51858Y-50823D02*
X51858Y-51990D01*
X51730Y-50695D02*
X51858Y-50823D01*
X51730Y-49672D02*
X51730Y-50695D01*
X51310Y-49252D02*
X51730Y-49672D01*
X48590Y-55340D02*
X49850Y-55340D01*
X49850Y-55340D02*
X49880Y-55310D01*
X48590Y-55340D02*
X48590Y-53182D01*
X48590Y-53182D02*
X49782Y-51990D01*
X49782Y-51990D02*
X51858Y-51990D01*
X51858Y-51990D02*
X54840Y-51990D01*
X54840Y-51990D02*
X54666Y-52164D01*
X54666Y-52164D02*
X54666Y-54162D01*
X74085Y-40080D02*
X71670Y-40080D01*
X74220Y-40215D02*
X74085Y-40080D01*
X71670Y-40080D02*
X71475Y-39885D01*
X71475Y-39885D02*
X71475Y-38190D01*
X60023Y-41949D02*
X57564Y-41949D01*
X60368Y-42294D02*
X60023Y-41949D01*
X70356Y-49764D02*
X70026Y-49434D01*
X70026Y-49434D02*
X68398Y-49434D01*
X47870Y-54620D02*
X47790Y-54620D01*
X48590Y-55340D02*
X47870Y-54620D01*
X43943Y-51296D02*
X43900Y-51339D01*
X43900Y-51339D02*
X43900Y-52753D01*
X70500Y-30600D02*
X68820Y-30600D01*
X44070Y-34855D02*
X44070Y-34250D01*
X44070Y-34250D02*
X44616Y-33704D01*
X44616Y-33704D02*
X47322Y-33704D01*
X47322Y-33704D02*
X47825Y-34207D01*
X47825Y-34207D02*
X47825Y-34990D01*
X47930Y-27820D02*
X49480Y-27820D01*
X44070Y-34855D02*
X40375Y-34855D01*
X36419Y-44775D02*
X36149Y-45045D01*
X36419Y-41633D02*
X36419Y-44775D01*
X35794Y-41008D02*
X36419Y-41633D01*
X40375Y-34855D02*
X40310Y-34790D01*
G54D10*
X70503Y-34153D02*
X71270Y-34920D01*
X69062Y-34153D02*
X70503Y-34153D01*
X68614Y-34601D02*
X69062Y-34153D01*
X68614Y-36183D02*
X68614Y-34601D01*
X68551Y-36246D02*
X68614Y-36183D01*
X66490Y-38209D02*
X66689Y-38010D01*
X66490Y-42934D02*
X66490Y-38209D01*
X65506Y-43918D02*
X66490Y-42934D01*
X65506Y-48454D02*
X65506Y-43918D01*
X65420Y-48540D02*
X65506Y-48454D01*
X73270Y-38605D02*
X73270Y-35920D01*
X73220Y-38655D02*
X73270Y-38605D01*
X71232Y-39870D02*
X71232Y-38940D01*
X71241Y-39879D02*
X71232Y-39870D01*
X67957Y-46989D02*
X67692Y-47254D01*
X73146Y-46989D02*
X67957Y-46989D01*
X73778Y-46357D02*
X73146Y-46989D01*
X73778Y-44106D02*
X73778Y-46357D01*
X73944Y-43940D02*
X73778Y-44106D01*
X73944Y-43124D02*
X73944Y-43940D01*
X73890Y-43070D02*
X73944Y-43124D01*
X73584Y-36606D02*
X74270Y-35920D01*
X73584Y-38920D02*
X73584Y-36606D01*
X73549Y-38955D02*
X73584Y-38920D01*
X73629Y-46321D02*
X73629Y-43502D01*
X73110Y-46840D02*
X73629Y-46321D01*
X67660Y-46840D02*
X73110Y-46840D01*
X67510Y-46990D02*
X67660Y-46840D01*
X61230Y-36938D02*
X61230Y-24100D01*
X59270Y-38898D02*
X61230Y-36938D01*
X61470Y-22316D02*
X59601Y-20447D01*
X61470Y-37125D02*
X61470Y-22316D01*
X59472Y-39123D02*
X61470Y-37125D01*
X61619Y-21465D02*
X60601Y-20447D01*
X61619Y-37368D02*
X61619Y-21465D01*
X59654Y-39333D02*
X61619Y-37368D01*
X61803Y-20649D02*
X61601Y-20447D01*
X61803Y-37611D02*
X61803Y-20649D01*
X59856Y-39558D02*
X61803Y-37611D01*
X62034Y-21015D02*
X62601Y-20447D01*
X62034Y-37836D02*
X62034Y-21015D01*
X60081Y-39789D02*
X62034Y-37836D01*
X60294Y-39966D02*
X60284Y-39966D01*
X55825Y-38125D02*
X55825Y-35990D01*
X57860Y-40160D02*
X55825Y-38125D01*
X60090Y-40160D02*
X57860Y-40160D01*
X60284Y-39966D02*
X60090Y-40160D01*
X62237Y-21812D02*
X63601Y-20447D01*
X62237Y-38023D02*
X62237Y-21812D01*
X60294Y-39966D02*
X62237Y-38023D01*
X60515Y-40175D02*
X60439Y-40175D01*
X54825Y-37353D02*
X54825Y-35990D01*
X57792Y-40320D02*
X54825Y-37353D01*
X60294Y-40320D02*
X57792Y-40320D01*
X60439Y-40175D02*
X60294Y-40320D01*
X62440Y-22609D02*
X64601Y-20447D01*
X62440Y-38250D02*
X62440Y-22609D01*
X60515Y-40175D02*
X62440Y-38250D01*
X60720Y-40392D02*
X60642Y-40392D01*
X53825Y-36980D02*
X53825Y-35990D01*
X57381Y-40536D02*
X53825Y-36980D01*
X60498Y-40536D02*
X57381Y-40536D01*
X60642Y-40392D02*
X60498Y-40536D01*
X62658Y-23391D02*
X65601Y-20447D01*
X62658Y-38454D02*
X62658Y-23391D01*
X60720Y-40392D02*
X62658Y-38454D01*
X60930Y-40617D02*
X60921Y-40617D01*
X52825Y-36234D02*
X52825Y-35990D01*
X57348Y-40757D02*
X52825Y-36234D01*
X60781Y-40757D02*
X57348Y-40757D01*
X60921Y-40617D02*
X60781Y-40757D01*
X62870Y-24179D02*
X66601Y-20447D01*
X62870Y-38677D02*
X62870Y-24179D01*
X60930Y-40617D02*
X62870Y-38677D01*
X58635Y-38220D02*
X58425Y-38220D01*
X57825Y-37620D02*
X57825Y-35990D01*
X58425Y-38220D02*
X57825Y-37620D01*
X60330Y-22176D02*
X58601Y-20447D01*
X60330Y-36525D02*
X60330Y-22176D01*
X58635Y-38220D02*
X60330Y-36525D01*
X59064Y-38673D02*
X58217Y-38673D01*
X56825Y-37281D02*
X56825Y-35990D01*
X58217Y-38673D02*
X56825Y-37281D01*
X60930Y-36807D02*
X60930Y-22960D01*
X59064Y-38673D02*
X60930Y-36807D01*
X60600Y-22497D02*
X60651Y-22446D01*
X60600Y-36681D02*
X60600Y-22497D01*
X58830Y-38451D02*
X60600Y-36681D01*
X70774Y-46501D02*
X67683Y-46501D01*
X70898Y-46377D02*
X70774Y-46501D01*
X65373Y-42168D02*
X64036Y-43505D01*
X65373Y-30595D02*
X65373Y-42168D01*
X66313Y-29655D02*
X65373Y-30595D01*
X71913Y-29655D02*
X66313Y-29655D01*
X72168Y-29910D02*
X71913Y-29655D01*
X72909Y-29910D02*
X72168Y-29910D01*
X73161Y-29658D02*
X72909Y-29910D01*
X73528Y-28294D02*
X73290Y-28532D01*
X73528Y-27454D02*
X73528Y-28294D01*
X74074Y-26908D02*
X73528Y-27454D01*
X56083Y-53852D02*
X56046Y-53889D01*
X57146Y-53852D02*
X56083Y-53852D01*
X57382Y-53616D02*
X57146Y-53852D01*
X60390Y-47610D02*
X61302Y-47610D01*
X60333Y-47667D02*
X60390Y-47610D01*
X55776Y-44277D02*
X55776Y-44991D01*
X55809Y-44244D02*
X55776Y-44277D01*
X57084Y-43695D02*
X56553Y-44226D01*
X63522Y-43695D02*
X57084Y-43695D01*
X63657Y-43830D02*
X63522Y-43695D01*
X64170Y-43830D02*
X63657Y-43830D01*
X65597Y-42403D02*
X64170Y-43830D01*
X65597Y-30632D02*
X65597Y-42403D01*
X66356Y-29873D02*
X65597Y-30632D01*
X71852Y-29873D02*
X66356Y-29873D01*
X72093Y-30114D02*
X71852Y-29873D01*
X73071Y-30114D02*
X72093Y-30114D01*
X73498Y-29687D02*
X73071Y-30114D01*
X75078Y-29687D02*
X73498Y-29687D01*
X75132Y-29633D02*
X75078Y-29687D01*
X56026Y-53033D02*
X56799Y-53033D01*
X56021Y-53028D02*
X56026Y-53033D01*
X66108Y-29400D02*
X72527Y-29400D01*
X65009Y-30499D02*
X66108Y-29400D01*
X65009Y-37665D02*
X65009Y-30499D01*
X63710Y-38964D02*
X65009Y-37665D01*
X63710Y-42700D02*
X63710Y-38964D01*
X63780Y-42770D02*
X63710Y-42700D01*
X56058Y-53322D02*
X56043Y-53307D01*
X57003Y-53322D02*
X56058Y-53322D01*
X57102Y-53223D02*
X57003Y-53322D01*
X56153Y-44297D02*
X56153Y-44987D01*
X56900Y-43550D02*
X56153Y-44297D01*
X63676Y-43550D02*
X56900Y-43550D01*
X65205Y-42021D02*
X63676Y-43550D01*
X65205Y-30528D02*
X65205Y-42021D01*
X66222Y-29511D02*
X65205Y-30528D01*
X72169Y-29511D02*
X66222Y-29511D01*
X72366Y-29708D02*
X72169Y-29511D01*
X72634Y-29708D02*
X72366Y-29708D01*
X72808Y-29534D02*
X72634Y-29708D01*
X55085Y-46868D02*
X55143Y-46926D01*
X55085Y-44113D02*
X55085Y-46868D01*
X55286Y-43912D02*
X55085Y-44113D01*
X55836Y-43912D02*
X55286Y-43912D01*
X56078Y-43670D02*
X55836Y-43912D01*
X56078Y-41552D02*
X56078Y-43670D01*
X56470Y-41160D02*
X56078Y-41552D01*
X57400Y-41160D02*
X56470Y-41160D01*
X57470Y-41230D02*
X57400Y-41160D01*
X64088Y-37576D02*
X63118Y-37576D01*
X64314Y-37350D02*
X64088Y-37576D01*
X64314Y-30223D02*
X64314Y-37350D01*
X65935Y-28602D02*
X64314Y-30223D01*
X69258Y-28602D02*
X65935Y-28602D01*
X69342Y-28518D02*
X69258Y-28602D01*
X70371Y-26103D02*
X69811Y-26663D01*
X72177Y-26103D02*
X70371Y-26103D01*
X72758Y-25522D02*
X72177Y-26103D01*
X72758Y-25004D02*
X72758Y-25522D01*
X72870Y-24892D02*
X72758Y-25004D01*
X65848Y-42435D02*
X64484Y-43799D01*
X65848Y-30638D02*
X65848Y-42435D01*
X66453Y-30033D02*
X65848Y-30638D01*
X71690Y-30033D02*
X66453Y-30033D01*
X71974Y-30317D02*
X71690Y-30033D01*
X73171Y-30317D02*
X71974Y-30317D01*
X73612Y-29876D02*
X73171Y-30317D01*
X75509Y-29876D02*
X73612Y-29876D01*
X75908Y-29477D02*
X75509Y-29876D01*
X61240Y-47930D02*
X60510Y-47930D01*
X61260Y-47950D02*
X61240Y-47930D01*
X56075Y-53577D02*
X57006Y-53577D01*
X56048Y-53604D02*
X56075Y-53577D01*
X55601Y-21088D02*
X55601Y-20447D01*
X55342Y-21348D02*
X55601Y-21088D01*
X54252Y-21348D02*
X55342Y-21348D01*
X54099Y-21501D02*
X54252Y-21348D01*
X65955Y-28860D02*
X73740Y-28860D01*
X64435Y-30380D02*
X65955Y-28860D01*
X64435Y-37473D02*
X64435Y-30380D01*
X60656Y-41252D02*
X64435Y-37473D01*
X52186Y-44690D02*
X52227Y-44649D01*
X46757Y-44690D02*
X52186Y-44690D01*
X46680Y-44613D02*
X46757Y-44690D01*
X52518Y-45468D02*
X48407Y-45468D01*
X52600Y-45550D02*
X52518Y-45468D01*
X57667Y-45550D02*
X55672Y-45550D01*
X57687Y-45570D02*
X57667Y-45550D01*
X61782Y-45147D02*
X60945Y-45147D01*
X61794Y-45135D02*
X61782Y-45147D01*
X49156Y-45794D02*
X49046Y-45684D01*
X52549Y-45794D02*
X49156Y-45794D01*
X52640Y-45885D02*
X52549Y-45794D01*
X55793Y-45753D02*
X55697Y-45849D01*
X57609Y-45753D02*
X55793Y-45753D01*
X57726Y-45870D02*
X57609Y-45753D01*
X61027Y-45417D02*
X61010Y-45434D01*
X61770Y-45417D02*
X61027Y-45417D01*
X61779Y-45426D02*
X61770Y-45417D01*
X55440Y-46173D02*
X55893Y-46626D01*
X55440Y-44261D02*
X55440Y-46173D01*
X55426Y-44247D02*
X55440Y-44261D01*
X51530Y-44195D02*
X52448Y-44195D01*
X51494Y-44231D02*
X51530Y-44195D01*
X43190Y-42280D02*
X43400Y-42490D01*
X43190Y-40440D02*
X43190Y-42280D01*
X43540Y-40090D02*
X43190Y-40440D01*
X51310Y-40090D02*
X43540Y-40090D01*
X53180Y-41960D02*
X51310Y-40090D01*
X53180Y-46691D02*
X53180Y-41960D01*
X53438Y-46949D02*
X53180Y-46691D01*
X52941Y-46863D02*
X53271Y-47193D01*
X52941Y-42227D02*
X52941Y-46863D01*
X51150Y-40436D02*
X52941Y-42227D01*
X44418Y-40436D02*
X51150Y-40436D01*
X43846Y-41008D02*
X44418Y-40436D01*
X46428Y-44884D02*
X52654Y-44884D01*
X46406Y-44862D02*
X46428Y-44884D01*
X42768Y-45760D02*
X42768Y-45468D01*
X43061Y-46053D02*
X42768Y-45760D01*
X43596Y-47520D02*
X43088Y-47012D01*
X50159Y-47520D02*
X43596Y-47520D01*
X52430Y-49791D02*
X50159Y-47520D01*
X58359Y-49791D02*
X52430Y-49791D01*
X59298Y-50730D02*
X58359Y-49791D01*
X60663Y-50730D02*
X59298Y-50730D01*
X61029Y-50364D02*
X60663Y-50730D01*
X43302Y-47649D02*
X42847Y-47194D01*
X50085Y-47649D02*
X43302Y-47649D01*
X52346Y-49910D02*
X50085Y-47649D01*
X58303Y-49910D02*
X52346Y-49910D01*
X59269Y-50876D02*
X58303Y-49910D01*
X60974Y-50876D02*
X59269Y-50876D01*
X61188Y-50662D02*
X60974Y-50876D01*
X44423Y-44261D02*
X42882Y-44261D01*
X45780Y-45618D02*
X44423Y-44261D01*
X46794Y-46050D02*
X46437Y-45693D01*
X52322Y-46050D02*
X46794Y-46050D01*
X52500Y-46228D02*
X52322Y-46050D01*
X56184Y-46149D02*
X56076Y-46041D01*
X57896Y-46149D02*
X56184Y-46149D01*
X57902Y-46143D02*
X57896Y-46149D01*
X61748Y-45753D02*
X61038Y-45753D01*
X61770Y-45731D02*
X61748Y-45753D01*
X60998Y-46007D02*
X61860Y-46007D01*
X60932Y-46073D02*
X60998Y-46007D01*
X58959Y-46112D02*
X59877Y-46112D01*
X58604Y-46467D02*
X58959Y-46112D01*
X57700Y-49176D02*
X57700Y-46474D01*
X57260Y-49616D02*
X57700Y-49176D01*
X52731Y-49616D02*
X57260Y-49616D01*
X51996Y-48881D02*
X52731Y-49616D01*
X51996Y-47194D02*
X51996Y-48881D01*
X51856Y-47054D02*
X51996Y-47194D01*
X50142Y-47054D02*
X51856Y-47054D01*
X49794Y-47402D02*
X50142Y-47054D01*
X47483Y-47402D02*
X49794Y-47402D01*
X47403Y-47322D02*
X47483Y-47402D01*
X44006Y-47322D02*
X47403Y-47322D01*
X43952Y-47268D02*
X44006Y-47322D01*
X50402Y-49962D02*
X50710Y-50270D01*
X49808Y-49962D02*
X50402Y-49962D01*
X49742Y-49896D02*
X49808Y-49962D01*
X51270Y-47340D02*
X50328Y-47340D01*
X51435Y-47505D02*
X51270Y-47340D01*
X44313Y-50809D02*
X44054Y-50809D01*
X45402Y-51898D02*
X44313Y-50809D01*
X43720Y-51144D02*
X42087Y-51144D01*
X44667Y-50197D02*
X44054Y-50809D01*
X44054Y-50809D02*
X43720Y-51144D01*
X44667Y-48125D02*
X44667Y-50197D01*
X44793Y-47999D02*
X44667Y-48125D01*
X40860Y-50821D02*
X40860Y-49860D01*
X41468Y-51429D02*
X40860Y-50821D01*
X42858Y-51429D02*
X41468Y-51429D01*
X43362Y-51933D02*
X42858Y-51429D01*
X41152Y-46571D02*
X45045Y-46571D01*
X38997Y-48726D02*
X41152Y-46571D01*
X38997Y-49757D02*
X38997Y-48726D01*
X39186Y-49946D02*
X38997Y-49757D01*
X40774Y-49946D02*
X39186Y-49946D01*
X40860Y-49860D02*
X40774Y-49946D01*
X39354Y-51121D02*
X39354Y-51821D01*
X39291Y-51058D02*
X39354Y-51121D01*
X45473Y-46368D02*
X45536Y-46431D01*
X41012Y-46368D02*
X45473Y-46368D01*
X38800Y-48580D02*
X41012Y-46368D01*
X38800Y-49890D02*
X38800Y-48580D01*
X38720Y-49970D02*
X38800Y-49890D01*
X45048Y-48672D02*
X45048Y-49914D01*
X45650Y-48070D02*
X45048Y-48672D01*
X67230Y-36324D02*
X66432Y-37122D01*
X67230Y-33195D02*
X67230Y-36324D01*
X66720Y-32685D02*
X67230Y-33195D01*
X57000Y-32355D02*
X59265Y-32355D01*
X56035Y-31390D02*
X57000Y-32355D01*
X44170Y-31390D02*
X56035Y-31390D01*
X44050Y-31510D02*
X44170Y-31390D01*
X66432Y-37122D02*
X66495Y-37185D01*
X70441Y-53711D02*
X70441Y-53718D01*
X71685Y-52467D02*
X70441Y-53711D01*
X71685Y-50421D02*
X71685Y-52467D01*
X71918Y-50188D02*
X71685Y-50421D01*
X71918Y-47334D02*
X71918Y-50188D01*
X71820Y-47236D02*
X71918Y-47334D01*
X72002Y-46410D02*
X71848Y-46564D01*
X72002Y-42252D02*
X72002Y-46410D01*
X67689Y-37939D02*
X72002Y-42252D01*
X67689Y-37710D02*
X67689Y-37939D01*
X67473Y-37494D02*
X67689Y-37710D01*
X66636Y-37494D02*
X67473Y-37494D01*
X66495Y-37353D02*
X66636Y-37494D01*
X66495Y-37185D02*
X66495Y-37353D01*
X57825Y-34990D02*
X57825Y-33095D01*
X60129Y-32038D02*
X59822Y-31731D01*
X60129Y-32551D02*
X60129Y-32038D01*
X59740Y-32940D02*
X60129Y-32551D01*
X57980Y-32940D02*
X59740Y-32940D01*
X57825Y-33095D02*
X57980Y-32940D01*
X66200Y-36703D02*
X66294Y-36609D01*
X66200Y-42894D02*
X66200Y-36703D01*
X65318Y-43776D02*
X66200Y-42894D01*
X65318Y-48303D02*
X65318Y-43776D01*
X65079Y-48542D02*
X65318Y-48303D01*
X64130Y-48542D02*
X65079Y-48542D01*
X63950Y-48362D02*
X64130Y-48542D01*
X42294Y-32130D02*
X42287Y-32137D01*
X42294Y-31486D02*
X42294Y-32130D01*
X42735Y-31045D02*
X42294Y-31486D01*
X57295Y-31045D02*
X42735Y-31045D01*
X58086Y-31836D02*
X57295Y-31045D01*
X59717Y-31836D02*
X58086Y-31836D01*
X59822Y-31731D02*
X59717Y-31836D01*
X67410Y-31710D02*
X66440Y-31710D01*
X68306Y-32606D02*
X67410Y-31710D01*
X68306Y-36155D02*
X68306Y-32606D01*
X67949Y-36512D02*
X68306Y-36155D01*
X56825Y-34990D02*
X56825Y-34651D01*
X59820Y-32405D02*
X59820Y-32040D01*
X59500Y-32725D02*
X59820Y-32405D01*
X57890Y-32725D02*
X59500Y-32725D01*
X57624Y-32991D02*
X57890Y-32725D01*
X57624Y-33852D02*
X57624Y-32991D01*
X56825Y-34651D02*
X57624Y-33852D01*
X66038Y-36414D02*
X66318Y-36134D01*
X66038Y-42787D02*
X66038Y-36414D01*
X65170Y-43655D02*
X66038Y-42787D01*
X65170Y-48167D02*
X65170Y-43655D01*
X64962Y-48375D02*
X65170Y-48167D01*
X64400Y-48375D02*
X64962Y-48375D01*
X64211Y-48186D02*
X64400Y-48375D01*
X68124Y-36001D02*
X68012Y-36113D01*
X68124Y-32724D02*
X68124Y-36001D01*
X67485Y-32085D02*
X68124Y-32724D01*
X66480Y-32085D02*
X67485Y-32085D01*
X66420Y-32025D02*
X66480Y-32085D01*
X57990Y-32040D02*
X59820Y-32040D01*
X57100Y-31150D02*
X57990Y-32040D01*
X43200Y-31150D02*
X57100Y-31150D01*
X42650Y-31700D02*
X43200Y-31150D01*
X71522Y-52206D02*
X70043Y-53685D01*
X71522Y-50736D02*
X71522Y-52206D01*
X71424Y-50638D02*
X71522Y-50736D01*
X71918Y-50610D02*
X71904Y-50610D01*
X72072Y-50456D02*
X71918Y-50610D01*
X72072Y-47358D02*
X72072Y-50456D01*
X72171Y-47259D02*
X72072Y-47358D01*
X72185Y-42183D02*
X72185Y-46593D01*
X67865Y-37863D02*
X72185Y-42183D01*
X67865Y-37506D02*
X67865Y-37863D01*
X67704Y-37345D02*
X67865Y-37506D01*
X46938Y-38466D02*
X46247Y-38466D01*
X47007Y-38397D02*
X46938Y-38466D01*
X39604Y-42021D02*
X39597Y-42021D01*
X39605Y-42020D02*
X39604Y-42021D01*
X37770Y-42020D02*
X39605Y-42020D01*
X36900Y-41150D02*
X37770Y-42020D01*
X36900Y-39389D02*
X36900Y-41150D01*
X37265Y-39024D02*
X36900Y-39389D01*
X38674Y-39024D02*
X37265Y-39024D01*
X38687Y-39011D02*
X38674Y-39024D01*
X46220Y-38439D02*
X45041Y-38439D01*
X46247Y-38466D02*
X46220Y-38439D01*
X56642Y-42494D02*
X56642Y-41454D01*
X56691Y-42543D02*
X56642Y-42494D01*
X58838Y-44462D02*
X58838Y-44436D01*
X60684Y-46308D02*
X58838Y-44462D01*
X61555Y-46308D02*
X60684Y-46308D01*
X61580Y-46283D02*
X61555Y-46308D01*
X46221Y-38022D02*
X45033Y-38022D01*
X46230Y-38031D02*
X46221Y-38022D01*
X56931Y-42345D02*
X56931Y-41655D01*
X56934Y-42348D02*
X56931Y-42345D01*
X58528Y-44618D02*
X58528Y-44298D01*
X58604Y-44694D02*
X58528Y-44618D01*
X58834Y-44694D02*
X58604Y-44694D01*
X60618Y-46478D02*
X58834Y-44694D01*
X61438Y-46478D02*
X60618Y-46478D01*
X61548Y-46588D02*
X61438Y-46478D01*
X37023Y-38097D02*
X38624Y-38097D01*
X36465Y-38655D02*
X37023Y-38097D01*
X36465Y-41160D02*
X36465Y-38655D01*
X37650Y-42345D02*
X36465Y-41160D01*
X39120Y-42345D02*
X37650Y-42345D01*
X39195Y-42270D02*
X39120Y-42345D01*
X67154Y-40743D02*
X67208Y-40743D01*
X66942Y-40955D02*
X67154Y-40743D01*
X67208Y-42669D02*
X67208Y-40743D01*
X65844Y-44033D02*
X67208Y-42669D01*
X64775Y-44076D02*
X64782Y-44069D01*
X63404Y-44076D02*
X64775Y-44076D01*
X63332Y-44148D02*
X63404Y-44076D01*
X74426Y-36764D02*
X75270Y-35920D01*
X73947Y-36764D02*
X74426Y-36764D01*
X73917Y-36734D02*
X73947Y-36764D01*
X72451Y-36729D02*
X72999Y-36729D01*
X71696Y-37484D02*
X72451Y-36729D01*
X69360Y-37484D02*
X71696Y-37484D01*
X68630Y-38214D02*
X69360Y-37484D01*
X67208Y-39627D02*
X67892Y-38943D01*
X67208Y-40743D02*
X67208Y-40410D01*
X67208Y-40410D02*
X67208Y-39627D01*
X67480Y-42595D02*
X68166Y-42595D01*
X68166Y-42595D02*
X68187Y-42616D01*
X76270Y-35920D02*
X76270Y-35963D01*
X64787Y-44351D02*
X63565Y-44351D01*
X64800Y-44364D02*
X64787Y-44351D01*
X67480Y-42804D02*
X65936Y-44348D01*
X67480Y-39824D02*
X67480Y-42497D01*
X67480Y-42497D02*
X67480Y-42595D01*
X67480Y-42595D02*
X67480Y-42804D01*
X68156Y-39148D02*
X67480Y-39824D01*
X69639Y-37695D02*
X68886Y-38448D01*
X71730Y-37695D02*
X69639Y-37695D01*
X72360Y-37065D02*
X71730Y-37695D01*
X72940Y-37065D02*
X72360Y-37065D01*
X72968Y-37037D02*
X72940Y-37065D01*
X75195Y-37038D02*
X73950Y-37038D01*
X76270Y-35963D02*
X75195Y-37038D01*
X55488Y-40005D02*
X53598Y-38115D01*
X55488Y-42446D02*
X55488Y-40005D01*
X55666Y-42624D02*
X55488Y-42446D01*
X55678Y-42624D02*
X55666Y-42624D01*
X60360Y-42738D02*
X56286Y-42738D01*
X60783Y-42315D02*
X60360Y-42738D01*
X61173Y-42315D02*
X60783Y-42315D01*
X61176Y-42312D02*
X61173Y-42315D01*
X55314Y-40271D02*
X53334Y-38291D01*
X55314Y-42619D02*
X55314Y-40271D01*
X55643Y-42948D02*
X55314Y-42619D01*
X60350Y-43020D02*
X56475Y-43020D01*
X60800Y-42570D02*
X60350Y-43020D01*
X61016Y-42570D02*
X60800Y-42570D01*
X61034Y-42588D02*
X61016Y-42570D01*
X55155Y-40545D02*
X53070Y-38460D01*
X55155Y-42765D02*
X55155Y-40545D01*
X55650Y-43260D02*
X55155Y-42765D01*
X56728Y-43239D02*
X56707Y-43260D01*
X60438Y-43239D02*
X56728Y-43239D01*
X60851Y-42826D02*
X60438Y-43239D01*
X81108Y-36758D02*
X80270Y-35920D01*
X81108Y-52788D02*
X81108Y-36758D01*
X81420Y-53100D02*
X81108Y-52788D01*
X61376Y-51449D02*
X61223Y-51449D01*
X61596Y-51669D02*
X61376Y-51449D01*
X63909Y-51669D02*
X61596Y-51669D01*
X64719Y-50859D02*
X63909Y-51669D01*
X65388Y-50859D02*
X64719Y-50859D01*
X65517Y-50988D02*
X65388Y-50859D01*
X74007Y-52709D02*
X74007Y-51858D01*
X73846Y-52870D02*
X74007Y-52709D01*
X81270Y-51615D02*
X81270Y-35920D01*
X81435Y-51780D02*
X81270Y-51615D01*
X79538Y-52758D02*
X79853Y-52758D01*
X79115Y-53181D02*
X79538Y-52758D01*
X74426Y-52614D02*
X74435Y-52614D01*
X74318Y-52506D02*
X74426Y-52614D01*
X74318Y-51766D02*
X74318Y-52506D01*
X74361Y-51723D02*
X74318Y-51766D01*
X64629Y-50711D02*
X65723Y-50711D01*
X63837Y-51503D02*
X64629Y-50711D01*
X61605Y-51503D02*
X63837Y-51503D01*
X61226Y-51124D02*
X61605Y-51503D01*
X78963Y-51147D02*
X79947Y-51147D01*
X78960Y-51150D02*
X78963Y-51147D01*
X80470Y-39120D02*
X77270Y-35920D01*
X80470Y-51466D02*
X80470Y-39120D01*
X80216Y-51720D02*
X80470Y-51466D01*
X79779Y-51720D02*
X80216Y-51720D01*
X79014Y-52485D02*
X79779Y-51720D01*
X78060Y-52485D02*
X79014Y-52485D01*
X77697Y-52122D02*
X78060Y-52485D01*
X64528Y-51809D02*
X64893Y-51444D01*
X61502Y-51809D02*
X64528Y-51809D01*
X61377Y-51684D02*
X61502Y-51809D01*
X60984Y-51684D02*
X61377Y-51684D01*
X60978Y-51690D02*
X60984Y-51684D01*
X80900Y-37550D02*
X79270Y-35920D01*
X80900Y-51610D02*
X80900Y-37550D01*
X80400Y-52110D02*
X80900Y-51610D01*
X79900Y-52110D02*
X80400Y-52110D01*
X78720Y-53290D02*
X79900Y-52110D01*
X78720Y-53590D02*
X78720Y-53290D01*
X78370Y-53940D02*
X78720Y-53590D01*
X77496Y-53940D02*
X78370Y-53940D01*
X77382Y-54054D02*
X77496Y-53940D01*
X61168Y-51970D02*
X61159Y-51961D01*
X64670Y-51970D02*
X61168Y-51970D01*
X64780Y-51860D02*
X64670Y-51970D01*
X80661Y-38311D02*
X78270Y-35920D01*
X80661Y-51576D02*
X80661Y-38311D01*
X80325Y-51912D02*
X80661Y-51576D01*
X79839Y-51912D02*
X80325Y-51912D01*
X78606Y-53145D02*
X79839Y-51912D01*
X77721Y-53145D02*
X78606Y-53145D01*
X77643Y-53223D02*
X77721Y-53145D01*
X73500Y-52010D02*
X73500Y-52920D01*
X73710Y-51800D02*
X73500Y-52010D01*
X65205Y-51762D02*
X65205Y-51147D01*
X64770Y-52197D02*
X65205Y-51762D01*
X60972Y-52197D02*
X64770Y-52197D01*
X60945Y-52224D02*
X60972Y-52197D01*
X42890Y-30306D02*
X42890Y-29330D01*
X42900Y-30316D02*
X42890Y-30306D01*
X51180Y-37545D02*
X45105Y-37545D01*
X54340Y-40705D02*
X51180Y-37545D01*
X54340Y-47750D02*
X54340Y-40705D01*
X54300Y-47790D02*
X54340Y-47750D01*
X56310Y-51030D02*
X56310Y-51855D01*
X56325Y-51015D02*
X56310Y-51030D01*
X55390Y-46680D02*
X55390Y-47680D01*
X55450Y-46620D02*
X55390Y-46680D01*
X36510Y-32895D02*
X36015Y-32895D01*
X40860Y-37245D02*
X36510Y-32895D01*
X51245Y-37245D02*
X40860Y-37245D01*
X54628Y-40628D02*
X51245Y-37245D01*
X54628Y-47572D02*
X54628Y-40628D01*
X55098Y-48042D02*
X54628Y-47572D01*
X56176Y-48042D02*
X55098Y-48042D01*
X56188Y-48054D02*
X56176Y-48042D01*
X36015Y-31895D02*
X36015Y-31995D01*
X55383Y-48606D02*
X56535Y-48606D01*
X54996Y-48219D02*
X55383Y-48606D01*
X54831Y-47454D02*
X54990Y-47613D01*
X54831Y-40575D02*
X54831Y-47454D01*
X51231Y-36975D02*
X54831Y-40575D01*
X40995Y-36975D02*
X51231Y-36975D01*
X36015Y-31995D02*
X40995Y-36975D01*
X57924Y-52764D02*
X57924Y-50153D01*
X59175Y-54015D02*
X57924Y-52764D01*
X65415Y-52871D02*
X62734Y-52871D01*
X65429Y-52857D02*
X65415Y-52871D01*
X65985Y-52860D02*
X70155Y-52860D01*
X65625Y-52500D02*
X65985Y-52860D01*
X62979Y-52500D02*
X65625Y-52500D01*
X62895Y-52584D02*
X62979Y-52500D01*
X59469Y-53781D02*
X59499Y-53811D01*
X59217Y-53781D02*
X59469Y-53781D01*
X58158Y-52722D02*
X59217Y-53781D01*
X58158Y-50517D02*
X58158Y-52722D01*
X52950Y-21099D02*
X53601Y-20447D01*
X52950Y-22440D02*
X52950Y-21099D01*
X53090Y-22580D02*
X52950Y-22440D01*
X68601Y-25929D02*
X68601Y-20447D01*
X69947Y-27275D02*
X68601Y-25929D01*
X70290Y-27275D02*
X69947Y-27275D01*
X70343Y-27328D02*
X70290Y-27275D01*
X37017Y-53708D02*
X36321Y-53708D01*
X37044Y-53681D02*
X37017Y-53708D01*
X40985Y-45024D02*
X40523Y-45486D01*
X43053Y-45024D02*
X40985Y-45024D01*
X43530Y-45501D02*
X43053Y-45024D01*
X50008Y-41315D02*
X51219Y-41315D01*
X49998Y-41325D02*
X50008Y-41315D01*
X67424Y-47677D02*
X67245Y-47498D01*
X67245Y-47498D02*
X67245Y-44790D01*
X72700Y-50522D02*
X73166Y-50056D01*
X72700Y-52140D02*
X72700Y-50522D01*
X72810Y-52250D02*
X72700Y-52140D01*
X70270Y-35920D02*
X70270Y-37150D01*
X70270Y-37150D02*
X70191Y-37229D01*
X46825Y-35990D02*
X46211Y-35990D01*
X46211Y-35990D02*
X45465Y-36736D01*
X45465Y-36736D02*
X42791Y-36736D01*
X42791Y-36736D02*
X42371Y-36316D01*
X47079Y-46330D02*
X46386Y-46330D01*
X47950Y-47201D02*
X47079Y-46330D01*
X47971Y-48552D02*
X47971Y-47964D01*
X47985Y-48566D02*
X47971Y-48552D01*
X41998Y-31218D02*
X41998Y-32890D01*
X41900Y-31120D02*
X41998Y-31218D01*
X49850Y-55730D02*
X47640Y-55730D01*
X49880Y-55700D02*
X49850Y-55730D01*
X64113Y-35223D02*
X64113Y-37170D01*
X64110Y-35220D02*
X64113Y-35223D01*
X75215Y-40033D02*
X75236Y-40054D01*
X75236Y-40054D02*
X75236Y-41384D01*
X48222Y-40806D02*
X49191Y-40806D01*
X48207Y-40821D02*
X48222Y-40806D01*
X77360Y-39220D02*
X76520Y-38380D01*
X77360Y-47453D02*
X77360Y-39220D01*
X78678Y-48771D02*
X77360Y-47453D01*
X77580Y-39045D02*
X76888Y-38353D01*
X77580Y-46329D02*
X77580Y-39045D01*
X78690Y-47439D02*
X77580Y-46329D01*
X77805Y-38875D02*
X77260Y-38330D01*
X77805Y-45178D02*
X77805Y-38875D01*
X78687Y-46060D02*
X77805Y-45178D01*
X78060Y-38753D02*
X77625Y-38318D01*
X78060Y-43806D02*
X78060Y-38753D01*
X78683Y-44429D02*
X78060Y-43806D01*
X78267Y-38580D02*
X78003Y-38316D01*
X78267Y-42415D02*
X78267Y-38580D01*
X78692Y-42840D02*
X78267Y-42415D01*
X78440Y-38345D02*
X78381Y-38286D01*
X78440Y-41010D02*
X78440Y-38345D01*
X78710Y-41280D02*
X78440Y-41010D01*
X78701Y-40031D02*
X78701Y-38250D01*
X78720Y-40050D02*
X78701Y-40031D01*
X44100Y-48534D02*
X44100Y-49945D01*
X44112Y-48522D02*
X44100Y-48534D01*
X43455Y-48720D02*
X42465Y-48720D01*
X43701Y-48474D02*
X43455Y-48720D01*
X42900Y-52518D02*
X42900Y-52753D01*
X42560Y-52178D02*
X42900Y-52518D01*
X37989Y-52178D02*
X42560Y-52178D01*
X37961Y-52150D02*
X37989Y-52178D01*
X47187Y-47970D02*
X47187Y-48537D01*
X47196Y-47961D02*
X47187Y-47970D01*
X45882Y-46577D02*
X46901Y-46577D01*
X46901Y-46577D02*
X46922Y-46598D01*
X45882Y-45842D02*
X45882Y-46577D01*
X46620Y-45104D02*
X45882Y-45842D01*
G36*
X71660Y-37124D02*
X71580Y-37204D01*
X69360Y-37204D01*
X69359Y-37204D01*
X69338Y-37208D01*
X69253Y-37225D01*
X69162Y-37286D01*
X69162Y-37286D01*
X68602Y-37845D01*
X68557Y-37845D01*
X68421Y-37901D01*
X68360Y-37963D01*
X68144Y-37747D01*
X68144Y-37506D01*
X68123Y-37399D01*
X68072Y-37322D01*
X68072Y-37322D01*
X68072Y-37272D01*
X68016Y-37136D01*
X67912Y-37033D01*
X67777Y-36976D01*
X67631Y-36976D01*
X67495Y-37032D01*
X67392Y-37136D01*
X67359Y-37214D01*
X66792Y-37214D01*
X66800Y-37195D01*
X66800Y-37149D01*
X67427Y-36521D01*
X67427Y-36521D01*
X67427Y-36521D01*
X67488Y-36430D01*
X67488Y-36430D01*
X67505Y-36345D01*
X67509Y-36324D01*
X67509Y-36324D01*
X67509Y-36324D01*
X67509Y-33195D01*
X67488Y-33088D01*
X67427Y-32997D01*
X67088Y-32657D01*
X67088Y-32612D01*
X67032Y-32476D01*
X66928Y-32373D01*
X66908Y-32364D01*
X67369Y-32364D01*
X67844Y-32839D01*
X67844Y-35783D01*
X67803Y-35800D01*
X67700Y-35904D01*
X67643Y-36039D01*
X67643Y-36185D01*
X67676Y-36264D01*
X67637Y-36303D01*
X67580Y-36438D01*
X67580Y-36584D01*
X67636Y-36720D01*
X67740Y-36823D01*
X67875Y-36880D01*
X68021Y-36880D01*
X68157Y-36824D01*
X68260Y-36720D01*
X68316Y-36587D01*
X68319Y-36591D01*
X68469Y-36653D01*
X68631Y-36653D01*
X68781Y-36591D01*
X68896Y-36477D01*
X68958Y-36327D01*
X68958Y-36165D01*
X68896Y-36015D01*
X68893Y-36012D01*
X68893Y-34716D01*
X69177Y-34432D01*
X69810Y-34432D01*
X69761Y-34505D01*
X69720Y-34715D01*
X69720Y-34928D01*
X69761Y-35138D01*
X69881Y-35317D01*
X70059Y-35436D01*
X70270Y-35478D01*
X70480Y-35436D01*
X70658Y-35317D01*
X70770Y-35150D01*
X70881Y-35317D01*
X71035Y-35420D01*
X70881Y-35522D01*
X70761Y-35701D01*
X70720Y-35911D01*
X70720Y-36124D01*
X70761Y-36334D01*
X70881Y-36513D01*
X71059Y-36632D01*
X71270Y-36674D01*
X71456Y-36636D01*
X71456Y-36654D01*
X71480Y-36772D01*
X71517Y-36827D01*
X71517Y-36893D01*
X71579Y-37043D01*
X71660Y-37124D01*
X71660Y-37124D01*
G37*
G54D27*
X71660Y-37124D02*
X71580Y-37204D01*
X69360Y-37204D01*
X69359Y-37204D01*
X69338Y-37208D01*
X69253Y-37225D01*
X69162Y-37286D01*
X69162Y-37286D01*
X68602Y-37845D01*
X68557Y-37845D01*
X68421Y-37901D01*
X68360Y-37963D01*
X68144Y-37747D01*
X68144Y-37506D01*
X68123Y-37399D01*
X68072Y-37322D01*
X68072Y-37322D01*
X68072Y-37272D01*
X68016Y-37136D01*
X67912Y-37033D01*
X67777Y-36976D01*
X67631Y-36976D01*
X67495Y-37032D01*
X67392Y-37136D01*
X67359Y-37214D01*
X66792Y-37214D01*
X66800Y-37195D01*
X66800Y-37149D01*
X67427Y-36521D01*
X67427Y-36521D01*
X67427Y-36521D01*
X67488Y-36430D01*
X67488Y-36430D01*
X67505Y-36345D01*
X67509Y-36324D01*
X67509Y-36324D01*
X67509Y-36324D01*
X67509Y-33195D01*
X67488Y-33088D01*
X67427Y-32997D01*
X67088Y-32657D01*
X67088Y-32612D01*
X67032Y-32476D01*
X66928Y-32373D01*
X66908Y-32364D01*
X67369Y-32364D01*
X67844Y-32839D01*
X67844Y-35783D01*
X67803Y-35800D01*
X67700Y-35904D01*
X67643Y-36039D01*
X67643Y-36185D01*
X67676Y-36264D01*
X67637Y-36303D01*
X67580Y-36438D01*
X67580Y-36584D01*
X67636Y-36720D01*
X67740Y-36823D01*
X67875Y-36880D01*
X68021Y-36880D01*
X68157Y-36824D01*
X68260Y-36720D01*
X68316Y-36587D01*
X68319Y-36591D01*
X68469Y-36653D01*
X68631Y-36653D01*
X68781Y-36591D01*
X68896Y-36477D01*
X68958Y-36327D01*
X68958Y-36165D01*
X68896Y-36015D01*
X68893Y-36012D01*
X68893Y-34716D01*
X69177Y-34432D01*
X69810Y-34432D01*
X69761Y-34505D01*
X69720Y-34715D01*
X69720Y-34928D01*
X69761Y-35138D01*
X69881Y-35317D01*
X70059Y-35436D01*
X70270Y-35478D01*
X70480Y-35436D01*
X70658Y-35317D01*
X70770Y-35150D01*
X70881Y-35317D01*
X71035Y-35420D01*
X70881Y-35522D01*
X70761Y-35701D01*
X70720Y-35911D01*
X70720Y-36124D01*
X70761Y-36334D01*
X70881Y-36513D01*
X71059Y-36632D01*
X71270Y-36674D01*
X71456Y-36636D01*
X71456Y-36654D01*
X71480Y-36772D01*
X71517Y-36827D01*
X71517Y-36893D01*
X71579Y-37043D01*
X71660Y-37124D01*
G54D10*
G36*
X71722Y-46217D02*
X71639Y-46251D01*
X71536Y-46355D01*
X71479Y-46490D01*
X71479Y-46560D01*
X71220Y-46560D01*
X71266Y-46450D01*
X71266Y-46304D01*
X71210Y-46168D01*
X71106Y-46065D01*
X70971Y-46008D01*
X70825Y-46008D01*
X70689Y-46064D01*
X70586Y-46168D01*
X70563Y-46221D01*
X67924Y-46221D01*
X67891Y-46189D01*
X67756Y-46132D01*
X67610Y-46132D01*
X67474Y-46188D01*
X67371Y-46292D01*
X67314Y-46427D01*
X67314Y-46573D01*
X67349Y-46657D01*
X67301Y-46677D01*
X67198Y-46781D01*
X67141Y-46916D01*
X67141Y-47062D01*
X67197Y-47198D01*
X67301Y-47301D01*
X67323Y-47311D01*
X67323Y-47326D01*
X67379Y-47462D01*
X67483Y-47565D01*
X67618Y-47622D01*
X67764Y-47622D01*
X67900Y-47566D01*
X68003Y-47462D01*
X68060Y-47327D01*
X68060Y-47281D01*
X68072Y-47268D01*
X71451Y-47268D01*
X71451Y-47308D01*
X71507Y-47444D01*
X71611Y-47547D01*
X71638Y-47559D01*
X71638Y-49655D01*
X71535Y-49552D01*
X71316Y-49461D01*
X71080Y-49461D01*
X70861Y-49551D01*
X70753Y-49659D01*
X70701Y-49533D01*
X70587Y-49418D01*
X70437Y-49356D01*
X70385Y-49356D01*
X70244Y-49215D01*
X70144Y-49148D01*
X70026Y-49124D01*
X68665Y-49124D01*
X68629Y-49088D01*
X68479Y-49026D01*
X68317Y-49026D01*
X68167Y-49088D01*
X68052Y-49202D01*
X67990Y-49352D01*
X67990Y-49514D01*
X68052Y-49664D01*
X68166Y-49779D01*
X68316Y-49841D01*
X68478Y-49841D01*
X68481Y-49840D01*
X68439Y-49953D01*
X68450Y-50189D01*
X68520Y-50360D01*
X68620Y-50393D01*
X68968Y-50046D01*
X68962Y-50040D01*
X69033Y-49969D01*
X69039Y-49975D01*
X69044Y-49969D01*
X69115Y-50040D01*
X69109Y-50046D01*
X69457Y-50393D01*
X69557Y-50360D01*
X69638Y-50138D01*
X69627Y-49902D01*
X69561Y-49743D01*
X69897Y-49743D01*
X69948Y-49793D01*
X69948Y-49844D01*
X70010Y-49994D01*
X70124Y-50109D01*
X70274Y-50171D01*
X70436Y-50171D01*
X70586Y-50109D01*
X70603Y-50092D01*
X70603Y-50173D01*
X70693Y-50392D01*
X70860Y-50559D01*
X71055Y-50640D01*
X71055Y-50710D01*
X71111Y-50846D01*
X71215Y-50949D01*
X71242Y-50961D01*
X71242Y-52090D01*
X70523Y-52809D01*
X70523Y-52787D01*
X70467Y-52651D01*
X70363Y-52548D01*
X70228Y-52491D01*
X70082Y-52491D01*
X69946Y-52547D01*
X69913Y-52580D01*
X69386Y-52580D01*
X69386Y-50464D01*
X69039Y-50116D01*
X68691Y-50464D01*
X68724Y-50564D01*
X68946Y-50645D01*
X69182Y-50634D01*
X69353Y-50564D01*
X69386Y-50464D01*
X69386Y-52580D01*
X68240Y-52580D01*
X68391Y-52518D01*
X68558Y-52351D01*
X68649Y-52132D01*
X68649Y-51896D01*
X68559Y-51677D01*
X68392Y-51510D01*
X68173Y-51419D01*
X67937Y-51419D01*
X67718Y-51509D01*
X67665Y-51562D01*
X67665Y-49928D01*
X67575Y-49709D01*
X67408Y-49542D01*
X67189Y-49451D01*
X66953Y-49451D01*
X66734Y-49541D01*
X66567Y-49708D01*
X66476Y-49927D01*
X66476Y-50163D01*
X66566Y-50382D01*
X66733Y-50549D01*
X66952Y-50640D01*
X67188Y-50640D01*
X67407Y-50550D01*
X67574Y-50383D01*
X67665Y-50164D01*
X67665Y-49928D01*
X67665Y-51562D01*
X67551Y-51676D01*
X67460Y-51895D01*
X67460Y-52131D01*
X67550Y-52350D01*
X67717Y-52517D01*
X67868Y-52580D01*
X66100Y-52580D01*
X65822Y-52302D01*
X65731Y-52241D01*
X65625Y-52220D01*
X65141Y-52220D01*
X65402Y-51959D01*
X65402Y-51959D01*
X65402Y-51959D01*
X65463Y-51868D01*
X65484Y-51762D01*
X65484Y-51388D01*
X65516Y-51356D01*
X65589Y-51356D01*
X65725Y-51300D01*
X65828Y-51196D01*
X65885Y-51061D01*
X65885Y-51042D01*
X65931Y-51023D01*
X66034Y-50919D01*
X66091Y-50784D01*
X66091Y-50638D01*
X66035Y-50502D01*
X65931Y-50399D01*
X65796Y-50342D01*
X65650Y-50342D01*
X65514Y-50398D01*
X65481Y-50431D01*
X64629Y-50431D01*
X64522Y-50452D01*
X64431Y-50513D01*
X63721Y-51223D01*
X61720Y-51223D01*
X61594Y-51096D01*
X61594Y-51051D01*
X61538Y-50915D01*
X61496Y-50874D01*
X61499Y-50870D01*
X61556Y-50735D01*
X61556Y-50589D01*
X61500Y-50453D01*
X61397Y-50350D01*
X61397Y-50291D01*
X61341Y-50155D01*
X61237Y-50052D01*
X61102Y-49995D01*
X60956Y-49995D01*
X60820Y-50051D01*
X60717Y-50155D01*
X60660Y-50290D01*
X60660Y-50336D01*
X60547Y-50450D01*
X59413Y-50450D01*
X58556Y-49593D01*
X58465Y-49532D01*
X58359Y-49511D01*
X57759Y-49511D01*
X57897Y-49373D01*
X57958Y-49282D01*
X57979Y-49176D01*
X57979Y-47521D01*
X58025Y-47568D01*
X58127Y-47610D01*
X58127Y-47815D01*
X58051Y-47891D01*
X57989Y-48041D01*
X57989Y-48203D01*
X58051Y-48353D01*
X58165Y-48468D01*
X58315Y-48530D01*
X58477Y-48530D01*
X58627Y-48468D01*
X58742Y-48354D01*
X58804Y-48204D01*
X58804Y-48042D01*
X58746Y-47900D01*
X58746Y-47669D01*
X59832Y-47669D01*
X59868Y-47705D01*
X59967Y-47746D01*
X60020Y-47875D01*
X60124Y-47978D01*
X60141Y-47986D01*
X60141Y-48002D01*
X60197Y-48138D01*
X60301Y-48241D01*
X60436Y-48298D01*
X60582Y-48298D01*
X60718Y-48242D01*
X60751Y-48209D01*
X60932Y-48209D01*
X60882Y-48329D01*
X60882Y-48491D01*
X60944Y-48641D01*
X61058Y-48756D01*
X61208Y-48818D01*
X61370Y-48818D01*
X61520Y-48756D01*
X61635Y-48642D01*
X61697Y-48492D01*
X61697Y-48440D01*
X62027Y-48110D01*
X62094Y-48010D01*
X62094Y-48010D01*
X62107Y-47944D01*
X62154Y-47898D01*
X62216Y-47748D01*
X62216Y-47586D01*
X62154Y-47436D01*
X62040Y-47321D01*
X61890Y-47259D01*
X61838Y-47259D01*
X61580Y-47001D01*
X61512Y-46956D01*
X61620Y-46956D01*
X61756Y-46900D01*
X61859Y-46796D01*
X61916Y-46661D01*
X61916Y-46515D01*
X61899Y-46474D01*
X61941Y-46371D01*
X62068Y-46319D01*
X62171Y-46215D01*
X62228Y-46080D01*
X62228Y-45934D01*
X62172Y-45798D01*
X62138Y-45764D01*
X62138Y-45658D01*
X62109Y-45589D01*
X62147Y-45499D01*
X62147Y-45353D01*
X62124Y-45298D01*
X62162Y-45208D01*
X62162Y-45062D01*
X62106Y-44926D01*
X62002Y-44823D01*
X61867Y-44766D01*
X61721Y-44766D01*
X61585Y-44822D01*
X61540Y-44867D01*
X61186Y-44867D01*
X61153Y-44835D01*
X61018Y-44778D01*
X60872Y-44778D01*
X60736Y-44834D01*
X60633Y-44938D01*
X60576Y-45073D01*
X60576Y-45219D01*
X60632Y-45355D01*
X60641Y-45364D01*
X60641Y-45506D01*
X60691Y-45627D01*
X60669Y-45679D01*
X60669Y-45814D01*
X60627Y-45856D01*
X59206Y-44434D01*
X59206Y-44363D01*
X59150Y-44227D01*
X59046Y-44124D01*
X58911Y-44067D01*
X58818Y-44067D01*
X58736Y-43986D01*
X58708Y-43974D01*
X63005Y-43974D01*
X62963Y-44074D01*
X62963Y-44220D01*
X63019Y-44356D01*
X63123Y-44459D01*
X63230Y-44504D01*
X63252Y-44559D01*
X63356Y-44662D01*
X63491Y-44719D01*
X63637Y-44719D01*
X63773Y-44663D01*
X63806Y-44630D01*
X64545Y-44630D01*
X64591Y-44675D01*
X64726Y-44732D01*
X64872Y-44732D01*
X64890Y-44724D01*
X64890Y-46543D01*
X64735Y-46388D01*
X64735Y-46337D01*
X64673Y-46187D01*
X64559Y-46072D01*
X64409Y-46010D01*
X64247Y-46010D01*
X64097Y-46072D01*
X63982Y-46186D01*
X63920Y-46336D01*
X63920Y-46498D01*
X63982Y-46648D01*
X64096Y-46763D01*
X64246Y-46825D01*
X64298Y-46825D01*
X64466Y-46994D01*
X64466Y-47822D01*
X64430Y-47858D01*
X64423Y-47877D01*
X64419Y-47874D01*
X64284Y-47817D01*
X64138Y-47817D01*
X64002Y-47873D01*
X63899Y-47977D01*
X63892Y-47993D01*
X63877Y-47993D01*
X63741Y-48049D01*
X63638Y-48153D01*
X63581Y-48288D01*
X63581Y-48434D01*
X63637Y-48570D01*
X63741Y-48673D01*
X63876Y-48730D01*
X63922Y-48730D01*
X63932Y-48739D01*
X64023Y-48800D01*
X64130Y-48821D01*
X65079Y-48821D01*
X65117Y-48813D01*
X65188Y-48885D01*
X65338Y-48947D01*
X65500Y-48947D01*
X65650Y-48885D01*
X65765Y-48771D01*
X65827Y-48621D01*
X65827Y-48459D01*
X65785Y-48357D01*
X65785Y-44684D01*
X65862Y-44716D01*
X66008Y-44716D01*
X66144Y-44660D01*
X66247Y-44556D01*
X66304Y-44421D01*
X66304Y-44375D01*
X67677Y-43001D01*
X67738Y-42910D01*
X67745Y-42874D01*
X67924Y-42874D01*
X67978Y-42927D01*
X68113Y-42984D01*
X68259Y-42984D01*
X68395Y-42928D01*
X68498Y-42824D01*
X68555Y-42689D01*
X68555Y-42543D01*
X68499Y-42407D01*
X68395Y-42304D01*
X68260Y-42247D01*
X68114Y-42247D01*
X67978Y-42303D01*
X67967Y-42315D01*
X67759Y-42315D01*
X67759Y-39939D01*
X68183Y-39516D01*
X68228Y-39516D01*
X68364Y-39460D01*
X68467Y-39356D01*
X68524Y-39221D01*
X68524Y-39169D01*
X71722Y-42367D01*
X71722Y-46217D01*
X71722Y-46217D01*
G37*
G54D27*
X71722Y-46217D02*
X71639Y-46251D01*
X71536Y-46355D01*
X71479Y-46490D01*
X71479Y-46560D01*
X71220Y-46560D01*
X71266Y-46450D01*
X71266Y-46304D01*
X71210Y-46168D01*
X71106Y-46065D01*
X70971Y-46008D01*
X70825Y-46008D01*
X70689Y-46064D01*
X70586Y-46168D01*
X70563Y-46221D01*
X67924Y-46221D01*
X67891Y-46189D01*
X67756Y-46132D01*
X67610Y-46132D01*
X67474Y-46188D01*
X67371Y-46292D01*
X67314Y-46427D01*
X67314Y-46573D01*
X67349Y-46657D01*
X67301Y-46677D01*
X67198Y-46781D01*
X67141Y-46916D01*
X67141Y-47062D01*
X67197Y-47198D01*
X67301Y-47301D01*
X67323Y-47311D01*
X67323Y-47326D01*
X67379Y-47462D01*
X67483Y-47565D01*
X67618Y-47622D01*
X67764Y-47622D01*
X67900Y-47566D01*
X68003Y-47462D01*
X68060Y-47327D01*
X68060Y-47281D01*
X68072Y-47268D01*
X71451Y-47268D01*
X71451Y-47308D01*
X71507Y-47444D01*
X71611Y-47547D01*
X71638Y-47559D01*
X71638Y-49655D01*
X71535Y-49552D01*
X71316Y-49461D01*
X71080Y-49461D01*
X70861Y-49551D01*
X70753Y-49659D01*
X70701Y-49533D01*
X70587Y-49418D01*
X70437Y-49356D01*
X70385Y-49356D01*
X70244Y-49215D01*
X70144Y-49148D01*
X70026Y-49124D01*
X68665Y-49124D01*
X68629Y-49088D01*
X68479Y-49026D01*
X68317Y-49026D01*
X68167Y-49088D01*
X68052Y-49202D01*
X67990Y-49352D01*
X67990Y-49514D01*
X68052Y-49664D01*
X68166Y-49779D01*
X68316Y-49841D01*
X68478Y-49841D01*
X68481Y-49840D01*
X68439Y-49953D01*
X68450Y-50189D01*
X68520Y-50360D01*
X68620Y-50393D01*
X68968Y-50046D01*
X68962Y-50040D01*
X69033Y-49969D01*
X69039Y-49975D01*
X69044Y-49969D01*
X69115Y-50040D01*
X69109Y-50046D01*
X69457Y-50393D01*
X69557Y-50360D01*
X69638Y-50138D01*
X69627Y-49902D01*
X69561Y-49743D01*
X69897Y-49743D01*
X69948Y-49793D01*
X69948Y-49844D01*
X70010Y-49994D01*
X70124Y-50109D01*
X70274Y-50171D01*
X70436Y-50171D01*
X70586Y-50109D01*
X70603Y-50092D01*
X70603Y-50173D01*
X70693Y-50392D01*
X70860Y-50559D01*
X71055Y-50640D01*
X71055Y-50710D01*
X71111Y-50846D01*
X71215Y-50949D01*
X71242Y-50961D01*
X71242Y-52090D01*
X70523Y-52809D01*
X70523Y-52787D01*
X70467Y-52651D01*
X70363Y-52548D01*
X70228Y-52491D01*
X70082Y-52491D01*
X69946Y-52547D01*
X69913Y-52580D01*
X69386Y-52580D01*
X69386Y-50464D01*
X69039Y-50116D01*
X68691Y-50464D01*
X68724Y-50564D01*
X68946Y-50645D01*
X69182Y-50634D01*
X69353Y-50564D01*
X69386Y-50464D01*
X69386Y-52580D01*
X68240Y-52580D01*
X68391Y-52518D01*
X68558Y-52351D01*
X68649Y-52132D01*
X68649Y-51896D01*
X68559Y-51677D01*
X68392Y-51510D01*
X68173Y-51419D01*
X67937Y-51419D01*
X67718Y-51509D01*
X67665Y-51562D01*
X67665Y-49928D01*
X67575Y-49709D01*
X67408Y-49542D01*
X67189Y-49451D01*
X66953Y-49451D01*
X66734Y-49541D01*
X66567Y-49708D01*
X66476Y-49927D01*
X66476Y-50163D01*
X66566Y-50382D01*
X66733Y-50549D01*
X66952Y-50640D01*
X67188Y-50640D01*
X67407Y-50550D01*
X67574Y-50383D01*
X67665Y-50164D01*
X67665Y-49928D01*
X67665Y-51562D01*
X67551Y-51676D01*
X67460Y-51895D01*
X67460Y-52131D01*
X67550Y-52350D01*
X67717Y-52517D01*
X67868Y-52580D01*
X66100Y-52580D01*
X65822Y-52302D01*
X65731Y-52241D01*
X65625Y-52220D01*
X65141Y-52220D01*
X65402Y-51959D01*
X65402Y-51959D01*
X65402Y-51959D01*
X65463Y-51868D01*
X65484Y-51762D01*
X65484Y-51388D01*
X65516Y-51356D01*
X65589Y-51356D01*
X65725Y-51300D01*
X65828Y-51196D01*
X65885Y-51061D01*
X65885Y-51042D01*
X65931Y-51023D01*
X66034Y-50919D01*
X66091Y-50784D01*
X66091Y-50638D01*
X66035Y-50502D01*
X65931Y-50399D01*
X65796Y-50342D01*
X65650Y-50342D01*
X65514Y-50398D01*
X65481Y-50431D01*
X64629Y-50431D01*
X64522Y-50452D01*
X64431Y-50513D01*
X63721Y-51223D01*
X61720Y-51223D01*
X61594Y-51096D01*
X61594Y-51051D01*
X61538Y-50915D01*
X61496Y-50874D01*
X61499Y-50870D01*
X61556Y-50735D01*
X61556Y-50589D01*
X61500Y-50453D01*
X61397Y-50350D01*
X61397Y-50291D01*
X61341Y-50155D01*
X61237Y-50052D01*
X61102Y-49995D01*
X60956Y-49995D01*
X60820Y-50051D01*
X60717Y-50155D01*
X60660Y-50290D01*
X60660Y-50336D01*
X60547Y-50450D01*
X59413Y-50450D01*
X58556Y-49593D01*
X58465Y-49532D01*
X58359Y-49511D01*
X57759Y-49511D01*
X57897Y-49373D01*
X57958Y-49282D01*
X57979Y-49176D01*
X57979Y-47521D01*
X58025Y-47568D01*
X58127Y-47610D01*
X58127Y-47815D01*
X58051Y-47891D01*
X57989Y-48041D01*
X57989Y-48203D01*
X58051Y-48353D01*
X58165Y-48468D01*
X58315Y-48530D01*
X58477Y-48530D01*
X58627Y-48468D01*
X58742Y-48354D01*
X58804Y-48204D01*
X58804Y-48042D01*
X58746Y-47900D01*
X58746Y-47669D01*
X59832Y-47669D01*
X59868Y-47705D01*
X59967Y-47746D01*
X60020Y-47875D01*
X60124Y-47978D01*
X60141Y-47986D01*
X60141Y-48002D01*
X60197Y-48138D01*
X60301Y-48241D01*
X60436Y-48298D01*
X60582Y-48298D01*
X60718Y-48242D01*
X60751Y-48209D01*
X60932Y-48209D01*
X60882Y-48329D01*
X60882Y-48491D01*
X60944Y-48641D01*
X61058Y-48756D01*
X61208Y-48818D01*
X61370Y-48818D01*
X61520Y-48756D01*
X61635Y-48642D01*
X61697Y-48492D01*
X61697Y-48440D01*
X62027Y-48110D01*
X62094Y-48010D01*
X62094Y-48010D01*
X62107Y-47944D01*
X62154Y-47898D01*
X62216Y-47748D01*
X62216Y-47586D01*
X62154Y-47436D01*
X62040Y-47321D01*
X61890Y-47259D01*
X61838Y-47259D01*
X61580Y-47001D01*
X61512Y-46956D01*
X61620Y-46956D01*
X61756Y-46900D01*
X61859Y-46796D01*
X61916Y-46661D01*
X61916Y-46515D01*
X61899Y-46474D01*
X61941Y-46371D01*
X62068Y-46319D01*
X62171Y-46215D01*
X62228Y-46080D01*
X62228Y-45934D01*
X62172Y-45798D01*
X62138Y-45764D01*
X62138Y-45658D01*
X62109Y-45589D01*
X62147Y-45499D01*
X62147Y-45353D01*
X62124Y-45298D01*
X62162Y-45208D01*
X62162Y-45062D01*
X62106Y-44926D01*
X62002Y-44823D01*
X61867Y-44766D01*
X61721Y-44766D01*
X61585Y-44822D01*
X61540Y-44867D01*
X61186Y-44867D01*
X61153Y-44835D01*
X61018Y-44778D01*
X60872Y-44778D01*
X60736Y-44834D01*
X60633Y-44938D01*
X60576Y-45073D01*
X60576Y-45219D01*
X60632Y-45355D01*
X60641Y-45364D01*
X60641Y-45506D01*
X60691Y-45627D01*
X60669Y-45679D01*
X60669Y-45814D01*
X60627Y-45856D01*
X59206Y-44434D01*
X59206Y-44363D01*
X59150Y-44227D01*
X59046Y-44124D01*
X58911Y-44067D01*
X58818Y-44067D01*
X58736Y-43986D01*
X58708Y-43974D01*
X63005Y-43974D01*
X62963Y-44074D01*
X62963Y-44220D01*
X63019Y-44356D01*
X63123Y-44459D01*
X63230Y-44504D01*
X63252Y-44559D01*
X63356Y-44662D01*
X63491Y-44719D01*
X63637Y-44719D01*
X63773Y-44663D01*
X63806Y-44630D01*
X64545Y-44630D01*
X64591Y-44675D01*
X64726Y-44732D01*
X64872Y-44732D01*
X64890Y-44724D01*
X64890Y-46543D01*
X64735Y-46388D01*
X64735Y-46337D01*
X64673Y-46187D01*
X64559Y-46072D01*
X64409Y-46010D01*
X64247Y-46010D01*
X64097Y-46072D01*
X63982Y-46186D01*
X63920Y-46336D01*
X63920Y-46498D01*
X63982Y-46648D01*
X64096Y-46763D01*
X64246Y-46825D01*
X64298Y-46825D01*
X64466Y-46994D01*
X64466Y-47822D01*
X64430Y-47858D01*
X64423Y-47877D01*
X64419Y-47874D01*
X64284Y-47817D01*
X64138Y-47817D01*
X64002Y-47873D01*
X63899Y-47977D01*
X63892Y-47993D01*
X63877Y-47993D01*
X63741Y-48049D01*
X63638Y-48153D01*
X63581Y-48288D01*
X63581Y-48434D01*
X63637Y-48570D01*
X63741Y-48673D01*
X63876Y-48730D01*
X63922Y-48730D01*
X63932Y-48739D01*
X64023Y-48800D01*
X64130Y-48821D01*
X65079Y-48821D01*
X65117Y-48813D01*
X65188Y-48885D01*
X65338Y-48947D01*
X65500Y-48947D01*
X65650Y-48885D01*
X65765Y-48771D01*
X65827Y-48621D01*
X65827Y-48459D01*
X65785Y-48357D01*
X65785Y-44684D01*
X65862Y-44716D01*
X66008Y-44716D01*
X66144Y-44660D01*
X66247Y-44556D01*
X66304Y-44421D01*
X66304Y-44375D01*
X67677Y-43001D01*
X67738Y-42910D01*
X67745Y-42874D01*
X67924Y-42874D01*
X67978Y-42927D01*
X68113Y-42984D01*
X68259Y-42984D01*
X68395Y-42928D01*
X68498Y-42824D01*
X68555Y-42689D01*
X68555Y-42543D01*
X68499Y-42407D01*
X68395Y-42304D01*
X68260Y-42247D01*
X68114Y-42247D01*
X67978Y-42303D01*
X67967Y-42315D01*
X67759Y-42315D01*
X67759Y-39939D01*
X68183Y-39516D01*
X68228Y-39516D01*
X68364Y-39460D01*
X68467Y-39356D01*
X68524Y-39221D01*
X68524Y-39169D01*
X71722Y-42367D01*
X71722Y-46217D01*
G54D10*
G36*
X81830Y-57393D02*
X81820Y-57369D01*
X81820Y-36124D01*
X81820Y-35911D01*
X81778Y-35701D01*
X81658Y-35522D01*
X81504Y-35420D01*
X81658Y-35317D01*
X81778Y-35138D01*
X81820Y-34928D01*
X81820Y-34715D01*
X81778Y-34505D01*
X81658Y-34326D01*
X81480Y-34207D01*
X81270Y-34165D01*
X81059Y-34207D01*
X80881Y-34326D01*
X80770Y-34493D01*
X80658Y-34326D01*
X80480Y-34207D01*
X80270Y-34165D01*
X80059Y-34207D01*
X79881Y-34326D01*
X79770Y-34493D01*
X79658Y-34326D01*
X79480Y-34207D01*
X79270Y-34165D01*
X79059Y-34207D01*
X78881Y-34326D01*
X78770Y-34493D01*
X78658Y-34326D01*
X78480Y-34207D01*
X78270Y-34165D01*
X78059Y-34207D01*
X77881Y-34326D01*
X77770Y-34493D01*
X77658Y-34326D01*
X77480Y-34207D01*
X77270Y-34165D01*
X77059Y-34207D01*
X76881Y-34326D01*
X76770Y-34493D01*
X76658Y-34326D01*
X76480Y-34207D01*
X76270Y-34165D01*
X76059Y-34207D01*
X75881Y-34326D01*
X75770Y-34493D01*
X75658Y-34326D01*
X75480Y-34207D01*
X75270Y-34165D01*
X75059Y-34207D01*
X74881Y-34326D01*
X74770Y-34493D01*
X74658Y-34326D01*
X74480Y-34207D01*
X74270Y-34165D01*
X74059Y-34207D01*
X73881Y-34326D01*
X73770Y-34493D01*
X73658Y-34326D01*
X73480Y-34207D01*
X73270Y-34165D01*
X73059Y-34207D01*
X72881Y-34326D01*
X72770Y-34493D01*
X72658Y-34326D01*
X72480Y-34207D01*
X72270Y-34165D01*
X72075Y-34204D01*
X72075Y-34204D01*
X72051Y-34085D01*
X72051Y-34085D01*
X71984Y-33985D01*
X71485Y-33486D01*
X71385Y-33419D01*
X71267Y-33395D01*
X70477Y-33395D01*
X70441Y-33359D01*
X70291Y-33297D01*
X70129Y-33297D01*
X69979Y-33359D01*
X69864Y-33473D01*
X69802Y-33623D01*
X69802Y-33785D01*
X69838Y-33873D01*
X69062Y-33873D01*
X69061Y-33873D01*
X69040Y-33877D01*
X68955Y-33894D01*
X68864Y-33955D01*
X68864Y-33955D01*
X68585Y-34234D01*
X68585Y-32606D01*
X68585Y-32605D01*
X68585Y-32605D01*
X68581Y-32584D01*
X68564Y-32499D01*
X68564Y-32499D01*
X68503Y-32408D01*
X68503Y-32408D01*
X67607Y-31512D01*
X67516Y-31451D01*
X67410Y-31430D01*
X66681Y-31430D01*
X66648Y-31398D01*
X66513Y-31341D01*
X66367Y-31341D01*
X66231Y-31397D01*
X66128Y-31501D01*
X66127Y-31502D01*
X66127Y-30753D01*
X66568Y-30312D01*
X68531Y-30312D01*
X68474Y-30368D01*
X68412Y-30518D01*
X68412Y-30680D01*
X68474Y-30830D01*
X68588Y-30945D01*
X68738Y-31007D01*
X68900Y-31007D01*
X69050Y-30945D01*
X69087Y-30909D01*
X70232Y-30909D01*
X70268Y-30945D01*
X70418Y-31007D01*
X70580Y-31007D01*
X70730Y-30945D01*
X70845Y-30831D01*
X70907Y-30681D01*
X70907Y-30519D01*
X70845Y-30369D01*
X70788Y-30312D01*
X71574Y-30312D01*
X71776Y-30514D01*
X71867Y-30575D01*
X71974Y-30596D01*
X73171Y-30596D01*
X73277Y-30575D01*
X73368Y-30514D01*
X73727Y-30155D01*
X75509Y-30155D01*
X75615Y-30134D01*
X75706Y-30073D01*
X75935Y-29845D01*
X75980Y-29845D01*
X76116Y-29789D01*
X76219Y-29685D01*
X76276Y-29550D01*
X76276Y-29404D01*
X76220Y-29268D01*
X76116Y-29165D01*
X75981Y-29108D01*
X75835Y-29108D01*
X75699Y-29164D01*
X75596Y-29268D01*
X75539Y-29403D01*
X75539Y-29449D01*
X75479Y-29510D01*
X75444Y-29424D01*
X75340Y-29321D01*
X75205Y-29264D01*
X75059Y-29264D01*
X74923Y-29320D01*
X74836Y-29407D01*
X73498Y-29407D01*
X73497Y-29407D01*
X73476Y-29411D01*
X73442Y-29418D01*
X73369Y-29346D01*
X73234Y-29289D01*
X73088Y-29289D01*
X73085Y-29290D01*
X73016Y-29222D01*
X72881Y-29165D01*
X72813Y-29165D01*
X72787Y-29139D01*
X73498Y-29139D01*
X73531Y-29171D01*
X73666Y-29228D01*
X73812Y-29228D01*
X73948Y-29172D01*
X74051Y-29068D01*
X74108Y-28933D01*
X74108Y-28787D01*
X74052Y-28651D01*
X73948Y-28548D01*
X73813Y-28491D01*
X73725Y-28491D01*
X73725Y-28491D01*
X73786Y-28400D01*
X73807Y-28294D01*
X73807Y-27569D01*
X74101Y-27276D01*
X74146Y-27276D01*
X74282Y-27220D01*
X74385Y-27116D01*
X74442Y-26981D01*
X74442Y-26835D01*
X74386Y-26699D01*
X74282Y-26596D01*
X74147Y-26539D01*
X74001Y-26539D01*
X73865Y-26595D01*
X73762Y-26699D01*
X73705Y-26834D01*
X73705Y-26880D01*
X73330Y-27256D01*
X73269Y-27347D01*
X73248Y-27454D01*
X73248Y-28163D01*
X73238Y-28163D01*
X73238Y-24819D01*
X73182Y-24683D01*
X73078Y-24580D01*
X72943Y-24523D01*
X72797Y-24523D01*
X72661Y-24579D01*
X72558Y-24683D01*
X72501Y-24818D01*
X72501Y-24893D01*
X72499Y-24897D01*
X72478Y-25004D01*
X72478Y-25406D01*
X72061Y-25823D01*
X70371Y-25823D01*
X70264Y-25844D01*
X70173Y-25905D01*
X69783Y-26294D01*
X69738Y-26294D01*
X69602Y-26350D01*
X69499Y-26454D01*
X69442Y-26589D01*
X69442Y-26735D01*
X69498Y-26871D01*
X69602Y-26974D01*
X69737Y-27031D01*
X69883Y-27031D01*
X70019Y-26975D01*
X70122Y-26871D01*
X70179Y-26736D01*
X70179Y-26690D01*
X70486Y-26382D01*
X72177Y-26382D01*
X72283Y-26361D01*
X72374Y-26300D01*
X72955Y-25719D01*
X72955Y-25719D01*
X72955Y-25719D01*
X73016Y-25628D01*
X73037Y-25522D01*
X73037Y-25221D01*
X73078Y-25204D01*
X73181Y-25100D01*
X73238Y-24965D01*
X73238Y-24819D01*
X73238Y-28163D01*
X73217Y-28163D01*
X73081Y-28219D01*
X72978Y-28323D01*
X72921Y-28458D01*
X72921Y-28580D01*
X69710Y-28580D01*
X69710Y-28445D01*
X69654Y-28309D01*
X69550Y-28206D01*
X69415Y-28149D01*
X69269Y-28149D01*
X69146Y-28200D01*
X69146Y-20635D01*
X69146Y-20497D01*
X69146Y-20397D01*
X69146Y-20259D01*
X69086Y-20054D01*
X68951Y-19888D01*
X68764Y-19786D01*
X68735Y-19781D01*
X68651Y-19829D01*
X68651Y-20397D01*
X69146Y-20397D01*
X69146Y-20497D01*
X68651Y-20497D01*
X68651Y-21065D01*
X68735Y-21113D01*
X68764Y-21108D01*
X68951Y-21006D01*
X69086Y-20840D01*
X69146Y-20635D01*
X69146Y-28200D01*
X69133Y-28205D01*
X69030Y-28309D01*
X69024Y-28322D01*
X65935Y-28322D01*
X65828Y-28343D01*
X65737Y-28404D01*
X64116Y-30025D01*
X64055Y-30116D01*
X64034Y-30223D01*
X64034Y-37234D01*
X63972Y-37296D01*
X63359Y-37296D01*
X63326Y-37264D01*
X63191Y-37207D01*
X63149Y-37207D01*
X63149Y-24294D01*
X66362Y-21082D01*
X66392Y-21102D01*
X66601Y-21144D01*
X66810Y-21102D01*
X66987Y-20984D01*
X67101Y-20813D01*
X67216Y-20984D01*
X67392Y-21102D01*
X67601Y-21144D01*
X67810Y-21102D01*
X67987Y-20984D01*
X68105Y-20807D01*
X68106Y-20803D01*
X68116Y-20840D01*
X68251Y-21006D01*
X68439Y-21108D01*
X68467Y-21113D01*
X68551Y-21065D01*
X68551Y-20497D01*
X68543Y-20497D01*
X68543Y-20397D01*
X68551Y-20397D01*
X68551Y-19829D01*
X68467Y-19781D01*
X68439Y-19786D01*
X68251Y-19888D01*
X68116Y-20054D01*
X68106Y-20091D01*
X68105Y-20087D01*
X67987Y-19910D01*
X67810Y-19792D01*
X67601Y-19751D01*
X67392Y-19792D01*
X67216Y-19910D01*
X67101Y-20082D01*
X66987Y-19910D01*
X66810Y-19792D01*
X66601Y-19751D01*
X66392Y-19792D01*
X66216Y-19910D01*
X66101Y-20082D01*
X65987Y-19910D01*
X65810Y-19792D01*
X65601Y-19751D01*
X65392Y-19792D01*
X65216Y-19910D01*
X65101Y-20082D01*
X64987Y-19910D01*
X64810Y-19792D01*
X64601Y-19751D01*
X64392Y-19792D01*
X64216Y-19910D01*
X64101Y-20082D01*
X63987Y-19910D01*
X63810Y-19792D01*
X63601Y-19751D01*
X63392Y-19792D01*
X63216Y-19910D01*
X63101Y-20082D01*
X62987Y-19910D01*
X62810Y-19792D01*
X62601Y-19751D01*
X62392Y-19792D01*
X62216Y-19910D01*
X62101Y-20082D01*
X61987Y-19910D01*
X61810Y-19792D01*
X61601Y-19751D01*
X61392Y-19792D01*
X61216Y-19910D01*
X61101Y-20082D01*
X60987Y-19910D01*
X60810Y-19792D01*
X60601Y-19751D01*
X60392Y-19792D01*
X60216Y-19910D01*
X60101Y-20082D01*
X59987Y-19910D01*
X59810Y-19792D01*
X59601Y-19751D01*
X59392Y-19792D01*
X59216Y-19910D01*
X59101Y-20082D01*
X58987Y-19910D01*
X58810Y-19792D01*
X58601Y-19751D01*
X58392Y-19792D01*
X58216Y-19910D01*
X58101Y-20082D01*
X57987Y-19910D01*
X57810Y-19792D01*
X57601Y-19751D01*
X57392Y-19792D01*
X57216Y-19910D01*
X57101Y-20082D01*
X56987Y-19910D01*
X56810Y-19792D01*
X56601Y-19751D01*
X56392Y-19792D01*
X56216Y-19910D01*
X56101Y-20082D01*
X55987Y-19910D01*
X55810Y-19792D01*
X55601Y-19751D01*
X55392Y-19792D01*
X55216Y-19910D01*
X55101Y-20082D01*
X54987Y-19910D01*
X54810Y-19792D01*
X54601Y-19751D01*
X54392Y-19792D01*
X54216Y-19910D01*
X54097Y-20087D01*
X54097Y-20091D01*
X54086Y-20054D01*
X53951Y-19888D01*
X53764Y-19786D01*
X53735Y-19781D01*
X53651Y-19829D01*
X53651Y-20397D01*
X53659Y-20397D01*
X53659Y-20497D01*
X53651Y-20497D01*
X53651Y-21065D01*
X53735Y-21113D01*
X53764Y-21108D01*
X53951Y-21006D01*
X54086Y-20840D01*
X54097Y-20803D01*
X54097Y-20807D01*
X54216Y-20984D01*
X54341Y-21068D01*
X54252Y-21068D01*
X54145Y-21089D01*
X54080Y-21132D01*
X54026Y-21132D01*
X53890Y-21188D01*
X53787Y-21292D01*
X53730Y-21427D01*
X53730Y-21573D01*
X53786Y-21709D01*
X53890Y-21812D01*
X54025Y-21869D01*
X54171Y-21869D01*
X54307Y-21813D01*
X54410Y-21709D01*
X54445Y-21627D01*
X55342Y-21627D01*
X55448Y-21606D01*
X55539Y-21545D01*
X55799Y-21286D01*
X55859Y-21195D01*
X55881Y-21088D01*
X55881Y-21055D01*
X55987Y-20984D01*
X56101Y-20813D01*
X56216Y-20984D01*
X56392Y-21102D01*
X56601Y-21144D01*
X56810Y-21102D01*
X56987Y-20984D01*
X57101Y-20813D01*
X57216Y-20984D01*
X57392Y-21102D01*
X57601Y-21144D01*
X57810Y-21102D01*
X57987Y-20984D01*
X58101Y-20813D01*
X58216Y-20984D01*
X58392Y-21102D01*
X58601Y-21144D01*
X58810Y-21102D01*
X58840Y-21082D01*
X60050Y-22291D01*
X60050Y-31438D01*
X60030Y-31419D01*
X59895Y-31362D01*
X59749Y-31362D01*
X59613Y-31418D01*
X59510Y-31522D01*
X59495Y-31556D01*
X58201Y-31556D01*
X57492Y-30847D01*
X57401Y-30786D01*
X57295Y-30765D01*
X53551Y-30765D01*
X53551Y-21065D01*
X53551Y-20497D01*
X53551Y-20397D01*
X53551Y-19829D01*
X53467Y-19781D01*
X53439Y-19786D01*
X53251Y-19888D01*
X53116Y-20054D01*
X53056Y-20259D01*
X53056Y-20397D01*
X53551Y-20397D01*
X53551Y-20497D01*
X53056Y-20497D01*
X53056Y-20635D01*
X53116Y-20840D01*
X53251Y-21006D01*
X53439Y-21108D01*
X53467Y-21113D01*
X53551Y-21065D01*
X53551Y-30765D01*
X49887Y-30765D01*
X49887Y-27739D01*
X49825Y-27589D01*
X49711Y-27474D01*
X49561Y-27412D01*
X49399Y-27412D01*
X49318Y-27445D01*
X49318Y-20812D01*
X49228Y-20593D01*
X49061Y-20426D01*
X48842Y-20335D01*
X48606Y-20335D01*
X48387Y-20425D01*
X48220Y-20592D01*
X48129Y-20811D01*
X48129Y-21047D01*
X48219Y-21266D01*
X48386Y-21433D01*
X48605Y-21524D01*
X48841Y-21524D01*
X49060Y-21434D01*
X49227Y-21267D01*
X49318Y-21048D01*
X49318Y-20812D01*
X49318Y-27445D01*
X49249Y-27474D01*
X49212Y-27510D01*
X48197Y-27510D01*
X48161Y-27474D01*
X48011Y-27412D01*
X47849Y-27412D01*
X47699Y-27474D01*
X47584Y-27588D01*
X47522Y-27738D01*
X47522Y-27900D01*
X47584Y-28050D01*
X47698Y-28165D01*
X47848Y-28227D01*
X48010Y-28227D01*
X48160Y-28165D01*
X48197Y-28129D01*
X49212Y-28129D01*
X49248Y-28165D01*
X49398Y-28227D01*
X49560Y-28227D01*
X49710Y-28165D01*
X49825Y-28051D01*
X49887Y-27901D01*
X49887Y-27739D01*
X49887Y-30765D01*
X47355Y-30765D01*
X47355Y-20038D01*
X47344Y-19802D01*
X47274Y-19631D01*
X47174Y-19598D01*
X46826Y-19946D01*
X47174Y-20293D01*
X47274Y-20260D01*
X47355Y-20038D01*
X47355Y-30765D01*
X47350Y-30765D01*
X47350Y-21796D01*
X47260Y-21577D01*
X47103Y-21420D01*
X47103Y-20364D01*
X46756Y-20016D01*
X46685Y-20087D01*
X46685Y-19946D01*
X46337Y-19598D01*
X46237Y-19631D01*
X46156Y-19853D01*
X46167Y-20089D01*
X46237Y-20260D01*
X46337Y-20293D01*
X46685Y-19946D01*
X46685Y-20087D01*
X46408Y-20364D01*
X46441Y-20464D01*
X46663Y-20545D01*
X46899Y-20534D01*
X47070Y-20464D01*
X47103Y-20364D01*
X47103Y-21420D01*
X47093Y-21410D01*
X46874Y-21319D01*
X46638Y-21319D01*
X46419Y-21409D01*
X46252Y-21576D01*
X46161Y-21795D01*
X46161Y-22031D01*
X46251Y-22250D01*
X46418Y-22417D01*
X46637Y-22508D01*
X46873Y-22508D01*
X47092Y-22418D01*
X47259Y-22251D01*
X47350Y-22032D01*
X47350Y-21796D01*
X47350Y-30765D01*
X45830Y-30765D01*
X45830Y-29624D01*
X45768Y-29474D01*
X45654Y-29359D01*
X45504Y-29297D01*
X45342Y-29297D01*
X45192Y-29359D01*
X45155Y-29395D01*
X44173Y-29395D01*
X44111Y-29333D01*
X44111Y-23668D01*
X44131Y-23668D01*
X44281Y-23606D01*
X44396Y-23492D01*
X44458Y-23342D01*
X44458Y-23180D01*
X44396Y-23030D01*
X44282Y-22915D01*
X44132Y-22853D01*
X43970Y-22853D01*
X43820Y-22915D01*
X43705Y-23029D01*
X43643Y-23179D01*
X43643Y-23231D01*
X43583Y-23291D01*
X43516Y-23391D01*
X43492Y-23510D01*
X43492Y-29462D01*
X43516Y-29580D01*
X43583Y-29680D01*
X43826Y-29923D01*
X43826Y-29923D01*
X43926Y-29990D01*
X43926Y-29990D01*
X44021Y-30009D01*
X44044Y-30014D01*
X44044Y-30014D01*
X44045Y-30014D01*
X45155Y-30014D01*
X45191Y-30050D01*
X45341Y-30112D01*
X45503Y-30112D01*
X45653Y-30050D01*
X45768Y-29936D01*
X45830Y-29786D01*
X45830Y-29624D01*
X45830Y-30765D01*
X43268Y-30765D01*
X43268Y-30243D01*
X43212Y-30107D01*
X43169Y-30064D01*
X43169Y-29571D01*
X43201Y-29538D01*
X43258Y-29403D01*
X43258Y-29257D01*
X43202Y-29121D01*
X43098Y-29018D01*
X42963Y-28961D01*
X42817Y-28961D01*
X42681Y-29017D01*
X42578Y-29121D01*
X42521Y-29256D01*
X42521Y-29402D01*
X42577Y-29538D01*
X42610Y-29571D01*
X42610Y-30084D01*
X42588Y-30107D01*
X42531Y-30242D01*
X42531Y-30388D01*
X42587Y-30524D01*
X42691Y-30627D01*
X42826Y-30684D01*
X42972Y-30684D01*
X43108Y-30628D01*
X43211Y-30524D01*
X43268Y-30389D01*
X43268Y-30243D01*
X43268Y-30765D01*
X42735Y-30765D01*
X42628Y-30786D01*
X42537Y-30847D01*
X42096Y-31288D01*
X42035Y-31379D01*
X42014Y-31486D01*
X42014Y-31888D01*
X41975Y-31928D01*
X41918Y-32063D01*
X41918Y-32209D01*
X41974Y-32345D01*
X42078Y-32448D01*
X42213Y-32505D01*
X42359Y-32505D01*
X42495Y-32449D01*
X42598Y-32345D01*
X42655Y-32210D01*
X42655Y-32068D01*
X42722Y-32068D01*
X42858Y-32012D01*
X42961Y-31908D01*
X43018Y-31773D01*
X43018Y-31727D01*
X43315Y-31429D01*
X43684Y-31429D01*
X43681Y-31436D01*
X43681Y-31582D01*
X43737Y-31718D01*
X43841Y-31821D01*
X43976Y-31878D01*
X44122Y-31878D01*
X44258Y-31822D01*
X44361Y-31718D01*
X44382Y-31669D01*
X55919Y-31669D01*
X56802Y-32552D01*
X56802Y-32552D01*
X56893Y-32613D01*
X56893Y-32613D01*
X56978Y-32630D01*
X56999Y-32634D01*
X56999Y-32634D01*
X57000Y-32634D01*
X57585Y-32634D01*
X57426Y-32793D01*
X57365Y-32884D01*
X57344Y-32991D01*
X57344Y-33736D01*
X56841Y-34239D01*
X56825Y-34235D01*
X56614Y-34277D01*
X56436Y-34396D01*
X56325Y-34563D01*
X56213Y-34396D01*
X56035Y-34277D01*
X55825Y-34235D01*
X55614Y-34277D01*
X55436Y-34396D01*
X55325Y-34563D01*
X55213Y-34396D01*
X55035Y-34277D01*
X54825Y-34235D01*
X54614Y-34277D01*
X54436Y-34396D01*
X54325Y-34563D01*
X54213Y-34396D01*
X54035Y-34277D01*
X53825Y-34235D01*
X53614Y-34277D01*
X53436Y-34396D01*
X53325Y-34563D01*
X53213Y-34396D01*
X53035Y-34277D01*
X52825Y-34235D01*
X52614Y-34277D01*
X52436Y-34396D01*
X52325Y-34563D01*
X52213Y-34396D01*
X52035Y-34277D01*
X51825Y-34235D01*
X51614Y-34277D01*
X51436Y-34396D01*
X51325Y-34563D01*
X51213Y-34396D01*
X51035Y-34277D01*
X50825Y-34235D01*
X50614Y-34277D01*
X50436Y-34396D01*
X50325Y-34563D01*
X50213Y-34396D01*
X50035Y-34277D01*
X49825Y-34235D01*
X49614Y-34277D01*
X49436Y-34396D01*
X49325Y-34563D01*
X49213Y-34396D01*
X49035Y-34277D01*
X48825Y-34235D01*
X48614Y-34277D01*
X48436Y-34396D01*
X48325Y-34563D01*
X48213Y-34396D01*
X48134Y-34343D01*
X48134Y-34207D01*
X48110Y-34088D01*
X48110Y-34088D01*
X48043Y-33988D01*
X48043Y-33988D01*
X47540Y-33485D01*
X47440Y-33418D01*
X47322Y-33394D01*
X44616Y-33394D01*
X44615Y-33394D01*
X44592Y-33399D01*
X44497Y-33418D01*
X44397Y-33485D01*
X44397Y-33485D01*
X43851Y-34031D01*
X43784Y-34131D01*
X43760Y-34250D01*
X43760Y-34304D01*
X43587Y-34304D01*
X43495Y-34342D01*
X43425Y-34413D01*
X43387Y-34505D01*
X43387Y-34545D01*
X40642Y-34545D01*
X40541Y-34444D01*
X40391Y-34382D01*
X40320Y-34382D01*
X40475Y-34278D01*
X40594Y-34100D01*
X40636Y-33890D01*
X40594Y-33679D01*
X40475Y-33501D01*
X40309Y-33390D01*
X40475Y-33278D01*
X40594Y-33100D01*
X40636Y-32890D01*
X40594Y-32679D01*
X40475Y-32501D01*
X40309Y-32390D01*
X40475Y-32278D01*
X40594Y-32100D01*
X40636Y-31890D01*
X40636Y-29890D01*
X40594Y-29679D01*
X40475Y-29501D01*
X40383Y-29440D01*
X40422Y-29440D01*
X40514Y-29402D01*
X40584Y-29331D01*
X40622Y-29239D01*
X40623Y-29140D01*
X40623Y-28540D01*
X40585Y-28448D01*
X40514Y-28378D01*
X40422Y-28340D01*
X40323Y-28339D01*
X39887Y-28339D01*
X39887Y-24622D01*
X39887Y-24577D01*
X39800Y-24142D01*
X39554Y-23772D01*
X39184Y-23525D01*
X38749Y-23439D01*
X38313Y-23525D01*
X37943Y-23772D01*
X37697Y-24142D01*
X37610Y-24577D01*
X37610Y-24622D01*
X37697Y-25057D01*
X37943Y-25427D01*
X38313Y-25674D01*
X38749Y-25760D01*
X39184Y-25674D01*
X39554Y-25427D01*
X39800Y-25057D01*
X39887Y-24622D01*
X39887Y-28339D01*
X39457Y-28339D01*
X39365Y-28377D01*
X39295Y-28448D01*
X39257Y-28540D01*
X39256Y-28639D01*
X39256Y-29239D01*
X39294Y-29331D01*
X39365Y-29401D01*
X39457Y-29439D01*
X39496Y-29439D01*
X39404Y-29501D01*
X39285Y-29679D01*
X39243Y-29890D01*
X39285Y-30100D01*
X39404Y-30278D01*
X39576Y-30393D01*
X39550Y-30401D01*
X39382Y-30536D01*
X39279Y-30725D01*
X39273Y-30754D01*
X39322Y-30840D01*
X39890Y-30840D01*
X39890Y-30832D01*
X39990Y-30832D01*
X39990Y-30840D01*
X40557Y-30840D01*
X40606Y-30754D01*
X40600Y-30725D01*
X40497Y-30536D01*
X40329Y-30401D01*
X40303Y-30393D01*
X40475Y-30278D01*
X40594Y-30100D01*
X40636Y-29890D01*
X40636Y-31890D01*
X40594Y-31679D01*
X40475Y-31501D01*
X40303Y-31386D01*
X40329Y-31378D01*
X40497Y-31243D01*
X40600Y-31054D01*
X40606Y-31025D01*
X40557Y-30940D01*
X39990Y-30940D01*
X39990Y-30947D01*
X39890Y-30947D01*
X39890Y-30940D01*
X39322Y-30940D01*
X39273Y-31025D01*
X39279Y-31054D01*
X39382Y-31243D01*
X39550Y-31378D01*
X39576Y-31386D01*
X39404Y-31501D01*
X39285Y-31679D01*
X39243Y-31890D01*
X39285Y-32100D01*
X39404Y-32278D01*
X39570Y-32390D01*
X39404Y-32501D01*
X39285Y-32679D01*
X39243Y-32890D01*
X39285Y-33100D01*
X39404Y-33278D01*
X39570Y-33390D01*
X39404Y-33501D01*
X39285Y-33679D01*
X39243Y-33890D01*
X39285Y-34100D01*
X39404Y-34278D01*
X39583Y-34398D01*
X39793Y-34440D01*
X40086Y-34440D01*
X40093Y-34438D01*
X40079Y-34444D01*
X39964Y-34558D01*
X39902Y-34708D01*
X39902Y-34870D01*
X39964Y-35020D01*
X40078Y-35135D01*
X40228Y-35197D01*
X40390Y-35197D01*
X40471Y-35164D01*
X43386Y-35164D01*
X43386Y-35204D01*
X43424Y-35296D01*
X43495Y-35366D01*
X43587Y-35404D01*
X43626Y-35404D01*
X43534Y-35466D01*
X43415Y-35644D01*
X43373Y-35855D01*
X43415Y-36065D01*
X43534Y-36243D01*
X43713Y-36363D01*
X43923Y-36405D01*
X44216Y-36405D01*
X44426Y-36363D01*
X44605Y-36243D01*
X44724Y-36065D01*
X44766Y-35855D01*
X44724Y-35644D01*
X44605Y-35466D01*
X44513Y-35405D01*
X44552Y-35405D01*
X44640Y-35368D01*
X44779Y-35426D01*
X44941Y-35426D01*
X45091Y-35364D01*
X45157Y-35299D01*
X46377Y-35299D01*
X46436Y-35387D01*
X46614Y-35506D01*
X46825Y-35548D01*
X47035Y-35506D01*
X47213Y-35387D01*
X47325Y-35220D01*
X47436Y-35387D01*
X47590Y-35490D01*
X47436Y-35592D01*
X47316Y-35771D01*
X47275Y-35981D01*
X47275Y-36194D01*
X47316Y-36404D01*
X47436Y-36583D01*
X47604Y-36695D01*
X41110Y-36695D01*
X38605Y-34190D01*
X38605Y-26740D01*
X38605Y-26317D01*
X38447Y-25943D01*
X38157Y-25658D01*
X37798Y-25510D01*
X37637Y-25552D01*
X37637Y-26479D01*
X38563Y-26479D01*
X38605Y-26317D01*
X38605Y-26740D01*
X38563Y-26579D01*
X37637Y-26579D01*
X37637Y-27505D01*
X37798Y-27547D01*
X38157Y-27399D01*
X38447Y-27114D01*
X38605Y-26740D01*
X38605Y-34190D01*
X37537Y-33121D01*
X37537Y-27505D01*
X37537Y-26579D01*
X37537Y-26479D01*
X37537Y-25552D01*
X37405Y-25518D01*
X37405Y-24811D01*
X37405Y-24388D01*
X37247Y-24014D01*
X36957Y-23729D01*
X36598Y-23581D01*
X36437Y-23623D01*
X36437Y-24550D01*
X37363Y-24550D01*
X37405Y-24388D01*
X37405Y-24811D01*
X37363Y-24650D01*
X36437Y-24650D01*
X36437Y-25576D01*
X36598Y-25618D01*
X36957Y-25470D01*
X37247Y-25185D01*
X37405Y-24811D01*
X37405Y-25518D01*
X37375Y-25510D01*
X37016Y-25658D01*
X36726Y-25943D01*
X36568Y-26317D01*
X36610Y-26479D01*
X37537Y-26479D01*
X37537Y-26579D01*
X36610Y-26579D01*
X36568Y-26740D01*
X36726Y-27114D01*
X37016Y-27399D01*
X37375Y-27547D01*
X37537Y-27505D01*
X37537Y-33121D01*
X36609Y-32194D01*
X36669Y-32105D01*
X36711Y-31895D01*
X36711Y-29895D01*
X36669Y-29684D01*
X36550Y-29506D01*
X36458Y-29445D01*
X36497Y-29445D01*
X36589Y-29407D01*
X36659Y-29336D01*
X36697Y-29244D01*
X36698Y-29145D01*
X36698Y-28545D01*
X36660Y-28453D01*
X36589Y-28383D01*
X36497Y-28345D01*
X36398Y-28344D01*
X36337Y-28344D01*
X36337Y-25576D01*
X36337Y-24650D01*
X36337Y-24550D01*
X36337Y-23623D01*
X36175Y-23581D01*
X35816Y-23729D01*
X35526Y-24014D01*
X35368Y-24388D01*
X35410Y-24550D01*
X36337Y-24550D01*
X36337Y-24650D01*
X35410Y-24650D01*
X35368Y-24811D01*
X35526Y-25185D01*
X35816Y-25470D01*
X36175Y-25618D01*
X36337Y-25576D01*
X36337Y-28344D01*
X35532Y-28344D01*
X35440Y-28382D01*
X35370Y-28453D01*
X35332Y-28545D01*
X35331Y-28644D01*
X35331Y-29244D01*
X35369Y-29336D01*
X35440Y-29406D01*
X35532Y-29444D01*
X35571Y-29444D01*
X35479Y-29506D01*
X35360Y-29684D01*
X35318Y-29895D01*
X35360Y-30105D01*
X35479Y-30283D01*
X35651Y-30398D01*
X35625Y-30406D01*
X35457Y-30541D01*
X35354Y-30730D01*
X35348Y-30759D01*
X35397Y-30845D01*
X35965Y-30845D01*
X35965Y-30837D01*
X36065Y-30837D01*
X36065Y-30845D01*
X36632Y-30845D01*
X36681Y-30759D01*
X36675Y-30730D01*
X36572Y-30541D01*
X36404Y-30406D01*
X36378Y-30398D01*
X36550Y-30283D01*
X36669Y-30105D01*
X36711Y-29895D01*
X36711Y-31895D01*
X36669Y-31684D01*
X36550Y-31506D01*
X36378Y-31391D01*
X36404Y-31383D01*
X36572Y-31248D01*
X36675Y-31059D01*
X36681Y-31030D01*
X36632Y-30945D01*
X36065Y-30945D01*
X36065Y-30952D01*
X35965Y-30952D01*
X35965Y-30945D01*
X35397Y-30945D01*
X35348Y-31030D01*
X35354Y-31059D01*
X35457Y-31248D01*
X35625Y-31383D01*
X35651Y-31391D01*
X35479Y-31506D01*
X35360Y-31684D01*
X35318Y-31895D01*
X35360Y-32105D01*
X35479Y-32283D01*
X35645Y-32395D01*
X35479Y-32506D01*
X35360Y-32684D01*
X35318Y-32895D01*
X35360Y-33105D01*
X35479Y-33283D01*
X35645Y-33395D01*
X35479Y-33506D01*
X35360Y-33684D01*
X35318Y-33895D01*
X35360Y-34105D01*
X35479Y-34283D01*
X35658Y-34403D01*
X35868Y-34445D01*
X36161Y-34445D01*
X36371Y-34403D01*
X36550Y-34283D01*
X36669Y-34105D01*
X36711Y-33895D01*
X36669Y-33684D01*
X36550Y-33506D01*
X36384Y-33395D01*
X36522Y-33302D01*
X38433Y-35214D01*
X38192Y-35119D01*
X37857Y-35125D01*
X37578Y-35241D01*
X37515Y-35366D01*
X38041Y-35892D01*
X38046Y-35886D01*
X38117Y-35957D01*
X38111Y-35963D01*
X38637Y-36488D01*
X38762Y-36425D01*
X38884Y-36114D01*
X38878Y-35779D01*
X38792Y-35572D01*
X40662Y-37442D01*
X40662Y-37442D01*
X40716Y-37478D01*
X40753Y-37503D01*
X40753Y-37503D01*
X40860Y-37524D01*
X44736Y-37524D01*
X44736Y-37617D01*
X44789Y-37745D01*
X44721Y-37813D01*
X44664Y-37948D01*
X44664Y-38094D01*
X44720Y-38230D01*
X44726Y-38236D01*
X44672Y-38365D01*
X44672Y-38511D01*
X44728Y-38647D01*
X44832Y-38750D01*
X44967Y-38807D01*
X45113Y-38807D01*
X45249Y-38751D01*
X45282Y-38718D01*
X45978Y-38718D01*
X46038Y-38777D01*
X46173Y-38834D01*
X46319Y-38834D01*
X46455Y-38778D01*
X46488Y-38745D01*
X46886Y-38745D01*
X46933Y-38765D01*
X47079Y-38765D01*
X47215Y-38709D01*
X47318Y-38605D01*
X47375Y-38470D01*
X47375Y-38324D01*
X47319Y-38188D01*
X47215Y-38085D01*
X47080Y-38028D01*
X46934Y-38028D01*
X46798Y-38084D01*
X46696Y-38186D01*
X46564Y-38186D01*
X46598Y-38104D01*
X46598Y-37958D01*
X46542Y-37824D01*
X51064Y-37824D01*
X54060Y-40820D01*
X54060Y-47508D01*
X53988Y-47581D01*
X53931Y-47716D01*
X53931Y-47862D01*
X53987Y-47998D01*
X54091Y-48101D01*
X54226Y-48158D01*
X54372Y-48158D01*
X54508Y-48102D01*
X54611Y-47998D01*
X54625Y-47965D01*
X54680Y-48019D01*
X54627Y-48145D01*
X54627Y-48291D01*
X54683Y-48427D01*
X54787Y-48530D01*
X54922Y-48587D01*
X54968Y-48587D01*
X55185Y-48803D01*
X55185Y-48803D01*
X55239Y-48839D01*
X55276Y-48864D01*
X55276Y-48864D01*
X55383Y-48885D01*
X56293Y-48885D01*
X56326Y-48917D01*
X56461Y-48974D01*
X56607Y-48974D01*
X56743Y-48918D01*
X56846Y-48814D01*
X56903Y-48679D01*
X56903Y-48533D01*
X56847Y-48397D01*
X56743Y-48294D01*
X56608Y-48237D01*
X56510Y-48237D01*
X56556Y-48127D01*
X56556Y-47981D01*
X56500Y-47845D01*
X56396Y-47742D01*
X56261Y-47685D01*
X56115Y-47685D01*
X55979Y-47741D01*
X55958Y-47762D01*
X55754Y-47762D01*
X55758Y-47753D01*
X55758Y-47607D01*
X55702Y-47471D01*
X55669Y-47438D01*
X55669Y-46923D01*
X55684Y-46937D01*
X55819Y-46994D01*
X55965Y-46994D01*
X56101Y-46938D01*
X56204Y-46834D01*
X56261Y-46699D01*
X56261Y-46553D01*
X56209Y-46428D01*
X57331Y-46428D01*
X57331Y-46546D01*
X57387Y-46682D01*
X57420Y-46715D01*
X57420Y-49060D01*
X57144Y-49336D01*
X52846Y-49336D01*
X52275Y-48765D01*
X52275Y-47194D01*
X52254Y-47087D01*
X52193Y-46996D01*
X52053Y-46856D01*
X51962Y-46795D01*
X51856Y-46774D01*
X50142Y-46774D01*
X50035Y-46795D01*
X49998Y-46820D01*
X49944Y-46856D01*
X49944Y-46856D01*
X49678Y-47122D01*
X47597Y-47122D01*
X47509Y-47063D01*
X47403Y-47042D01*
X44246Y-47042D01*
X44160Y-46956D01*
X44025Y-46899D01*
X43879Y-46899D01*
X43743Y-46955D01*
X43640Y-47059D01*
X43607Y-47136D01*
X43456Y-46984D01*
X43456Y-46939D01*
X43419Y-46850D01*
X44803Y-46850D01*
X44836Y-46882D01*
X44971Y-46939D01*
X45117Y-46939D01*
X45253Y-46883D01*
X45356Y-46779D01*
X45365Y-46758D01*
X45462Y-46799D01*
X45583Y-46799D01*
X45673Y-46888D01*
X45808Y-46945D01*
X45954Y-46945D01*
X46090Y-46889D01*
X46123Y-46856D01*
X46659Y-46856D01*
X46713Y-46909D01*
X46848Y-46966D01*
X46994Y-46966D01*
X47130Y-46910D01*
X47233Y-46806D01*
X47290Y-46671D01*
X47290Y-46525D01*
X47234Y-46389D01*
X47174Y-46329D01*
X52143Y-46329D01*
X52187Y-46436D01*
X52291Y-46539D01*
X52426Y-46596D01*
X52572Y-46596D01*
X52661Y-46559D01*
X52661Y-46863D01*
X52682Y-46969D01*
X52743Y-47060D01*
X52902Y-47220D01*
X52902Y-47265D01*
X52958Y-47401D01*
X53062Y-47504D01*
X53197Y-47561D01*
X53343Y-47561D01*
X53479Y-47505D01*
X53582Y-47401D01*
X53639Y-47266D01*
X53639Y-47264D01*
X53646Y-47261D01*
X53749Y-47157D01*
X53806Y-47022D01*
X53806Y-46876D01*
X53750Y-46740D01*
X53646Y-46637D01*
X53511Y-46580D01*
X53465Y-46580D01*
X53459Y-46575D01*
X53459Y-41960D01*
X53438Y-41853D01*
X53377Y-41762D01*
X53377Y-41762D01*
X51507Y-39892D01*
X51416Y-39831D01*
X51310Y-39810D01*
X43540Y-39810D01*
X43539Y-39810D01*
X43518Y-39814D01*
X43433Y-39831D01*
X43348Y-39888D01*
X43359Y-39862D01*
X43359Y-39810D01*
X43688Y-39481D01*
X43755Y-39381D01*
X43755Y-39381D01*
X43779Y-39263D01*
X43779Y-38427D01*
X43815Y-38391D01*
X43877Y-38241D01*
X43877Y-38079D01*
X43815Y-37929D01*
X43701Y-37814D01*
X43551Y-37752D01*
X43389Y-37752D01*
X43239Y-37814D01*
X43124Y-37928D01*
X43062Y-38078D01*
X43062Y-38240D01*
X43124Y-38390D01*
X43160Y-38427D01*
X43160Y-39134D01*
X42922Y-39373D01*
X42871Y-39373D01*
X42721Y-39435D01*
X42606Y-39549D01*
X42544Y-39699D01*
X42544Y-39861D01*
X42606Y-40011D01*
X42720Y-40126D01*
X42870Y-40188D01*
X43032Y-40188D01*
X43055Y-40179D01*
X42992Y-40242D01*
X42931Y-40333D01*
X42910Y-40440D01*
X42910Y-42280D01*
X42931Y-42386D01*
X42992Y-42477D01*
X43031Y-42517D01*
X43031Y-42562D01*
X43087Y-42698D01*
X43191Y-42801D01*
X43326Y-42858D01*
X43472Y-42858D01*
X43608Y-42802D01*
X43711Y-42698D01*
X43768Y-42563D01*
X43768Y-42417D01*
X43712Y-42281D01*
X43608Y-42178D01*
X43473Y-42121D01*
X43469Y-42121D01*
X43469Y-40555D01*
X43655Y-40369D01*
X44089Y-40369D01*
X43818Y-40639D01*
X43773Y-40639D01*
X43637Y-40695D01*
X43534Y-40799D01*
X43477Y-40934D01*
X43477Y-41080D01*
X43533Y-41216D01*
X43637Y-41319D01*
X43772Y-41376D01*
X43918Y-41376D01*
X44054Y-41320D01*
X44157Y-41216D01*
X44214Y-41081D01*
X44214Y-41035D01*
X44533Y-40715D01*
X51034Y-40715D01*
X52661Y-42342D01*
X52661Y-43887D01*
X52656Y-43883D01*
X52521Y-43826D01*
X52375Y-43826D01*
X52239Y-43882D01*
X52206Y-43915D01*
X51694Y-43915D01*
X51567Y-43862D01*
X51421Y-43862D01*
X51285Y-43918D01*
X51182Y-44022D01*
X51125Y-44157D01*
X51125Y-44303D01*
X51169Y-44410D01*
X46994Y-44410D01*
X46992Y-44404D01*
X46888Y-44301D01*
X46753Y-44244D01*
X46607Y-44244D01*
X46471Y-44300D01*
X46368Y-44404D01*
X46330Y-44494D01*
X46197Y-44549D01*
X46094Y-44653D01*
X46037Y-44788D01*
X46037Y-44934D01*
X46093Y-45070D01*
X46176Y-45152D01*
X46005Y-45323D01*
X45988Y-45306D01*
X45853Y-45249D01*
X45807Y-45249D01*
X44620Y-44063D01*
X44529Y-44002D01*
X44423Y-43981D01*
X43123Y-43981D01*
X43090Y-43949D01*
X42955Y-43892D01*
X42809Y-43892D01*
X42673Y-43948D01*
X42570Y-44052D01*
X42513Y-44187D01*
X42513Y-44333D01*
X42569Y-44469D01*
X42673Y-44572D01*
X42808Y-44629D01*
X42954Y-44629D01*
X43090Y-44573D01*
X43123Y-44540D01*
X44307Y-44540D01*
X45411Y-45645D01*
X45411Y-45690D01*
X45467Y-45826D01*
X45571Y-45929D01*
X45602Y-45942D01*
X45602Y-46062D01*
X45463Y-46062D01*
X45401Y-46088D01*
X43429Y-46088D01*
X43429Y-45980D01*
X43373Y-45844D01*
X43269Y-45741D01*
X43134Y-45684D01*
X43088Y-45684D01*
X43079Y-45676D01*
X43136Y-45541D01*
X43136Y-45395D01*
X43080Y-45259D01*
X42976Y-45156D01*
X42841Y-45099D01*
X42695Y-45099D01*
X42559Y-45155D01*
X42456Y-45259D01*
X42399Y-45394D01*
X42399Y-45540D01*
X42455Y-45676D01*
X42488Y-45709D01*
X42488Y-45760D01*
X42509Y-45866D01*
X42570Y-45957D01*
X42692Y-46080D01*
X42692Y-46088D01*
X41012Y-46088D01*
X40905Y-46109D01*
X40868Y-46134D01*
X40814Y-46170D01*
X40814Y-46170D01*
X39965Y-47019D01*
X39965Y-41948D01*
X39909Y-41812D01*
X39805Y-41709D01*
X39670Y-41652D01*
X39524Y-41652D01*
X39388Y-41708D01*
X39356Y-41740D01*
X38884Y-41740D01*
X38648Y-41740D01*
X38681Y-41706D01*
X38637Y-41662D01*
X38762Y-41599D01*
X38884Y-41288D01*
X38878Y-40953D01*
X38762Y-40674D01*
X38637Y-40611D01*
X38566Y-40682D01*
X38566Y-40540D01*
X38503Y-40415D01*
X38192Y-40293D01*
X37857Y-40299D01*
X37578Y-40415D01*
X37515Y-40540D01*
X38041Y-41066D01*
X38566Y-40540D01*
X38566Y-40682D01*
X38111Y-41137D01*
X38117Y-41142D01*
X38046Y-41213D01*
X38041Y-41207D01*
X38035Y-41213D01*
X37964Y-41142D01*
X37970Y-41137D01*
X37444Y-40611D01*
X37319Y-40674D01*
X37197Y-40985D01*
X37198Y-41053D01*
X37179Y-41034D01*
X37179Y-39504D01*
X37380Y-39303D01*
X38458Y-39303D01*
X38478Y-39322D01*
X38613Y-39379D01*
X38759Y-39379D01*
X38895Y-39323D01*
X38998Y-39219D01*
X39055Y-39084D01*
X39055Y-38938D01*
X38999Y-38802D01*
X38895Y-38699D01*
X38760Y-38642D01*
X38614Y-38642D01*
X38478Y-38698D01*
X38432Y-38744D01*
X37265Y-38744D01*
X37158Y-38765D01*
X37067Y-38826D01*
X36744Y-39149D01*
X36744Y-38770D01*
X37138Y-38376D01*
X38382Y-38376D01*
X38415Y-38408D01*
X38550Y-38465D01*
X38696Y-38465D01*
X38832Y-38409D01*
X38935Y-38305D01*
X38992Y-38170D01*
X38992Y-38024D01*
X38936Y-37888D01*
X38832Y-37785D01*
X38697Y-37728D01*
X38566Y-37728D01*
X38566Y-36559D01*
X38041Y-36033D01*
X37970Y-36104D01*
X37970Y-35963D01*
X37444Y-35437D01*
X37319Y-35500D01*
X37197Y-35811D01*
X37203Y-36146D01*
X37319Y-36425D01*
X37444Y-36488D01*
X37970Y-35963D01*
X37970Y-36104D01*
X37515Y-36559D01*
X37578Y-36684D01*
X37889Y-36806D01*
X38224Y-36800D01*
X38503Y-36684D01*
X38566Y-36559D01*
X38566Y-37728D01*
X38551Y-37728D01*
X38415Y-37784D01*
X38382Y-37817D01*
X37023Y-37817D01*
X36916Y-37838D01*
X36825Y-37899D01*
X36267Y-38457D01*
X36206Y-38548D01*
X36185Y-38655D01*
X36185Y-40888D01*
X36139Y-40777D01*
X36025Y-40662D01*
X35875Y-40600D01*
X35713Y-40600D01*
X35563Y-40662D01*
X35448Y-40776D01*
X35386Y-40926D01*
X35386Y-41088D01*
X35448Y-41238D01*
X35562Y-41353D01*
X35712Y-41415D01*
X35764Y-41415D01*
X36109Y-41761D01*
X36109Y-44637D01*
X36068Y-44637D01*
X35918Y-44699D01*
X35803Y-44813D01*
X35741Y-44963D01*
X35741Y-45125D01*
X35803Y-45275D01*
X35917Y-45390D01*
X36067Y-45452D01*
X36229Y-45452D01*
X36379Y-45390D01*
X36383Y-45386D01*
X36492Y-45495D01*
X36649Y-45560D01*
X36819Y-45561D01*
X36976Y-45496D01*
X37096Y-45376D01*
X37161Y-45219D01*
X37162Y-45049D01*
X37097Y-44892D01*
X36977Y-44772D01*
X36820Y-44707D01*
X36728Y-44706D01*
X36728Y-41818D01*
X37452Y-42542D01*
X37543Y-42603D01*
X37650Y-42624D01*
X39088Y-42624D01*
X39121Y-42638D01*
X39267Y-42638D01*
X39403Y-42582D01*
X39506Y-42478D01*
X39544Y-42389D01*
X39669Y-42389D01*
X39805Y-42333D01*
X39908Y-42229D01*
X39965Y-42094D01*
X39965Y-41948D01*
X39965Y-47019D01*
X38602Y-48382D01*
X38541Y-48473D01*
X38520Y-48580D01*
X38520Y-49654D01*
X38511Y-49657D01*
X38408Y-49761D01*
X38351Y-49896D01*
X38351Y-50042D01*
X38407Y-50178D01*
X38511Y-50281D01*
X38646Y-50338D01*
X38792Y-50338D01*
X38928Y-50282D01*
X39031Y-50178D01*
X39033Y-50174D01*
X39079Y-50204D01*
X39186Y-50225D01*
X40580Y-50225D01*
X40580Y-50821D01*
X40601Y-50927D01*
X40662Y-51018D01*
X41270Y-51626D01*
X41361Y-51687D01*
X41468Y-51708D01*
X42742Y-51708D01*
X42993Y-51960D01*
X42993Y-52005D01*
X43049Y-52141D01*
X43153Y-52244D01*
X43288Y-52301D01*
X43434Y-52301D01*
X43570Y-52245D01*
X43590Y-52224D01*
X43590Y-52319D01*
X43454Y-52455D01*
X43399Y-52587D01*
X43345Y-52456D01*
X43198Y-52308D01*
X43006Y-52228D01*
X42757Y-51980D01*
X42666Y-51919D01*
X42560Y-51898D01*
X39720Y-51898D01*
X39722Y-51894D01*
X39722Y-51748D01*
X39666Y-51612D01*
X39633Y-51579D01*
X39633Y-51192D01*
X39659Y-51131D01*
X39659Y-50985D01*
X39603Y-50849D01*
X39499Y-50746D01*
X39364Y-50689D01*
X39218Y-50689D01*
X39082Y-50745D01*
X38979Y-50849D01*
X38922Y-50984D01*
X38922Y-51130D01*
X38978Y-51266D01*
X39074Y-51362D01*
X39074Y-51579D01*
X39042Y-51612D01*
X38985Y-51747D01*
X38985Y-51893D01*
X38987Y-51898D01*
X38230Y-51898D01*
X38169Y-51838D01*
X38034Y-51781D01*
X37888Y-51781D01*
X37752Y-51837D01*
X37649Y-51941D01*
X37592Y-52076D01*
X37592Y-52222D01*
X37648Y-52358D01*
X37752Y-52461D01*
X37887Y-52518D01*
X38033Y-52518D01*
X38169Y-52462D01*
X38173Y-52457D01*
X41453Y-52457D01*
X41374Y-52648D01*
X41374Y-52858D01*
X41454Y-53051D01*
X41601Y-53199D01*
X41794Y-53279D01*
X42004Y-53279D01*
X42197Y-53199D01*
X42345Y-53052D01*
X42400Y-52920D01*
X42454Y-53051D01*
X42601Y-53199D01*
X42794Y-53279D01*
X43004Y-53279D01*
X43197Y-53199D01*
X43345Y-53052D01*
X43400Y-52920D01*
X43454Y-53051D01*
X43601Y-53199D01*
X43794Y-53279D01*
X44004Y-53279D01*
X44197Y-53199D01*
X44345Y-53052D01*
X44400Y-52920D01*
X44454Y-53051D01*
X44601Y-53199D01*
X44794Y-53279D01*
X45004Y-53279D01*
X45197Y-53199D01*
X45345Y-53052D01*
X45425Y-52858D01*
X45425Y-52649D01*
X45345Y-52456D01*
X45198Y-52308D01*
X45005Y-52228D01*
X44795Y-52228D01*
X44602Y-52308D01*
X44454Y-52455D01*
X44399Y-52587D01*
X44345Y-52456D01*
X44209Y-52319D01*
X44209Y-51606D01*
X44288Y-51527D01*
X44350Y-51377D01*
X44350Y-51241D01*
X45033Y-51925D01*
X45033Y-51970D01*
X45089Y-52106D01*
X45193Y-52209D01*
X45328Y-52266D01*
X45474Y-52266D01*
X45610Y-52210D01*
X45713Y-52106D01*
X45770Y-51971D01*
X45770Y-51825D01*
X45714Y-51689D01*
X45610Y-51586D01*
X45475Y-51529D01*
X45429Y-51529D01*
X44579Y-50679D01*
X44864Y-50394D01*
X44864Y-50394D01*
X44864Y-50394D01*
X44925Y-50303D01*
X44925Y-50303D01*
X44933Y-50264D01*
X44974Y-50282D01*
X45120Y-50282D01*
X45256Y-50226D01*
X45359Y-50122D01*
X45416Y-49987D01*
X45416Y-49841D01*
X45360Y-49705D01*
X45327Y-49672D01*
X45327Y-48787D01*
X45677Y-48438D01*
X45722Y-48438D01*
X45858Y-48382D01*
X45961Y-48278D01*
X46018Y-48143D01*
X46018Y-47997D01*
X45989Y-47928D01*
X46827Y-47928D01*
X46827Y-48033D01*
X46883Y-48169D01*
X46907Y-48193D01*
X46907Y-48295D01*
X46875Y-48328D01*
X46818Y-48463D01*
X46818Y-48609D01*
X46874Y-48745D01*
X46978Y-48848D01*
X47113Y-48905D01*
X47259Y-48905D01*
X47395Y-48849D01*
X47498Y-48745D01*
X47555Y-48610D01*
X47555Y-48464D01*
X47499Y-48328D01*
X47466Y-48295D01*
X47466Y-48211D01*
X47507Y-48169D01*
X47564Y-48034D01*
X47564Y-47928D01*
X49969Y-47928D01*
X51013Y-48972D01*
X50964Y-49020D01*
X50902Y-49170D01*
X50902Y-49332D01*
X50964Y-49482D01*
X51078Y-49597D01*
X51228Y-49659D01*
X51280Y-49659D01*
X51420Y-49800D01*
X51420Y-50695D01*
X51444Y-50813D01*
X51511Y-50913D01*
X51548Y-50951D01*
X51548Y-51680D01*
X51078Y-51680D01*
X51078Y-50197D01*
X51022Y-50061D01*
X50918Y-49958D01*
X50783Y-49901D01*
X50737Y-49901D01*
X50599Y-49764D01*
X50508Y-49703D01*
X50402Y-49682D01*
X50048Y-49682D01*
X49950Y-49584D01*
X49815Y-49527D01*
X49669Y-49527D01*
X49533Y-49583D01*
X49430Y-49687D01*
X49373Y-49822D01*
X49373Y-49968D01*
X49429Y-50104D01*
X49533Y-50207D01*
X49668Y-50264D01*
X49814Y-50264D01*
X49869Y-50241D01*
X50286Y-50241D01*
X50341Y-50297D01*
X50341Y-50342D01*
X50397Y-50478D01*
X50501Y-50581D01*
X50636Y-50638D01*
X50782Y-50638D01*
X50918Y-50582D01*
X51021Y-50478D01*
X51078Y-50343D01*
X51078Y-50197D01*
X51078Y-51680D01*
X49782Y-51680D01*
X49663Y-51704D01*
X49563Y-51771D01*
X48371Y-52963D01*
X48304Y-53063D01*
X48280Y-53182D01*
X48280Y-54593D01*
X48177Y-54490D01*
X48135Y-54389D01*
X48021Y-54274D01*
X47871Y-54212D01*
X47709Y-54212D01*
X47559Y-54274D01*
X47444Y-54388D01*
X47382Y-54538D01*
X47382Y-54700D01*
X47444Y-54850D01*
X47558Y-54965D01*
X47708Y-55027D01*
X47840Y-55027D01*
X48182Y-55369D01*
X48182Y-55420D01*
X48244Y-55570D01*
X48358Y-55685D01*
X48508Y-55747D01*
X48670Y-55747D01*
X48820Y-55685D01*
X48857Y-55649D01*
X49642Y-55649D01*
X49648Y-55655D01*
X49798Y-55717D01*
X49960Y-55717D01*
X50110Y-55655D01*
X50225Y-55541D01*
X50287Y-55391D01*
X50287Y-55229D01*
X50225Y-55079D01*
X50111Y-54964D01*
X49961Y-54902D01*
X49799Y-54902D01*
X49649Y-54964D01*
X49582Y-55030D01*
X48899Y-55030D01*
X48899Y-53310D01*
X49910Y-52299D01*
X51858Y-52299D01*
X54356Y-52299D01*
X54356Y-53894D01*
X54320Y-53930D01*
X54258Y-54080D01*
X54258Y-54242D01*
X54320Y-54392D01*
X54434Y-54507D01*
X54584Y-54569D01*
X54746Y-54569D01*
X54896Y-54507D01*
X55011Y-54393D01*
X55073Y-54243D01*
X55073Y-54081D01*
X55011Y-53931D01*
X54975Y-53894D01*
X54975Y-52375D01*
X55070Y-52335D01*
X55185Y-52221D01*
X55247Y-52071D01*
X55247Y-51909D01*
X55185Y-51759D01*
X55071Y-51644D01*
X54921Y-51582D01*
X54759Y-51582D01*
X54609Y-51644D01*
X54572Y-51680D01*
X52167Y-51680D01*
X52167Y-50823D01*
X52143Y-50704D01*
X52143Y-50704D01*
X52076Y-50604D01*
X52039Y-50566D01*
X52039Y-49998D01*
X52148Y-50107D01*
X52148Y-50107D01*
X52202Y-50143D01*
X52239Y-50168D01*
X52239Y-50168D01*
X52346Y-50189D01*
X57555Y-50189D01*
X57555Y-50225D01*
X57611Y-50361D01*
X57644Y-50394D01*
X57644Y-52764D01*
X57665Y-52870D01*
X57726Y-52961D01*
X58806Y-54042D01*
X58806Y-54087D01*
X58862Y-54223D01*
X58966Y-54326D01*
X59101Y-54383D01*
X59247Y-54383D01*
X59383Y-54327D01*
X59486Y-54223D01*
X59505Y-54179D01*
X59571Y-54179D01*
X59707Y-54123D01*
X59810Y-54019D01*
X59867Y-53884D01*
X59867Y-53738D01*
X59811Y-53602D01*
X59707Y-53499D01*
X59572Y-53442D01*
X59426Y-53442D01*
X59318Y-53487D01*
X58437Y-52606D01*
X58437Y-50758D01*
X58469Y-50725D01*
X58526Y-50590D01*
X58526Y-50528D01*
X59071Y-51073D01*
X59071Y-51073D01*
X59162Y-51134D01*
X59162Y-51134D01*
X59247Y-51151D01*
X59268Y-51155D01*
X59268Y-51155D01*
X59269Y-51155D01*
X60857Y-51155D01*
X60857Y-51196D01*
X60893Y-51282D01*
X60871Y-51335D01*
X60769Y-51377D01*
X60666Y-51481D01*
X60609Y-51616D01*
X60609Y-51762D01*
X60665Y-51898D01*
X60707Y-51940D01*
X60633Y-52015D01*
X60576Y-52150D01*
X60576Y-52296D01*
X60632Y-52432D01*
X60736Y-52535D01*
X60871Y-52592D01*
X61017Y-52592D01*
X61153Y-52536D01*
X61213Y-52476D01*
X62541Y-52476D01*
X62526Y-52510D01*
X62526Y-52558D01*
X62525Y-52558D01*
X62422Y-52662D01*
X62365Y-52797D01*
X62365Y-52943D01*
X62421Y-53079D01*
X62525Y-53182D01*
X62660Y-53239D01*
X62806Y-53239D01*
X62942Y-53183D01*
X62975Y-53150D01*
X65201Y-53150D01*
X65220Y-53168D01*
X65355Y-53225D01*
X65501Y-53225D01*
X65637Y-53169D01*
X65740Y-53065D01*
X65756Y-53027D01*
X65787Y-53057D01*
X65787Y-53057D01*
X65878Y-53118D01*
X65878Y-53118D01*
X65963Y-53135D01*
X65984Y-53139D01*
X65984Y-53139D01*
X65985Y-53139D01*
X69913Y-53139D01*
X69946Y-53171D01*
X70081Y-53228D01*
X70104Y-53228D01*
X70015Y-53316D01*
X69970Y-53316D01*
X69834Y-53372D01*
X69731Y-53476D01*
X69674Y-53611D01*
X69674Y-53757D01*
X69730Y-53893D01*
X69834Y-53996D01*
X69969Y-54053D01*
X70115Y-54053D01*
X70214Y-54012D01*
X70232Y-54029D01*
X70367Y-54086D01*
X70513Y-54086D01*
X70649Y-54030D01*
X70752Y-53926D01*
X70809Y-53791D01*
X70809Y-53738D01*
X71882Y-52664D01*
X71882Y-52664D01*
X71882Y-52664D01*
X71943Y-52573D01*
X71944Y-52568D01*
X72063Y-52618D01*
X72299Y-52618D01*
X72518Y-52528D01*
X72685Y-52361D01*
X72776Y-52142D01*
X72776Y-51906D01*
X72686Y-51687D01*
X72519Y-51520D01*
X72300Y-51429D01*
X72064Y-51429D01*
X71964Y-51470D01*
X71964Y-50978D01*
X71976Y-50978D01*
X72112Y-50922D01*
X72215Y-50818D01*
X72272Y-50683D01*
X72272Y-50650D01*
X72272Y-50650D01*
X72330Y-50562D01*
X72330Y-50562D01*
X72347Y-50477D01*
X72351Y-50456D01*
X72351Y-50456D01*
X72351Y-50456D01*
X72351Y-49932D01*
X72421Y-50003D01*
X72571Y-50065D01*
X72577Y-50199D01*
X72647Y-50370D01*
X72747Y-50403D01*
X73095Y-50056D01*
X73089Y-50050D01*
X73160Y-49979D01*
X73166Y-49985D01*
X73171Y-49979D01*
X73242Y-50050D01*
X73236Y-50056D01*
X73584Y-50403D01*
X73684Y-50370D01*
X73765Y-50148D01*
X73754Y-49912D01*
X73684Y-49741D01*
X73584Y-49708D01*
X73626Y-49666D01*
X73848Y-49666D01*
X73848Y-50668D01*
X73872Y-50786D01*
X73939Y-50886D01*
X74407Y-51354D01*
X74288Y-51354D01*
X74152Y-51410D01*
X74073Y-51489D01*
X73934Y-51489D01*
X73924Y-51493D01*
X73918Y-51488D01*
X73783Y-51431D01*
X73765Y-51431D01*
X73637Y-51431D01*
X73513Y-51482D01*
X73513Y-50474D01*
X73166Y-50126D01*
X72818Y-50474D01*
X72851Y-50574D01*
X73073Y-50655D01*
X73309Y-50644D01*
X73480Y-50574D01*
X73513Y-50474D01*
X73513Y-51482D01*
X73501Y-51487D01*
X73398Y-51591D01*
X73341Y-51726D01*
X73341Y-51772D01*
X73302Y-51812D01*
X73241Y-51903D01*
X73220Y-52010D01*
X73220Y-52678D01*
X73188Y-52711D01*
X73131Y-52846D01*
X73131Y-52992D01*
X73187Y-53128D01*
X73291Y-53231D01*
X73426Y-53288D01*
X73572Y-53288D01*
X73708Y-53232D01*
X73723Y-53217D01*
X73772Y-53238D01*
X73918Y-53238D01*
X74054Y-53182D01*
X74157Y-53078D01*
X74214Y-52943D01*
X74214Y-52913D01*
X74226Y-52925D01*
X74361Y-52982D01*
X74507Y-52982D01*
X74578Y-52952D01*
X74578Y-54585D01*
X74228Y-54936D01*
X74167Y-54876D01*
X74067Y-54809D01*
X73949Y-54785D01*
X69312Y-54785D01*
X69276Y-54749D01*
X69126Y-54687D01*
X69074Y-54687D01*
X67943Y-53556D01*
X67843Y-53489D01*
X67725Y-53465D01*
X67152Y-53465D01*
X67116Y-53429D01*
X66966Y-53367D01*
X66804Y-53367D01*
X66654Y-53429D01*
X66539Y-53543D01*
X66477Y-53693D01*
X66477Y-53855D01*
X66539Y-54005D01*
X66653Y-54120D01*
X66803Y-54182D01*
X66965Y-54182D01*
X67115Y-54120D01*
X67152Y-54084D01*
X67596Y-54084D01*
X68637Y-55124D01*
X68637Y-55175D01*
X68699Y-55325D01*
X68813Y-55440D01*
X68963Y-55502D01*
X69125Y-55502D01*
X69275Y-55440D01*
X69312Y-55404D01*
X73820Y-55404D01*
X73820Y-55454D01*
X73882Y-55604D01*
X73996Y-55719D01*
X74146Y-55781D01*
X74308Y-55781D01*
X74458Y-55719D01*
X74573Y-55605D01*
X74635Y-55455D01*
X74635Y-55403D01*
X75106Y-54932D01*
X75106Y-54932D01*
X75106Y-54932D01*
X75173Y-54832D01*
X75173Y-54832D01*
X75197Y-54714D01*
X75197Y-51398D01*
X75197Y-51397D01*
X75197Y-51397D01*
X75192Y-51374D01*
X75173Y-51279D01*
X75173Y-51279D01*
X75106Y-51179D01*
X75106Y-51179D01*
X74467Y-50539D01*
X74467Y-49624D01*
X74503Y-49588D01*
X74565Y-49438D01*
X74565Y-49276D01*
X74503Y-49126D01*
X74389Y-49011D01*
X74239Y-48949D01*
X74077Y-48949D01*
X73927Y-49011D01*
X73890Y-49047D01*
X72954Y-49047D01*
X72953Y-49047D01*
X72930Y-49052D01*
X72835Y-49071D01*
X72735Y-49138D01*
X72735Y-49138D01*
X72623Y-49250D01*
X72572Y-49250D01*
X72422Y-49312D01*
X72351Y-49383D01*
X72351Y-47582D01*
X72379Y-47571D01*
X72482Y-47467D01*
X72539Y-47332D01*
X72539Y-47268D01*
X73146Y-47268D01*
X73252Y-47247D01*
X73343Y-47186D01*
X73975Y-46554D01*
X73975Y-46554D01*
X73975Y-46554D01*
X74036Y-46463D01*
X74036Y-46463D01*
X74053Y-46378D01*
X74057Y-46357D01*
X74057Y-46357D01*
X74057Y-46357D01*
X74057Y-44221D01*
X74141Y-44137D01*
X74202Y-44046D01*
X74223Y-43940D01*
X74223Y-43226D01*
X74258Y-43143D01*
X74258Y-42997D01*
X74202Y-42861D01*
X74098Y-42758D01*
X73963Y-42701D01*
X73817Y-42701D01*
X73681Y-42757D01*
X73578Y-42861D01*
X73521Y-42996D01*
X73521Y-43142D01*
X73523Y-43147D01*
X73420Y-43189D01*
X73317Y-43293D01*
X73260Y-43428D01*
X73260Y-43574D01*
X73316Y-43710D01*
X73349Y-43743D01*
X73349Y-46205D01*
X72994Y-46560D01*
X72553Y-46560D01*
X72553Y-46520D01*
X72497Y-46384D01*
X72464Y-46351D01*
X72464Y-42183D01*
X72443Y-42076D01*
X72382Y-41985D01*
X72382Y-41985D01*
X69125Y-38728D01*
X69197Y-38656D01*
X69254Y-38521D01*
X69254Y-38475D01*
X69754Y-37974D01*
X71123Y-37974D01*
X71067Y-38108D01*
X71067Y-38270D01*
X71129Y-38420D01*
X71165Y-38457D01*
X71165Y-38571D01*
X71159Y-38571D01*
X71023Y-38627D01*
X70920Y-38731D01*
X70863Y-38866D01*
X70863Y-39012D01*
X70919Y-39148D01*
X70952Y-39181D01*
X70952Y-39646D01*
X70929Y-39670D01*
X70872Y-39805D01*
X70872Y-39951D01*
X70928Y-40087D01*
X71032Y-40190D01*
X71167Y-40247D01*
X71298Y-40247D01*
X71324Y-40310D01*
X71438Y-40425D01*
X71588Y-40487D01*
X71750Y-40487D01*
X71900Y-40425D01*
X71937Y-40389D01*
X73851Y-40389D01*
X73874Y-40445D01*
X73988Y-40560D01*
X74138Y-40622D01*
X74300Y-40622D01*
X74450Y-40560D01*
X74565Y-40446D01*
X74627Y-40296D01*
X74627Y-40134D01*
X74565Y-39984D01*
X74451Y-39869D01*
X74301Y-39807D01*
X74222Y-39807D01*
X74203Y-39794D01*
X74085Y-39770D01*
X71937Y-39770D01*
X71901Y-39734D01*
X71784Y-39686D01*
X71784Y-38457D01*
X71820Y-38421D01*
X71882Y-38271D01*
X71882Y-38109D01*
X71820Y-37959D01*
X71818Y-37956D01*
X71836Y-37953D01*
X71927Y-37892D01*
X72475Y-37344D01*
X72754Y-37344D01*
X72759Y-37348D01*
X72894Y-37405D01*
X72990Y-37405D01*
X72990Y-38363D01*
X72908Y-38446D01*
X72851Y-38581D01*
X72851Y-38727D01*
X72907Y-38863D01*
X73011Y-38966D01*
X73146Y-39023D01*
X73180Y-39023D01*
X73180Y-39027D01*
X73236Y-39163D01*
X73340Y-39266D01*
X73475Y-39323D01*
X73621Y-39323D01*
X73757Y-39267D01*
X73860Y-39163D01*
X73917Y-39028D01*
X73917Y-38882D01*
X73863Y-38752D01*
X73863Y-37400D01*
X73876Y-37406D01*
X74022Y-37406D01*
X74158Y-37350D01*
X74191Y-37317D01*
X75195Y-37317D01*
X75301Y-37296D01*
X75392Y-37235D01*
X76021Y-36606D01*
X76059Y-36632D01*
X76270Y-36674D01*
X76480Y-36632D01*
X76658Y-36513D01*
X76770Y-36346D01*
X76881Y-36513D01*
X77059Y-36632D01*
X77270Y-36674D01*
X77480Y-36632D01*
X77544Y-36589D01*
X78880Y-37926D01*
X78774Y-37881D01*
X78628Y-37881D01*
X78497Y-37935D01*
X78454Y-37917D01*
X78308Y-37917D01*
X78172Y-37973D01*
X78162Y-37983D01*
X78076Y-37947D01*
X77930Y-37947D01*
X77811Y-37996D01*
X77698Y-37949D01*
X77552Y-37949D01*
X77427Y-38001D01*
X77333Y-37961D01*
X77187Y-37961D01*
X77051Y-38017D01*
X77048Y-38021D01*
X76961Y-37984D01*
X76815Y-37984D01*
X76679Y-38040D01*
X76674Y-38045D01*
X76593Y-38011D01*
X76447Y-38011D01*
X76311Y-38067D01*
X76208Y-38171D01*
X76151Y-38306D01*
X76151Y-38452D01*
X76207Y-38588D01*
X76311Y-38691D01*
X76446Y-38748D01*
X76492Y-38748D01*
X77080Y-39335D01*
X77080Y-47453D01*
X77101Y-47559D01*
X77162Y-47650D01*
X78309Y-48798D01*
X78309Y-48843D01*
X78365Y-48979D01*
X78469Y-49082D01*
X78604Y-49139D01*
X78750Y-49139D01*
X78886Y-49083D01*
X78989Y-48979D01*
X79046Y-48844D01*
X79046Y-48698D01*
X78990Y-48562D01*
X78886Y-48459D01*
X78751Y-48402D01*
X78705Y-48402D01*
X77639Y-47337D01*
X77639Y-46783D01*
X78321Y-47466D01*
X78321Y-47511D01*
X78377Y-47647D01*
X78481Y-47750D01*
X78616Y-47807D01*
X78762Y-47807D01*
X78898Y-47751D01*
X79001Y-47647D01*
X79058Y-47512D01*
X79058Y-47366D01*
X79002Y-47230D01*
X78898Y-47127D01*
X78763Y-47070D01*
X78717Y-47070D01*
X77859Y-46213D01*
X77859Y-45627D01*
X78318Y-46087D01*
X78318Y-46132D01*
X78374Y-46268D01*
X78478Y-46371D01*
X78613Y-46428D01*
X78759Y-46428D01*
X78895Y-46372D01*
X78998Y-46268D01*
X79055Y-46133D01*
X79055Y-45987D01*
X78999Y-45851D01*
X78895Y-45748D01*
X78760Y-45691D01*
X78714Y-45691D01*
X78084Y-45062D01*
X78084Y-44225D01*
X78314Y-44456D01*
X78314Y-44501D01*
X78370Y-44637D01*
X78474Y-44740D01*
X78609Y-44797D01*
X78755Y-44797D01*
X78891Y-44741D01*
X78994Y-44637D01*
X79051Y-44502D01*
X79051Y-44356D01*
X78995Y-44220D01*
X78891Y-44117D01*
X78756Y-44060D01*
X78710Y-44060D01*
X78339Y-43690D01*
X78339Y-42950D01*
X78379Y-43048D01*
X78483Y-43151D01*
X78618Y-43208D01*
X78764Y-43208D01*
X78900Y-43152D01*
X79003Y-43048D01*
X79060Y-42913D01*
X79060Y-42767D01*
X79004Y-42631D01*
X78900Y-42528D01*
X78765Y-42471D01*
X78719Y-42471D01*
X78546Y-42299D01*
X78546Y-41610D01*
X78636Y-41648D01*
X78782Y-41648D01*
X78918Y-41592D01*
X79021Y-41488D01*
X79078Y-41353D01*
X79078Y-41207D01*
X79022Y-41071D01*
X78918Y-40968D01*
X78783Y-40911D01*
X78737Y-40911D01*
X78719Y-40894D01*
X78719Y-40418D01*
X78792Y-40418D01*
X78928Y-40362D01*
X79031Y-40258D01*
X79088Y-40123D01*
X79088Y-39977D01*
X79032Y-39841D01*
X78980Y-39789D01*
X78980Y-38491D01*
X79012Y-38458D01*
X79069Y-38323D01*
X79069Y-38177D01*
X79025Y-38070D01*
X80190Y-39235D01*
X80190Y-50869D01*
X80155Y-50835D01*
X80020Y-50778D01*
X79874Y-50778D01*
X79738Y-50834D01*
X79705Y-50867D01*
X79198Y-50867D01*
X79168Y-50838D01*
X79033Y-50781D01*
X78887Y-50781D01*
X78751Y-50837D01*
X78648Y-50941D01*
X78591Y-51076D01*
X78591Y-51222D01*
X78647Y-51358D01*
X78751Y-51461D01*
X78886Y-51518D01*
X79032Y-51518D01*
X79168Y-51462D01*
X79204Y-51426D01*
X79705Y-51426D01*
X79729Y-51450D01*
X79672Y-51461D01*
X79581Y-51522D01*
X78898Y-52205D01*
X78175Y-52205D01*
X78065Y-52094D01*
X78065Y-52049D01*
X78009Y-51913D01*
X77905Y-51810D01*
X77770Y-51753D01*
X77624Y-51753D01*
X77488Y-51809D01*
X77385Y-51913D01*
X77328Y-52048D01*
X77328Y-52194D01*
X77384Y-52330D01*
X77488Y-52433D01*
X77623Y-52490D01*
X77669Y-52490D01*
X77862Y-52682D01*
X77953Y-52743D01*
X78060Y-52764D01*
X78591Y-52764D01*
X78490Y-52865D01*
X77741Y-52865D01*
X77716Y-52854D01*
X77570Y-52854D01*
X77434Y-52910D01*
X77331Y-53014D01*
X77274Y-53149D01*
X77274Y-53295D01*
X77330Y-53431D01*
X77434Y-53534D01*
X77569Y-53591D01*
X77715Y-53591D01*
X77851Y-53535D01*
X77954Y-53431D01*
X77957Y-53424D01*
X78440Y-53424D01*
X78440Y-53474D01*
X78254Y-53660D01*
X77496Y-53660D01*
X77389Y-53681D01*
X77382Y-53685D01*
X77382Y-53685D01*
X77309Y-53685D01*
X77173Y-53741D01*
X77070Y-53845D01*
X77013Y-53980D01*
X77013Y-54126D01*
X77069Y-54262D01*
X77173Y-54365D01*
X77308Y-54422D01*
X77454Y-54422D01*
X77590Y-54366D01*
X77693Y-54262D01*
X77711Y-54219D01*
X78370Y-54219D01*
X78476Y-54198D01*
X78567Y-54137D01*
X78917Y-53787D01*
X78917Y-53787D01*
X78917Y-53787D01*
X78978Y-53696D01*
X78978Y-53696D01*
X78995Y-53611D01*
X78999Y-53590D01*
X78999Y-53590D01*
X78999Y-53590D01*
X78999Y-53531D01*
X79041Y-53549D01*
X79187Y-53549D01*
X79323Y-53493D01*
X79426Y-53389D01*
X79483Y-53254D01*
X79483Y-53208D01*
X79632Y-53058D01*
X79644Y-53069D01*
X79779Y-53126D01*
X79925Y-53126D01*
X80061Y-53070D01*
X80164Y-52966D01*
X80221Y-52831D01*
X80221Y-52685D01*
X80165Y-52549D01*
X80061Y-52446D01*
X79989Y-52416D01*
X80015Y-52389D01*
X80400Y-52389D01*
X80506Y-52368D01*
X80597Y-52307D01*
X80828Y-52076D01*
X80828Y-52788D01*
X80849Y-52894D01*
X80910Y-52985D01*
X81051Y-53127D01*
X81051Y-53172D01*
X81107Y-53308D01*
X81211Y-53411D01*
X81346Y-53468D01*
X81492Y-53468D01*
X81628Y-53412D01*
X81731Y-53308D01*
X81788Y-53173D01*
X81788Y-53027D01*
X81732Y-52891D01*
X81628Y-52788D01*
X81493Y-52731D01*
X81447Y-52731D01*
X81387Y-52672D01*
X81387Y-52148D01*
X81507Y-52148D01*
X81643Y-52092D01*
X81746Y-51988D01*
X81803Y-51853D01*
X81803Y-51707D01*
X81747Y-51571D01*
X81643Y-51468D01*
X81549Y-51428D01*
X81549Y-36586D01*
X81658Y-36513D01*
X81778Y-36334D01*
X81820Y-36124D01*
X81820Y-57369D01*
X81690Y-57056D01*
X81395Y-56760D01*
X81009Y-56600D01*
X80592Y-56599D01*
X80206Y-56759D01*
X79910Y-57054D01*
X79750Y-57440D01*
X79749Y-57857D01*
X79909Y-58244D01*
X80095Y-58430D01*
X57750Y-58430D01*
X57750Y-53543D01*
X57694Y-53407D01*
X57590Y-53304D01*
X57470Y-53253D01*
X57470Y-53150D01*
X57414Y-53014D01*
X57310Y-52911D01*
X57175Y-52854D01*
X57123Y-52854D01*
X57111Y-52824D01*
X57007Y-52721D01*
X56872Y-52664D01*
X56726Y-52664D01*
X56693Y-52678D01*
X56693Y-50942D01*
X56637Y-50806D01*
X56533Y-50703D01*
X56398Y-50646D01*
X56252Y-50646D01*
X56116Y-50702D01*
X56013Y-50806D01*
X55956Y-50941D01*
X55956Y-51087D01*
X56012Y-51223D01*
X56030Y-51240D01*
X56030Y-51613D01*
X55998Y-51646D01*
X55941Y-51781D01*
X55941Y-51927D01*
X55997Y-52063D01*
X56101Y-52166D01*
X56236Y-52223D01*
X56382Y-52223D01*
X56518Y-52167D01*
X56621Y-52063D01*
X56678Y-51928D01*
X56678Y-51782D01*
X56622Y-51646D01*
X56589Y-51613D01*
X56589Y-51271D01*
X56636Y-51223D01*
X56693Y-51088D01*
X56693Y-50942D01*
X56693Y-52678D01*
X56590Y-52720D01*
X56557Y-52753D01*
X56267Y-52753D01*
X56229Y-52716D01*
X56094Y-52659D01*
X55948Y-52659D01*
X55812Y-52715D01*
X55709Y-52819D01*
X55652Y-52954D01*
X55652Y-53100D01*
X55691Y-53194D01*
X55674Y-53233D01*
X55674Y-53379D01*
X55708Y-53461D01*
X55679Y-53530D01*
X55679Y-53676D01*
X55707Y-53744D01*
X55677Y-53815D01*
X55677Y-53961D01*
X55733Y-54097D01*
X55837Y-54200D01*
X55972Y-54257D01*
X56118Y-54257D01*
X56254Y-54201D01*
X56324Y-54131D01*
X57146Y-54131D01*
X57252Y-54110D01*
X57343Y-54049D01*
X57409Y-53984D01*
X57454Y-53984D01*
X57590Y-53928D01*
X57693Y-53824D01*
X57750Y-53689D01*
X57750Y-53543D01*
X57750Y-58430D01*
X46947Y-58430D01*
X46947Y-55176D01*
X46939Y-54881D01*
X46841Y-54645D01*
X46726Y-54594D01*
X46655Y-54665D01*
X46655Y-54524D01*
X46604Y-54409D01*
X46328Y-54303D01*
X46033Y-54311D01*
X45797Y-54409D01*
X45746Y-54524D01*
X46201Y-54978D01*
X46655Y-54524D01*
X46655Y-54665D01*
X46271Y-55049D01*
X46726Y-55503D01*
X46841Y-55452D01*
X46947Y-55176D01*
X46947Y-58430D01*
X46655Y-58430D01*
X46655Y-55574D01*
X46201Y-55119D01*
X46195Y-55125D01*
X46124Y-55054D01*
X46130Y-55049D01*
X45676Y-54594D01*
X45560Y-54645D01*
X45455Y-54921D01*
X45463Y-55216D01*
X45522Y-55360D01*
X45223Y-55360D01*
X44925Y-55483D01*
X44925Y-53649D01*
X44845Y-53456D01*
X44698Y-53308D01*
X44505Y-53228D01*
X44295Y-53228D01*
X44102Y-53308D01*
X43954Y-53455D01*
X43899Y-53587D01*
X43845Y-53456D01*
X43698Y-53308D01*
X43505Y-53228D01*
X43295Y-53228D01*
X43102Y-53308D01*
X42954Y-53455D01*
X42899Y-53587D01*
X42845Y-53456D01*
X42698Y-53308D01*
X42505Y-53228D01*
X42295Y-53228D01*
X42102Y-53308D01*
X41954Y-53455D01*
X41899Y-53587D01*
X41845Y-53456D01*
X41698Y-53308D01*
X41505Y-53228D01*
X41295Y-53228D01*
X41102Y-53308D01*
X40954Y-53455D01*
X40874Y-53648D01*
X40874Y-53858D01*
X40954Y-54051D01*
X41101Y-54199D01*
X41294Y-54279D01*
X41504Y-54279D01*
X41697Y-54199D01*
X41845Y-54052D01*
X41900Y-53920D01*
X41954Y-54051D01*
X42101Y-54199D01*
X42294Y-54279D01*
X42504Y-54279D01*
X42697Y-54199D01*
X42845Y-54052D01*
X42900Y-53920D01*
X42954Y-54051D01*
X43101Y-54199D01*
X43294Y-54279D01*
X43504Y-54279D01*
X43697Y-54199D01*
X43845Y-54052D01*
X43900Y-53920D01*
X43954Y-54051D01*
X44101Y-54199D01*
X44294Y-54279D01*
X44504Y-54279D01*
X44697Y-54199D01*
X44845Y-54052D01*
X44925Y-53858D01*
X44925Y-53649D01*
X44925Y-55483D01*
X44896Y-55495D01*
X44646Y-55745D01*
X44510Y-56072D01*
X44510Y-56426D01*
X44645Y-56753D01*
X44895Y-57003D01*
X45222Y-57139D01*
X45576Y-57139D01*
X45903Y-57004D01*
X46153Y-56754D01*
X46289Y-56427D01*
X46289Y-56073D01*
X46173Y-55792D01*
X46368Y-55787D01*
X46604Y-55689D01*
X46655Y-55574D01*
X46655Y-58430D01*
X46195Y-58430D01*
X46195Y-57712D01*
X46112Y-57511D01*
X45959Y-57358D01*
X45758Y-57274D01*
X45542Y-57274D01*
X45341Y-57357D01*
X45188Y-57510D01*
X45144Y-57614D01*
X45102Y-57511D01*
X44949Y-57358D01*
X44748Y-57274D01*
X44532Y-57274D01*
X44331Y-57357D01*
X44178Y-57510D01*
X44094Y-57711D01*
X44094Y-57927D01*
X44177Y-58128D01*
X44330Y-58281D01*
X44531Y-58365D01*
X44747Y-58365D01*
X44948Y-58282D01*
X45101Y-58129D01*
X45145Y-58025D01*
X45187Y-58128D01*
X45340Y-58281D01*
X45541Y-58365D01*
X45757Y-58365D01*
X45958Y-58282D01*
X46111Y-58129D01*
X46195Y-57928D01*
X46195Y-57712D01*
X46195Y-58430D01*
X42195Y-58430D01*
X42195Y-57712D01*
X42112Y-57511D01*
X41959Y-57358D01*
X41789Y-57287D01*
X41789Y-56073D01*
X41654Y-55746D01*
X41404Y-55496D01*
X41077Y-55360D01*
X40774Y-55360D01*
X40844Y-55176D01*
X40836Y-54881D01*
X40739Y-54645D01*
X40623Y-54594D01*
X40553Y-54665D01*
X40553Y-54524D01*
X40502Y-54409D01*
X40226Y-54303D01*
X39931Y-54311D01*
X39695Y-54409D01*
X39644Y-54524D01*
X40098Y-54978D01*
X40553Y-54524D01*
X40553Y-54665D01*
X40169Y-55049D01*
X40175Y-55054D01*
X40104Y-55125D01*
X40098Y-55119D01*
X40028Y-55190D01*
X40028Y-55049D01*
X39573Y-54594D01*
X39458Y-54645D01*
X39352Y-54921D01*
X39360Y-55216D01*
X39458Y-55452D01*
X39573Y-55503D01*
X40028Y-55049D01*
X40028Y-55190D01*
X39644Y-55574D01*
X39695Y-55689D01*
X39971Y-55795D01*
X40127Y-55790D01*
X40010Y-56072D01*
X40010Y-56426D01*
X40145Y-56753D01*
X40395Y-57003D01*
X40722Y-57139D01*
X41076Y-57139D01*
X41403Y-57004D01*
X41653Y-56754D01*
X41789Y-56427D01*
X41789Y-56073D01*
X41789Y-57287D01*
X41758Y-57274D01*
X41542Y-57274D01*
X41341Y-57357D01*
X41188Y-57510D01*
X41155Y-57590D01*
X41122Y-57511D01*
X40969Y-57358D01*
X40768Y-57274D01*
X40552Y-57274D01*
X40351Y-57357D01*
X40198Y-57510D01*
X40114Y-57711D01*
X40114Y-57927D01*
X40197Y-58128D01*
X40350Y-58281D01*
X40551Y-58365D01*
X40767Y-58365D01*
X40968Y-58282D01*
X41121Y-58129D01*
X41154Y-58049D01*
X41187Y-58128D01*
X41340Y-58281D01*
X41541Y-58365D01*
X41757Y-58365D01*
X41958Y-58282D01*
X42111Y-58129D01*
X42195Y-57928D01*
X42195Y-57712D01*
X42195Y-58430D01*
X37162Y-58430D01*
X37162Y-46781D01*
X37097Y-46624D01*
X36977Y-46504D01*
X36820Y-46439D01*
X36650Y-46438D01*
X36493Y-46503D01*
X36373Y-46623D01*
X36308Y-46780D01*
X36307Y-46950D01*
X36372Y-47107D01*
X36492Y-47227D01*
X36649Y-47292D01*
X36819Y-47293D01*
X36976Y-47228D01*
X37096Y-47108D01*
X37161Y-46951D01*
X37162Y-46781D01*
X37162Y-58430D01*
X36604Y-58430D01*
X36789Y-58245D01*
X36949Y-57859D01*
X36950Y-57442D01*
X36790Y-57056D01*
X36495Y-56760D01*
X36109Y-56600D01*
X35692Y-56599D01*
X35306Y-56759D01*
X35010Y-57054D01*
X34919Y-57272D01*
X34919Y-20627D01*
X35009Y-20844D01*
X35304Y-21139D01*
X35690Y-21299D01*
X36107Y-21300D01*
X36494Y-21140D01*
X36789Y-20845D01*
X36949Y-20459D01*
X36950Y-20042D01*
X36790Y-19656D01*
X36600Y-19465D01*
X46428Y-19465D01*
X46408Y-19527D01*
X46756Y-19875D01*
X47103Y-19527D01*
X47083Y-19465D01*
X51084Y-19465D01*
X50826Y-19572D01*
X50561Y-19836D01*
X50418Y-20181D01*
X50418Y-20554D01*
X50560Y-20900D01*
X50824Y-21164D01*
X51169Y-21307D01*
X51543Y-21308D01*
X51888Y-21165D01*
X52153Y-20901D01*
X52296Y-20556D01*
X52296Y-20182D01*
X52153Y-19837D01*
X51890Y-19573D01*
X51630Y-19465D01*
X80099Y-19465D01*
X79910Y-19654D01*
X79750Y-20040D01*
X79749Y-20457D01*
X79909Y-20844D01*
X80204Y-21139D01*
X80590Y-21299D01*
X81007Y-21300D01*
X81394Y-21140D01*
X81689Y-20845D01*
X81830Y-20506D01*
X81830Y-32191D01*
X81575Y-31935D01*
X81230Y-31792D01*
X80856Y-31791D01*
X80511Y-31934D01*
X80246Y-32198D01*
X80103Y-32543D01*
X80103Y-32917D01*
X80246Y-33262D01*
X80509Y-33526D01*
X80854Y-33669D01*
X81228Y-33670D01*
X81573Y-33527D01*
X81830Y-33271D01*
X81830Y-57393D01*
X81830Y-57393D01*
G37*
G54D27*
X81830Y-57393D02*
X81820Y-57369D01*
X81820Y-36124D01*
X81820Y-35911D01*
X81778Y-35701D01*
X81658Y-35522D01*
X81504Y-35420D01*
X81658Y-35317D01*
X81778Y-35138D01*
X81820Y-34928D01*
X81820Y-34715D01*
X81778Y-34505D01*
X81658Y-34326D01*
X81480Y-34207D01*
X81270Y-34165D01*
X81059Y-34207D01*
X80881Y-34326D01*
X80770Y-34493D01*
X80658Y-34326D01*
X80480Y-34207D01*
X80270Y-34165D01*
X80059Y-34207D01*
X79881Y-34326D01*
X79770Y-34493D01*
X79658Y-34326D01*
X79480Y-34207D01*
X79270Y-34165D01*
X79059Y-34207D01*
X78881Y-34326D01*
X78770Y-34493D01*
X78658Y-34326D01*
X78480Y-34207D01*
X78270Y-34165D01*
X78059Y-34207D01*
X77881Y-34326D01*
X77770Y-34493D01*
X77658Y-34326D01*
X77480Y-34207D01*
X77270Y-34165D01*
X77059Y-34207D01*
X76881Y-34326D01*
X76770Y-34493D01*
X76658Y-34326D01*
X76480Y-34207D01*
X76270Y-34165D01*
X76059Y-34207D01*
X75881Y-34326D01*
X75770Y-34493D01*
X75658Y-34326D01*
X75480Y-34207D01*
X75270Y-34165D01*
X75059Y-34207D01*
X74881Y-34326D01*
X74770Y-34493D01*
X74658Y-34326D01*
X74480Y-34207D01*
X74270Y-34165D01*
X74059Y-34207D01*
X73881Y-34326D01*
X73770Y-34493D01*
X73658Y-34326D01*
X73480Y-34207D01*
X73270Y-34165D01*
X73059Y-34207D01*
X72881Y-34326D01*
X72770Y-34493D01*
X72658Y-34326D01*
X72480Y-34207D01*
X72270Y-34165D01*
X72075Y-34204D01*
X72075Y-34204D01*
X72051Y-34085D01*
X72051Y-34085D01*
X71984Y-33985D01*
X71485Y-33486D01*
X71385Y-33419D01*
X71267Y-33395D01*
X70477Y-33395D01*
X70441Y-33359D01*
X70291Y-33297D01*
X70129Y-33297D01*
X69979Y-33359D01*
X69864Y-33473D01*
X69802Y-33623D01*
X69802Y-33785D01*
X69838Y-33873D01*
X69062Y-33873D01*
X69061Y-33873D01*
X69040Y-33877D01*
X68955Y-33894D01*
X68864Y-33955D01*
X68864Y-33955D01*
X68585Y-34234D01*
X68585Y-32606D01*
X68585Y-32605D01*
X68585Y-32605D01*
X68581Y-32584D01*
X68564Y-32499D01*
X68564Y-32499D01*
X68503Y-32408D01*
X68503Y-32408D01*
X67607Y-31512D01*
X67516Y-31451D01*
X67410Y-31430D01*
X66681Y-31430D01*
X66648Y-31398D01*
X66513Y-31341D01*
X66367Y-31341D01*
X66231Y-31397D01*
X66128Y-31501D01*
X66127Y-31502D01*
X66127Y-30753D01*
X66568Y-30312D01*
X68531Y-30312D01*
X68474Y-30368D01*
X68412Y-30518D01*
X68412Y-30680D01*
X68474Y-30830D01*
X68588Y-30945D01*
X68738Y-31007D01*
X68900Y-31007D01*
X69050Y-30945D01*
X69087Y-30909D01*
X70232Y-30909D01*
X70268Y-30945D01*
X70418Y-31007D01*
X70580Y-31007D01*
X70730Y-30945D01*
X70845Y-30831D01*
X70907Y-30681D01*
X70907Y-30519D01*
X70845Y-30369D01*
X70788Y-30312D01*
X71574Y-30312D01*
X71776Y-30514D01*
X71867Y-30575D01*
X71974Y-30596D01*
X73171Y-30596D01*
X73277Y-30575D01*
X73368Y-30514D01*
X73727Y-30155D01*
X75509Y-30155D01*
X75615Y-30134D01*
X75706Y-30073D01*
X75935Y-29845D01*
X75980Y-29845D01*
X76116Y-29789D01*
X76219Y-29685D01*
X76276Y-29550D01*
X76276Y-29404D01*
X76220Y-29268D01*
X76116Y-29165D01*
X75981Y-29108D01*
X75835Y-29108D01*
X75699Y-29164D01*
X75596Y-29268D01*
X75539Y-29403D01*
X75539Y-29449D01*
X75479Y-29510D01*
X75444Y-29424D01*
X75340Y-29321D01*
X75205Y-29264D01*
X75059Y-29264D01*
X74923Y-29320D01*
X74836Y-29407D01*
X73498Y-29407D01*
X73497Y-29407D01*
X73476Y-29411D01*
X73442Y-29418D01*
X73369Y-29346D01*
X73234Y-29289D01*
X73088Y-29289D01*
X73085Y-29290D01*
X73016Y-29222D01*
X72881Y-29165D01*
X72813Y-29165D01*
X72787Y-29139D01*
X73498Y-29139D01*
X73531Y-29171D01*
X73666Y-29228D01*
X73812Y-29228D01*
X73948Y-29172D01*
X74051Y-29068D01*
X74108Y-28933D01*
X74108Y-28787D01*
X74052Y-28651D01*
X73948Y-28548D01*
X73813Y-28491D01*
X73725Y-28491D01*
X73725Y-28491D01*
X73786Y-28400D01*
X73807Y-28294D01*
X73807Y-27569D01*
X74101Y-27276D01*
X74146Y-27276D01*
X74282Y-27220D01*
X74385Y-27116D01*
X74442Y-26981D01*
X74442Y-26835D01*
X74386Y-26699D01*
X74282Y-26596D01*
X74147Y-26539D01*
X74001Y-26539D01*
X73865Y-26595D01*
X73762Y-26699D01*
X73705Y-26834D01*
X73705Y-26880D01*
X73330Y-27256D01*
X73269Y-27347D01*
X73248Y-27454D01*
X73248Y-28163D01*
X73238Y-28163D01*
X73238Y-24819D01*
X73182Y-24683D01*
X73078Y-24580D01*
X72943Y-24523D01*
X72797Y-24523D01*
X72661Y-24579D01*
X72558Y-24683D01*
X72501Y-24818D01*
X72501Y-24893D01*
X72499Y-24897D01*
X72478Y-25004D01*
X72478Y-25406D01*
X72061Y-25823D01*
X70371Y-25823D01*
X70264Y-25844D01*
X70173Y-25905D01*
X69783Y-26294D01*
X69738Y-26294D01*
X69602Y-26350D01*
X69499Y-26454D01*
X69442Y-26589D01*
X69442Y-26735D01*
X69498Y-26871D01*
X69602Y-26974D01*
X69737Y-27031D01*
X69883Y-27031D01*
X70019Y-26975D01*
X70122Y-26871D01*
X70179Y-26736D01*
X70179Y-26690D01*
X70486Y-26382D01*
X72177Y-26382D01*
X72283Y-26361D01*
X72374Y-26300D01*
X72955Y-25719D01*
X72955Y-25719D01*
X72955Y-25719D01*
X73016Y-25628D01*
X73037Y-25522D01*
X73037Y-25221D01*
X73078Y-25204D01*
X73181Y-25100D01*
X73238Y-24965D01*
X73238Y-24819D01*
X73238Y-28163D01*
X73217Y-28163D01*
X73081Y-28219D01*
X72978Y-28323D01*
X72921Y-28458D01*
X72921Y-28580D01*
X69710Y-28580D01*
X69710Y-28445D01*
X69654Y-28309D01*
X69550Y-28206D01*
X69415Y-28149D01*
X69269Y-28149D01*
X69146Y-28200D01*
X69146Y-20635D01*
X69146Y-20497D01*
X69146Y-20397D01*
X69146Y-20259D01*
X69086Y-20054D01*
X68951Y-19888D01*
X68764Y-19786D01*
X68735Y-19781D01*
X68651Y-19829D01*
X68651Y-20397D01*
X69146Y-20397D01*
X69146Y-20497D01*
X68651Y-20497D01*
X68651Y-21065D01*
X68735Y-21113D01*
X68764Y-21108D01*
X68951Y-21006D01*
X69086Y-20840D01*
X69146Y-20635D01*
X69146Y-28200D01*
X69133Y-28205D01*
X69030Y-28309D01*
X69024Y-28322D01*
X65935Y-28322D01*
X65828Y-28343D01*
X65737Y-28404D01*
X64116Y-30025D01*
X64055Y-30116D01*
X64034Y-30223D01*
X64034Y-37234D01*
X63972Y-37296D01*
X63359Y-37296D01*
X63326Y-37264D01*
X63191Y-37207D01*
X63149Y-37207D01*
X63149Y-24294D01*
X66362Y-21082D01*
X66392Y-21102D01*
X66601Y-21144D01*
X66810Y-21102D01*
X66987Y-20984D01*
X67101Y-20813D01*
X67216Y-20984D01*
X67392Y-21102D01*
X67601Y-21144D01*
X67810Y-21102D01*
X67987Y-20984D01*
X68105Y-20807D01*
X68106Y-20803D01*
X68116Y-20840D01*
X68251Y-21006D01*
X68439Y-21108D01*
X68467Y-21113D01*
X68551Y-21065D01*
X68551Y-20497D01*
X68543Y-20497D01*
X68543Y-20397D01*
X68551Y-20397D01*
X68551Y-19829D01*
X68467Y-19781D01*
X68439Y-19786D01*
X68251Y-19888D01*
X68116Y-20054D01*
X68106Y-20091D01*
X68105Y-20087D01*
X67987Y-19910D01*
X67810Y-19792D01*
X67601Y-19751D01*
X67392Y-19792D01*
X67216Y-19910D01*
X67101Y-20082D01*
X66987Y-19910D01*
X66810Y-19792D01*
X66601Y-19751D01*
X66392Y-19792D01*
X66216Y-19910D01*
X66101Y-20082D01*
X65987Y-19910D01*
X65810Y-19792D01*
X65601Y-19751D01*
X65392Y-19792D01*
X65216Y-19910D01*
X65101Y-20082D01*
X64987Y-19910D01*
X64810Y-19792D01*
X64601Y-19751D01*
X64392Y-19792D01*
X64216Y-19910D01*
X64101Y-20082D01*
X63987Y-19910D01*
X63810Y-19792D01*
X63601Y-19751D01*
X63392Y-19792D01*
X63216Y-19910D01*
X63101Y-20082D01*
X62987Y-19910D01*
X62810Y-19792D01*
X62601Y-19751D01*
X62392Y-19792D01*
X62216Y-19910D01*
X62101Y-20082D01*
X61987Y-19910D01*
X61810Y-19792D01*
X61601Y-19751D01*
X61392Y-19792D01*
X61216Y-19910D01*
X61101Y-20082D01*
X60987Y-19910D01*
X60810Y-19792D01*
X60601Y-19751D01*
X60392Y-19792D01*
X60216Y-19910D01*
X60101Y-20082D01*
X59987Y-19910D01*
X59810Y-19792D01*
X59601Y-19751D01*
X59392Y-19792D01*
X59216Y-19910D01*
X59101Y-20082D01*
X58987Y-19910D01*
X58810Y-19792D01*
X58601Y-19751D01*
X58392Y-19792D01*
X58216Y-19910D01*
X58101Y-20082D01*
X57987Y-19910D01*
X57810Y-19792D01*
X57601Y-19751D01*
X57392Y-19792D01*
X57216Y-19910D01*
X57101Y-20082D01*
X56987Y-19910D01*
X56810Y-19792D01*
X56601Y-19751D01*
X56392Y-19792D01*
X56216Y-19910D01*
X56101Y-20082D01*
X55987Y-19910D01*
X55810Y-19792D01*
X55601Y-19751D01*
X55392Y-19792D01*
X55216Y-19910D01*
X55101Y-20082D01*
X54987Y-19910D01*
X54810Y-19792D01*
X54601Y-19751D01*
X54392Y-19792D01*
X54216Y-19910D01*
X54097Y-20087D01*
X54097Y-20091D01*
X54086Y-20054D01*
X53951Y-19888D01*
X53764Y-19786D01*
X53735Y-19781D01*
X53651Y-19829D01*
X53651Y-20397D01*
X53659Y-20397D01*
X53659Y-20497D01*
X53651Y-20497D01*
X53651Y-21065D01*
X53735Y-21113D01*
X53764Y-21108D01*
X53951Y-21006D01*
X54086Y-20840D01*
X54097Y-20803D01*
X54097Y-20807D01*
X54216Y-20984D01*
X54341Y-21068D01*
X54252Y-21068D01*
X54145Y-21089D01*
X54080Y-21132D01*
X54026Y-21132D01*
X53890Y-21188D01*
X53787Y-21292D01*
X53730Y-21427D01*
X53730Y-21573D01*
X53786Y-21709D01*
X53890Y-21812D01*
X54025Y-21869D01*
X54171Y-21869D01*
X54307Y-21813D01*
X54410Y-21709D01*
X54445Y-21627D01*
X55342Y-21627D01*
X55448Y-21606D01*
X55539Y-21545D01*
X55799Y-21286D01*
X55859Y-21195D01*
X55881Y-21088D01*
X55881Y-21055D01*
X55987Y-20984D01*
X56101Y-20813D01*
X56216Y-20984D01*
X56392Y-21102D01*
X56601Y-21144D01*
X56810Y-21102D01*
X56987Y-20984D01*
X57101Y-20813D01*
X57216Y-20984D01*
X57392Y-21102D01*
X57601Y-21144D01*
X57810Y-21102D01*
X57987Y-20984D01*
X58101Y-20813D01*
X58216Y-20984D01*
X58392Y-21102D01*
X58601Y-21144D01*
X58810Y-21102D01*
X58840Y-21082D01*
X60050Y-22291D01*
X60050Y-31438D01*
X60030Y-31419D01*
X59895Y-31362D01*
X59749Y-31362D01*
X59613Y-31418D01*
X59510Y-31522D01*
X59495Y-31556D01*
X58201Y-31556D01*
X57492Y-30847D01*
X57401Y-30786D01*
X57295Y-30765D01*
X53551Y-30765D01*
X53551Y-21065D01*
X53551Y-20497D01*
X53551Y-20397D01*
X53551Y-19829D01*
X53467Y-19781D01*
X53439Y-19786D01*
X53251Y-19888D01*
X53116Y-20054D01*
X53056Y-20259D01*
X53056Y-20397D01*
X53551Y-20397D01*
X53551Y-20497D01*
X53056Y-20497D01*
X53056Y-20635D01*
X53116Y-20840D01*
X53251Y-21006D01*
X53439Y-21108D01*
X53467Y-21113D01*
X53551Y-21065D01*
X53551Y-30765D01*
X49887Y-30765D01*
X49887Y-27739D01*
X49825Y-27589D01*
X49711Y-27474D01*
X49561Y-27412D01*
X49399Y-27412D01*
X49318Y-27445D01*
X49318Y-20812D01*
X49228Y-20593D01*
X49061Y-20426D01*
X48842Y-20335D01*
X48606Y-20335D01*
X48387Y-20425D01*
X48220Y-20592D01*
X48129Y-20811D01*
X48129Y-21047D01*
X48219Y-21266D01*
X48386Y-21433D01*
X48605Y-21524D01*
X48841Y-21524D01*
X49060Y-21434D01*
X49227Y-21267D01*
X49318Y-21048D01*
X49318Y-20812D01*
X49318Y-27445D01*
X49249Y-27474D01*
X49212Y-27510D01*
X48197Y-27510D01*
X48161Y-27474D01*
X48011Y-27412D01*
X47849Y-27412D01*
X47699Y-27474D01*
X47584Y-27588D01*
X47522Y-27738D01*
X47522Y-27900D01*
X47584Y-28050D01*
X47698Y-28165D01*
X47848Y-28227D01*
X48010Y-28227D01*
X48160Y-28165D01*
X48197Y-28129D01*
X49212Y-28129D01*
X49248Y-28165D01*
X49398Y-28227D01*
X49560Y-28227D01*
X49710Y-28165D01*
X49825Y-28051D01*
X49887Y-27901D01*
X49887Y-27739D01*
X49887Y-30765D01*
X47355Y-30765D01*
X47355Y-20038D01*
X47344Y-19802D01*
X47274Y-19631D01*
X47174Y-19598D01*
X46826Y-19946D01*
X47174Y-20293D01*
X47274Y-20260D01*
X47355Y-20038D01*
X47355Y-30765D01*
X47350Y-30765D01*
X47350Y-21796D01*
X47260Y-21577D01*
X47103Y-21420D01*
X47103Y-20364D01*
X46756Y-20016D01*
X46685Y-20087D01*
X46685Y-19946D01*
X46337Y-19598D01*
X46237Y-19631D01*
X46156Y-19853D01*
X46167Y-20089D01*
X46237Y-20260D01*
X46337Y-20293D01*
X46685Y-19946D01*
X46685Y-20087D01*
X46408Y-20364D01*
X46441Y-20464D01*
X46663Y-20545D01*
X46899Y-20534D01*
X47070Y-20464D01*
X47103Y-20364D01*
X47103Y-21420D01*
X47093Y-21410D01*
X46874Y-21319D01*
X46638Y-21319D01*
X46419Y-21409D01*
X46252Y-21576D01*
X46161Y-21795D01*
X46161Y-22031D01*
X46251Y-22250D01*
X46418Y-22417D01*
X46637Y-22508D01*
X46873Y-22508D01*
X47092Y-22418D01*
X47259Y-22251D01*
X47350Y-22032D01*
X47350Y-21796D01*
X47350Y-30765D01*
X45830Y-30765D01*
X45830Y-29624D01*
X45768Y-29474D01*
X45654Y-29359D01*
X45504Y-29297D01*
X45342Y-29297D01*
X45192Y-29359D01*
X45155Y-29395D01*
X44173Y-29395D01*
X44111Y-29333D01*
X44111Y-23668D01*
X44131Y-23668D01*
X44281Y-23606D01*
X44396Y-23492D01*
X44458Y-23342D01*
X44458Y-23180D01*
X44396Y-23030D01*
X44282Y-22915D01*
X44132Y-22853D01*
X43970Y-22853D01*
X43820Y-22915D01*
X43705Y-23029D01*
X43643Y-23179D01*
X43643Y-23231D01*
X43583Y-23291D01*
X43516Y-23391D01*
X43492Y-23510D01*
X43492Y-29462D01*
X43516Y-29580D01*
X43583Y-29680D01*
X43826Y-29923D01*
X43826Y-29923D01*
X43926Y-29990D01*
X43926Y-29990D01*
X44021Y-30009D01*
X44044Y-30014D01*
X44044Y-30014D01*
X44045Y-30014D01*
X45155Y-30014D01*
X45191Y-30050D01*
X45341Y-30112D01*
X45503Y-30112D01*
X45653Y-30050D01*
X45768Y-29936D01*
X45830Y-29786D01*
X45830Y-29624D01*
X45830Y-30765D01*
X43268Y-30765D01*
X43268Y-30243D01*
X43212Y-30107D01*
X43169Y-30064D01*
X43169Y-29571D01*
X43201Y-29538D01*
X43258Y-29403D01*
X43258Y-29257D01*
X43202Y-29121D01*
X43098Y-29018D01*
X42963Y-28961D01*
X42817Y-28961D01*
X42681Y-29017D01*
X42578Y-29121D01*
X42521Y-29256D01*
X42521Y-29402D01*
X42577Y-29538D01*
X42610Y-29571D01*
X42610Y-30084D01*
X42588Y-30107D01*
X42531Y-30242D01*
X42531Y-30388D01*
X42587Y-30524D01*
X42691Y-30627D01*
X42826Y-30684D01*
X42972Y-30684D01*
X43108Y-30628D01*
X43211Y-30524D01*
X43268Y-30389D01*
X43268Y-30243D01*
X43268Y-30765D01*
X42735Y-30765D01*
X42628Y-30786D01*
X42537Y-30847D01*
X42096Y-31288D01*
X42035Y-31379D01*
X42014Y-31486D01*
X42014Y-31888D01*
X41975Y-31928D01*
X41918Y-32063D01*
X41918Y-32209D01*
X41974Y-32345D01*
X42078Y-32448D01*
X42213Y-32505D01*
X42359Y-32505D01*
X42495Y-32449D01*
X42598Y-32345D01*
X42655Y-32210D01*
X42655Y-32068D01*
X42722Y-32068D01*
X42858Y-32012D01*
X42961Y-31908D01*
X43018Y-31773D01*
X43018Y-31727D01*
X43315Y-31429D01*
X43684Y-31429D01*
X43681Y-31436D01*
X43681Y-31582D01*
X43737Y-31718D01*
X43841Y-31821D01*
X43976Y-31878D01*
X44122Y-31878D01*
X44258Y-31822D01*
X44361Y-31718D01*
X44382Y-31669D01*
X55919Y-31669D01*
X56802Y-32552D01*
X56802Y-32552D01*
X56893Y-32613D01*
X56893Y-32613D01*
X56978Y-32630D01*
X56999Y-32634D01*
X56999Y-32634D01*
X57000Y-32634D01*
X57585Y-32634D01*
X57426Y-32793D01*
X57365Y-32884D01*
X57344Y-32991D01*
X57344Y-33736D01*
X56841Y-34239D01*
X56825Y-34235D01*
X56614Y-34277D01*
X56436Y-34396D01*
X56325Y-34563D01*
X56213Y-34396D01*
X56035Y-34277D01*
X55825Y-34235D01*
X55614Y-34277D01*
X55436Y-34396D01*
X55325Y-34563D01*
X55213Y-34396D01*
X55035Y-34277D01*
X54825Y-34235D01*
X54614Y-34277D01*
X54436Y-34396D01*
X54325Y-34563D01*
X54213Y-34396D01*
X54035Y-34277D01*
X53825Y-34235D01*
X53614Y-34277D01*
X53436Y-34396D01*
X53325Y-34563D01*
X53213Y-34396D01*
X53035Y-34277D01*
X52825Y-34235D01*
X52614Y-34277D01*
X52436Y-34396D01*
X52325Y-34563D01*
X52213Y-34396D01*
X52035Y-34277D01*
X51825Y-34235D01*
X51614Y-34277D01*
X51436Y-34396D01*
X51325Y-34563D01*
X51213Y-34396D01*
X51035Y-34277D01*
X50825Y-34235D01*
X50614Y-34277D01*
X50436Y-34396D01*
X50325Y-34563D01*
X50213Y-34396D01*
X50035Y-34277D01*
X49825Y-34235D01*
X49614Y-34277D01*
X49436Y-34396D01*
X49325Y-34563D01*
X49213Y-34396D01*
X49035Y-34277D01*
X48825Y-34235D01*
X48614Y-34277D01*
X48436Y-34396D01*
X48325Y-34563D01*
X48213Y-34396D01*
X48134Y-34343D01*
X48134Y-34207D01*
X48110Y-34088D01*
X48110Y-34088D01*
X48043Y-33988D01*
X48043Y-33988D01*
X47540Y-33485D01*
X47440Y-33418D01*
X47322Y-33394D01*
X44616Y-33394D01*
X44615Y-33394D01*
X44592Y-33399D01*
X44497Y-33418D01*
X44397Y-33485D01*
X44397Y-33485D01*
X43851Y-34031D01*
X43784Y-34131D01*
X43760Y-34250D01*
X43760Y-34304D01*
X43587Y-34304D01*
X43495Y-34342D01*
X43425Y-34413D01*
X43387Y-34505D01*
X43387Y-34545D01*
X40642Y-34545D01*
X40541Y-34444D01*
X40391Y-34382D01*
X40320Y-34382D01*
X40475Y-34278D01*
X40594Y-34100D01*
X40636Y-33890D01*
X40594Y-33679D01*
X40475Y-33501D01*
X40309Y-33390D01*
X40475Y-33278D01*
X40594Y-33100D01*
X40636Y-32890D01*
X40594Y-32679D01*
X40475Y-32501D01*
X40309Y-32390D01*
X40475Y-32278D01*
X40594Y-32100D01*
X40636Y-31890D01*
X40636Y-29890D01*
X40594Y-29679D01*
X40475Y-29501D01*
X40383Y-29440D01*
X40422Y-29440D01*
X40514Y-29402D01*
X40584Y-29331D01*
X40622Y-29239D01*
X40623Y-29140D01*
X40623Y-28540D01*
X40585Y-28448D01*
X40514Y-28378D01*
X40422Y-28340D01*
X40323Y-28339D01*
X39887Y-28339D01*
X39887Y-24622D01*
X39887Y-24577D01*
X39800Y-24142D01*
X39554Y-23772D01*
X39184Y-23525D01*
X38749Y-23439D01*
X38313Y-23525D01*
X37943Y-23772D01*
X37697Y-24142D01*
X37610Y-24577D01*
X37610Y-24622D01*
X37697Y-25057D01*
X37943Y-25427D01*
X38313Y-25674D01*
X38749Y-25760D01*
X39184Y-25674D01*
X39554Y-25427D01*
X39800Y-25057D01*
X39887Y-24622D01*
X39887Y-28339D01*
X39457Y-28339D01*
X39365Y-28377D01*
X39295Y-28448D01*
X39257Y-28540D01*
X39256Y-28639D01*
X39256Y-29239D01*
X39294Y-29331D01*
X39365Y-29401D01*
X39457Y-29439D01*
X39496Y-29439D01*
X39404Y-29501D01*
X39285Y-29679D01*
X39243Y-29890D01*
X39285Y-30100D01*
X39404Y-30278D01*
X39576Y-30393D01*
X39550Y-30401D01*
X39382Y-30536D01*
X39279Y-30725D01*
X39273Y-30754D01*
X39322Y-30840D01*
X39890Y-30840D01*
X39890Y-30832D01*
X39990Y-30832D01*
X39990Y-30840D01*
X40557Y-30840D01*
X40606Y-30754D01*
X40600Y-30725D01*
X40497Y-30536D01*
X40329Y-30401D01*
X40303Y-30393D01*
X40475Y-30278D01*
X40594Y-30100D01*
X40636Y-29890D01*
X40636Y-31890D01*
X40594Y-31679D01*
X40475Y-31501D01*
X40303Y-31386D01*
X40329Y-31378D01*
X40497Y-31243D01*
X40600Y-31054D01*
X40606Y-31025D01*
X40557Y-30940D01*
X39990Y-30940D01*
X39990Y-30947D01*
X39890Y-30947D01*
X39890Y-30940D01*
X39322Y-30940D01*
X39273Y-31025D01*
X39279Y-31054D01*
X39382Y-31243D01*
X39550Y-31378D01*
X39576Y-31386D01*
X39404Y-31501D01*
X39285Y-31679D01*
X39243Y-31890D01*
X39285Y-32100D01*
X39404Y-32278D01*
X39570Y-32390D01*
X39404Y-32501D01*
X39285Y-32679D01*
X39243Y-32890D01*
X39285Y-33100D01*
X39404Y-33278D01*
X39570Y-33390D01*
X39404Y-33501D01*
X39285Y-33679D01*
X39243Y-33890D01*
X39285Y-34100D01*
X39404Y-34278D01*
X39583Y-34398D01*
X39793Y-34440D01*
X40086Y-34440D01*
X40093Y-34438D01*
X40079Y-34444D01*
X39964Y-34558D01*
X39902Y-34708D01*
X39902Y-34870D01*
X39964Y-35020D01*
X40078Y-35135D01*
X40228Y-35197D01*
X40390Y-35197D01*
X40471Y-35164D01*
X43386Y-35164D01*
X43386Y-35204D01*
X43424Y-35296D01*
X43495Y-35366D01*
X43587Y-35404D01*
X43626Y-35404D01*
X43534Y-35466D01*
X43415Y-35644D01*
X43373Y-35855D01*
X43415Y-36065D01*
X43534Y-36243D01*
X43713Y-36363D01*
X43923Y-36405D01*
X44216Y-36405D01*
X44426Y-36363D01*
X44605Y-36243D01*
X44724Y-36065D01*
X44766Y-35855D01*
X44724Y-35644D01*
X44605Y-35466D01*
X44513Y-35405D01*
X44552Y-35405D01*
X44640Y-35368D01*
X44779Y-35426D01*
X44941Y-35426D01*
X45091Y-35364D01*
X45157Y-35299D01*
X46377Y-35299D01*
X46436Y-35387D01*
X46614Y-35506D01*
X46825Y-35548D01*
X47035Y-35506D01*
X47213Y-35387D01*
X47325Y-35220D01*
X47436Y-35387D01*
X47590Y-35490D01*
X47436Y-35592D01*
X47316Y-35771D01*
X47275Y-35981D01*
X47275Y-36194D01*
X47316Y-36404D01*
X47436Y-36583D01*
X47604Y-36695D01*
X41110Y-36695D01*
X38605Y-34190D01*
X38605Y-26740D01*
X38605Y-26317D01*
X38447Y-25943D01*
X38157Y-25658D01*
X37798Y-25510D01*
X37637Y-25552D01*
X37637Y-26479D01*
X38563Y-26479D01*
X38605Y-26317D01*
X38605Y-26740D01*
X38563Y-26579D01*
X37637Y-26579D01*
X37637Y-27505D01*
X37798Y-27547D01*
X38157Y-27399D01*
X38447Y-27114D01*
X38605Y-26740D01*
X38605Y-34190D01*
X37537Y-33121D01*
X37537Y-27505D01*
X37537Y-26579D01*
X37537Y-26479D01*
X37537Y-25552D01*
X37405Y-25518D01*
X37405Y-24811D01*
X37405Y-24388D01*
X37247Y-24014D01*
X36957Y-23729D01*
X36598Y-23581D01*
X36437Y-23623D01*
X36437Y-24550D01*
X37363Y-24550D01*
X37405Y-24388D01*
X37405Y-24811D01*
X37363Y-24650D01*
X36437Y-24650D01*
X36437Y-25576D01*
X36598Y-25618D01*
X36957Y-25470D01*
X37247Y-25185D01*
X37405Y-24811D01*
X37405Y-25518D01*
X37375Y-25510D01*
X37016Y-25658D01*
X36726Y-25943D01*
X36568Y-26317D01*
X36610Y-26479D01*
X37537Y-26479D01*
X37537Y-26579D01*
X36610Y-26579D01*
X36568Y-26740D01*
X36726Y-27114D01*
X37016Y-27399D01*
X37375Y-27547D01*
X37537Y-27505D01*
X37537Y-33121D01*
X36609Y-32194D01*
X36669Y-32105D01*
X36711Y-31895D01*
X36711Y-29895D01*
X36669Y-29684D01*
X36550Y-29506D01*
X36458Y-29445D01*
X36497Y-29445D01*
X36589Y-29407D01*
X36659Y-29336D01*
X36697Y-29244D01*
X36698Y-29145D01*
X36698Y-28545D01*
X36660Y-28453D01*
X36589Y-28383D01*
X36497Y-28345D01*
X36398Y-28344D01*
X36337Y-28344D01*
X36337Y-25576D01*
X36337Y-24650D01*
X36337Y-24550D01*
X36337Y-23623D01*
X36175Y-23581D01*
X35816Y-23729D01*
X35526Y-24014D01*
X35368Y-24388D01*
X35410Y-24550D01*
X36337Y-24550D01*
X36337Y-24650D01*
X35410Y-24650D01*
X35368Y-24811D01*
X35526Y-25185D01*
X35816Y-25470D01*
X36175Y-25618D01*
X36337Y-25576D01*
X36337Y-28344D01*
X35532Y-28344D01*
X35440Y-28382D01*
X35370Y-28453D01*
X35332Y-28545D01*
X35331Y-28644D01*
X35331Y-29244D01*
X35369Y-29336D01*
X35440Y-29406D01*
X35532Y-29444D01*
X35571Y-29444D01*
X35479Y-29506D01*
X35360Y-29684D01*
X35318Y-29895D01*
X35360Y-30105D01*
X35479Y-30283D01*
X35651Y-30398D01*
X35625Y-30406D01*
X35457Y-30541D01*
X35354Y-30730D01*
X35348Y-30759D01*
X35397Y-30845D01*
X35965Y-30845D01*
X35965Y-30837D01*
X36065Y-30837D01*
X36065Y-30845D01*
X36632Y-30845D01*
X36681Y-30759D01*
X36675Y-30730D01*
X36572Y-30541D01*
X36404Y-30406D01*
X36378Y-30398D01*
X36550Y-30283D01*
X36669Y-30105D01*
X36711Y-29895D01*
X36711Y-31895D01*
X36669Y-31684D01*
X36550Y-31506D01*
X36378Y-31391D01*
X36404Y-31383D01*
X36572Y-31248D01*
X36675Y-31059D01*
X36681Y-31030D01*
X36632Y-30945D01*
X36065Y-30945D01*
X36065Y-30952D01*
X35965Y-30952D01*
X35965Y-30945D01*
X35397Y-30945D01*
X35348Y-31030D01*
X35354Y-31059D01*
X35457Y-31248D01*
X35625Y-31383D01*
X35651Y-31391D01*
X35479Y-31506D01*
X35360Y-31684D01*
X35318Y-31895D01*
X35360Y-32105D01*
X35479Y-32283D01*
X35645Y-32395D01*
X35479Y-32506D01*
X35360Y-32684D01*
X35318Y-32895D01*
X35360Y-33105D01*
X35479Y-33283D01*
X35645Y-33395D01*
X35479Y-33506D01*
X35360Y-33684D01*
X35318Y-33895D01*
X35360Y-34105D01*
X35479Y-34283D01*
X35658Y-34403D01*
X35868Y-34445D01*
X36161Y-34445D01*
X36371Y-34403D01*
X36550Y-34283D01*
X36669Y-34105D01*
X36711Y-33895D01*
X36669Y-33684D01*
X36550Y-33506D01*
X36384Y-33395D01*
X36522Y-33302D01*
X38433Y-35214D01*
X38192Y-35119D01*
X37857Y-35125D01*
X37578Y-35241D01*
X37515Y-35366D01*
X38041Y-35892D01*
X38046Y-35886D01*
X38117Y-35957D01*
X38111Y-35963D01*
X38637Y-36488D01*
X38762Y-36425D01*
X38884Y-36114D01*
X38878Y-35779D01*
X38792Y-35572D01*
X40662Y-37442D01*
X40662Y-37442D01*
X40716Y-37478D01*
X40753Y-37503D01*
X40753Y-37503D01*
X40860Y-37524D01*
X44736Y-37524D01*
X44736Y-37617D01*
X44789Y-37745D01*
X44721Y-37813D01*
X44664Y-37948D01*
X44664Y-38094D01*
X44720Y-38230D01*
X44726Y-38236D01*
X44672Y-38365D01*
X44672Y-38511D01*
X44728Y-38647D01*
X44832Y-38750D01*
X44967Y-38807D01*
X45113Y-38807D01*
X45249Y-38751D01*
X45282Y-38718D01*
X45978Y-38718D01*
X46038Y-38777D01*
X46173Y-38834D01*
X46319Y-38834D01*
X46455Y-38778D01*
X46488Y-38745D01*
X46886Y-38745D01*
X46933Y-38765D01*
X47079Y-38765D01*
X47215Y-38709D01*
X47318Y-38605D01*
X47375Y-38470D01*
X47375Y-38324D01*
X47319Y-38188D01*
X47215Y-38085D01*
X47080Y-38028D01*
X46934Y-38028D01*
X46798Y-38084D01*
X46696Y-38186D01*
X46564Y-38186D01*
X46598Y-38104D01*
X46598Y-37958D01*
X46542Y-37824D01*
X51064Y-37824D01*
X54060Y-40820D01*
X54060Y-47508D01*
X53988Y-47581D01*
X53931Y-47716D01*
X53931Y-47862D01*
X53987Y-47998D01*
X54091Y-48101D01*
X54226Y-48158D01*
X54372Y-48158D01*
X54508Y-48102D01*
X54611Y-47998D01*
X54625Y-47965D01*
X54680Y-48019D01*
X54627Y-48145D01*
X54627Y-48291D01*
X54683Y-48427D01*
X54787Y-48530D01*
X54922Y-48587D01*
X54968Y-48587D01*
X55185Y-48803D01*
X55185Y-48803D01*
X55239Y-48839D01*
X55276Y-48864D01*
X55276Y-48864D01*
X55383Y-48885D01*
X56293Y-48885D01*
X56326Y-48917D01*
X56461Y-48974D01*
X56607Y-48974D01*
X56743Y-48918D01*
X56846Y-48814D01*
X56903Y-48679D01*
X56903Y-48533D01*
X56847Y-48397D01*
X56743Y-48294D01*
X56608Y-48237D01*
X56510Y-48237D01*
X56556Y-48127D01*
X56556Y-47981D01*
X56500Y-47845D01*
X56396Y-47742D01*
X56261Y-47685D01*
X56115Y-47685D01*
X55979Y-47741D01*
X55958Y-47762D01*
X55754Y-47762D01*
X55758Y-47753D01*
X55758Y-47607D01*
X55702Y-47471D01*
X55669Y-47438D01*
X55669Y-46923D01*
X55684Y-46937D01*
X55819Y-46994D01*
X55965Y-46994D01*
X56101Y-46938D01*
X56204Y-46834D01*
X56261Y-46699D01*
X56261Y-46553D01*
X56209Y-46428D01*
X57331Y-46428D01*
X57331Y-46546D01*
X57387Y-46682D01*
X57420Y-46715D01*
X57420Y-49060D01*
X57144Y-49336D01*
X52846Y-49336D01*
X52275Y-48765D01*
X52275Y-47194D01*
X52254Y-47087D01*
X52193Y-46996D01*
X52053Y-46856D01*
X51962Y-46795D01*
X51856Y-46774D01*
X50142Y-46774D01*
X50035Y-46795D01*
X49998Y-46820D01*
X49944Y-46856D01*
X49944Y-46856D01*
X49678Y-47122D01*
X47597Y-47122D01*
X47509Y-47063D01*
X47403Y-47042D01*
X44246Y-47042D01*
X44160Y-46956D01*
X44025Y-46899D01*
X43879Y-46899D01*
X43743Y-46955D01*
X43640Y-47059D01*
X43607Y-47136D01*
X43456Y-46984D01*
X43456Y-46939D01*
X43419Y-46850D01*
X44803Y-46850D01*
X44836Y-46882D01*
X44971Y-46939D01*
X45117Y-46939D01*
X45253Y-46883D01*
X45356Y-46779D01*
X45365Y-46758D01*
X45462Y-46799D01*
X45583Y-46799D01*
X45673Y-46888D01*
X45808Y-46945D01*
X45954Y-46945D01*
X46090Y-46889D01*
X46123Y-46856D01*
X46659Y-46856D01*
X46713Y-46909D01*
X46848Y-46966D01*
X46994Y-46966D01*
X47130Y-46910D01*
X47233Y-46806D01*
X47290Y-46671D01*
X47290Y-46525D01*
X47234Y-46389D01*
X47174Y-46329D01*
X52143Y-46329D01*
X52187Y-46436D01*
X52291Y-46539D01*
X52426Y-46596D01*
X52572Y-46596D01*
X52661Y-46559D01*
X52661Y-46863D01*
X52682Y-46969D01*
X52743Y-47060D01*
X52902Y-47220D01*
X52902Y-47265D01*
X52958Y-47401D01*
X53062Y-47504D01*
X53197Y-47561D01*
X53343Y-47561D01*
X53479Y-47505D01*
X53582Y-47401D01*
X53639Y-47266D01*
X53639Y-47264D01*
X53646Y-47261D01*
X53749Y-47157D01*
X53806Y-47022D01*
X53806Y-46876D01*
X53750Y-46740D01*
X53646Y-46637D01*
X53511Y-46580D01*
X53465Y-46580D01*
X53459Y-46575D01*
X53459Y-41960D01*
X53438Y-41853D01*
X53377Y-41762D01*
X53377Y-41762D01*
X51507Y-39892D01*
X51416Y-39831D01*
X51310Y-39810D01*
X43540Y-39810D01*
X43539Y-39810D01*
X43518Y-39814D01*
X43433Y-39831D01*
X43348Y-39888D01*
X43359Y-39862D01*
X43359Y-39810D01*
X43688Y-39481D01*
X43755Y-39381D01*
X43755Y-39381D01*
X43779Y-39263D01*
X43779Y-38427D01*
X43815Y-38391D01*
X43877Y-38241D01*
X43877Y-38079D01*
X43815Y-37929D01*
X43701Y-37814D01*
X43551Y-37752D01*
X43389Y-37752D01*
X43239Y-37814D01*
X43124Y-37928D01*
X43062Y-38078D01*
X43062Y-38240D01*
X43124Y-38390D01*
X43160Y-38427D01*
X43160Y-39134D01*
X42922Y-39373D01*
X42871Y-39373D01*
X42721Y-39435D01*
X42606Y-39549D01*
X42544Y-39699D01*
X42544Y-39861D01*
X42606Y-40011D01*
X42720Y-40126D01*
X42870Y-40188D01*
X43032Y-40188D01*
X43055Y-40179D01*
X42992Y-40242D01*
X42931Y-40333D01*
X42910Y-40440D01*
X42910Y-42280D01*
X42931Y-42386D01*
X42992Y-42477D01*
X43031Y-42517D01*
X43031Y-42562D01*
X43087Y-42698D01*
X43191Y-42801D01*
X43326Y-42858D01*
X43472Y-42858D01*
X43608Y-42802D01*
X43711Y-42698D01*
X43768Y-42563D01*
X43768Y-42417D01*
X43712Y-42281D01*
X43608Y-42178D01*
X43473Y-42121D01*
X43469Y-42121D01*
X43469Y-40555D01*
X43655Y-40369D01*
X44089Y-40369D01*
X43818Y-40639D01*
X43773Y-40639D01*
X43637Y-40695D01*
X43534Y-40799D01*
X43477Y-40934D01*
X43477Y-41080D01*
X43533Y-41216D01*
X43637Y-41319D01*
X43772Y-41376D01*
X43918Y-41376D01*
X44054Y-41320D01*
X44157Y-41216D01*
X44214Y-41081D01*
X44214Y-41035D01*
X44533Y-40715D01*
X51034Y-40715D01*
X52661Y-42342D01*
X52661Y-43887D01*
X52656Y-43883D01*
X52521Y-43826D01*
X52375Y-43826D01*
X52239Y-43882D01*
X52206Y-43915D01*
X51694Y-43915D01*
X51567Y-43862D01*
X51421Y-43862D01*
X51285Y-43918D01*
X51182Y-44022D01*
X51125Y-44157D01*
X51125Y-44303D01*
X51169Y-44410D01*
X46994Y-44410D01*
X46992Y-44404D01*
X46888Y-44301D01*
X46753Y-44244D01*
X46607Y-44244D01*
X46471Y-44300D01*
X46368Y-44404D01*
X46330Y-44494D01*
X46197Y-44549D01*
X46094Y-44653D01*
X46037Y-44788D01*
X46037Y-44934D01*
X46093Y-45070D01*
X46176Y-45152D01*
X46005Y-45323D01*
X45988Y-45306D01*
X45853Y-45249D01*
X45807Y-45249D01*
X44620Y-44063D01*
X44529Y-44002D01*
X44423Y-43981D01*
X43123Y-43981D01*
X43090Y-43949D01*
X42955Y-43892D01*
X42809Y-43892D01*
X42673Y-43948D01*
X42570Y-44052D01*
X42513Y-44187D01*
X42513Y-44333D01*
X42569Y-44469D01*
X42673Y-44572D01*
X42808Y-44629D01*
X42954Y-44629D01*
X43090Y-44573D01*
X43123Y-44540D01*
X44307Y-44540D01*
X45411Y-45645D01*
X45411Y-45690D01*
X45467Y-45826D01*
X45571Y-45929D01*
X45602Y-45942D01*
X45602Y-46062D01*
X45463Y-46062D01*
X45401Y-46088D01*
X43429Y-46088D01*
X43429Y-45980D01*
X43373Y-45844D01*
X43269Y-45741D01*
X43134Y-45684D01*
X43088Y-45684D01*
X43079Y-45676D01*
X43136Y-45541D01*
X43136Y-45395D01*
X43080Y-45259D01*
X42976Y-45156D01*
X42841Y-45099D01*
X42695Y-45099D01*
X42559Y-45155D01*
X42456Y-45259D01*
X42399Y-45394D01*
X42399Y-45540D01*
X42455Y-45676D01*
X42488Y-45709D01*
X42488Y-45760D01*
X42509Y-45866D01*
X42570Y-45957D01*
X42692Y-46080D01*
X42692Y-46088D01*
X41012Y-46088D01*
X40905Y-46109D01*
X40868Y-46134D01*
X40814Y-46170D01*
X40814Y-46170D01*
X39965Y-47019D01*
X39965Y-41948D01*
X39909Y-41812D01*
X39805Y-41709D01*
X39670Y-41652D01*
X39524Y-41652D01*
X39388Y-41708D01*
X39356Y-41740D01*
X38884Y-41740D01*
X38648Y-41740D01*
X38681Y-41706D01*
X38637Y-41662D01*
X38762Y-41599D01*
X38884Y-41288D01*
X38878Y-40953D01*
X38762Y-40674D01*
X38637Y-40611D01*
X38566Y-40682D01*
X38566Y-40540D01*
X38503Y-40415D01*
X38192Y-40293D01*
X37857Y-40299D01*
X37578Y-40415D01*
X37515Y-40540D01*
X38041Y-41066D01*
X38566Y-40540D01*
X38566Y-40682D01*
X38111Y-41137D01*
X38117Y-41142D01*
X38046Y-41213D01*
X38041Y-41207D01*
X38035Y-41213D01*
X37964Y-41142D01*
X37970Y-41137D01*
X37444Y-40611D01*
X37319Y-40674D01*
X37197Y-40985D01*
X37198Y-41053D01*
X37179Y-41034D01*
X37179Y-39504D01*
X37380Y-39303D01*
X38458Y-39303D01*
X38478Y-39322D01*
X38613Y-39379D01*
X38759Y-39379D01*
X38895Y-39323D01*
X38998Y-39219D01*
X39055Y-39084D01*
X39055Y-38938D01*
X38999Y-38802D01*
X38895Y-38699D01*
X38760Y-38642D01*
X38614Y-38642D01*
X38478Y-38698D01*
X38432Y-38744D01*
X37265Y-38744D01*
X37158Y-38765D01*
X37067Y-38826D01*
X36744Y-39149D01*
X36744Y-38770D01*
X37138Y-38376D01*
X38382Y-38376D01*
X38415Y-38408D01*
X38550Y-38465D01*
X38696Y-38465D01*
X38832Y-38409D01*
X38935Y-38305D01*
X38992Y-38170D01*
X38992Y-38024D01*
X38936Y-37888D01*
X38832Y-37785D01*
X38697Y-37728D01*
X38566Y-37728D01*
X38566Y-36559D01*
X38041Y-36033D01*
X37970Y-36104D01*
X37970Y-35963D01*
X37444Y-35437D01*
X37319Y-35500D01*
X37197Y-35811D01*
X37203Y-36146D01*
X37319Y-36425D01*
X37444Y-36488D01*
X37970Y-35963D01*
X37970Y-36104D01*
X37515Y-36559D01*
X37578Y-36684D01*
X37889Y-36806D01*
X38224Y-36800D01*
X38503Y-36684D01*
X38566Y-36559D01*
X38566Y-37728D01*
X38551Y-37728D01*
X38415Y-37784D01*
X38382Y-37817D01*
X37023Y-37817D01*
X36916Y-37838D01*
X36825Y-37899D01*
X36267Y-38457D01*
X36206Y-38548D01*
X36185Y-38655D01*
X36185Y-40888D01*
X36139Y-40777D01*
X36025Y-40662D01*
X35875Y-40600D01*
X35713Y-40600D01*
X35563Y-40662D01*
X35448Y-40776D01*
X35386Y-40926D01*
X35386Y-41088D01*
X35448Y-41238D01*
X35562Y-41353D01*
X35712Y-41415D01*
X35764Y-41415D01*
X36109Y-41761D01*
X36109Y-44637D01*
X36068Y-44637D01*
X35918Y-44699D01*
X35803Y-44813D01*
X35741Y-44963D01*
X35741Y-45125D01*
X35803Y-45275D01*
X35917Y-45390D01*
X36067Y-45452D01*
X36229Y-45452D01*
X36379Y-45390D01*
X36383Y-45386D01*
X36492Y-45495D01*
X36649Y-45560D01*
X36819Y-45561D01*
X36976Y-45496D01*
X37096Y-45376D01*
X37161Y-45219D01*
X37162Y-45049D01*
X37097Y-44892D01*
X36977Y-44772D01*
X36820Y-44707D01*
X36728Y-44706D01*
X36728Y-41818D01*
X37452Y-42542D01*
X37543Y-42603D01*
X37650Y-42624D01*
X39088Y-42624D01*
X39121Y-42638D01*
X39267Y-42638D01*
X39403Y-42582D01*
X39506Y-42478D01*
X39544Y-42389D01*
X39669Y-42389D01*
X39805Y-42333D01*
X39908Y-42229D01*
X39965Y-42094D01*
X39965Y-41948D01*
X39965Y-47019D01*
X38602Y-48382D01*
X38541Y-48473D01*
X38520Y-48580D01*
X38520Y-49654D01*
X38511Y-49657D01*
X38408Y-49761D01*
X38351Y-49896D01*
X38351Y-50042D01*
X38407Y-50178D01*
X38511Y-50281D01*
X38646Y-50338D01*
X38792Y-50338D01*
X38928Y-50282D01*
X39031Y-50178D01*
X39033Y-50174D01*
X39079Y-50204D01*
X39186Y-50225D01*
X40580Y-50225D01*
X40580Y-50821D01*
X40601Y-50927D01*
X40662Y-51018D01*
X41270Y-51626D01*
X41361Y-51687D01*
X41468Y-51708D01*
X42742Y-51708D01*
X42993Y-51960D01*
X42993Y-52005D01*
X43049Y-52141D01*
X43153Y-52244D01*
X43288Y-52301D01*
X43434Y-52301D01*
X43570Y-52245D01*
X43590Y-52224D01*
X43590Y-52319D01*
X43454Y-52455D01*
X43399Y-52587D01*
X43345Y-52456D01*
X43198Y-52308D01*
X43006Y-52228D01*
X42757Y-51980D01*
X42666Y-51919D01*
X42560Y-51898D01*
X39720Y-51898D01*
X39722Y-51894D01*
X39722Y-51748D01*
X39666Y-51612D01*
X39633Y-51579D01*
X39633Y-51192D01*
X39659Y-51131D01*
X39659Y-50985D01*
X39603Y-50849D01*
X39499Y-50746D01*
X39364Y-50689D01*
X39218Y-50689D01*
X39082Y-50745D01*
X38979Y-50849D01*
X38922Y-50984D01*
X38922Y-51130D01*
X38978Y-51266D01*
X39074Y-51362D01*
X39074Y-51579D01*
X39042Y-51612D01*
X38985Y-51747D01*
X38985Y-51893D01*
X38987Y-51898D01*
X38230Y-51898D01*
X38169Y-51838D01*
X38034Y-51781D01*
X37888Y-51781D01*
X37752Y-51837D01*
X37649Y-51941D01*
X37592Y-52076D01*
X37592Y-52222D01*
X37648Y-52358D01*
X37752Y-52461D01*
X37887Y-52518D01*
X38033Y-52518D01*
X38169Y-52462D01*
X38173Y-52457D01*
X41453Y-52457D01*
X41374Y-52648D01*
X41374Y-52858D01*
X41454Y-53051D01*
X41601Y-53199D01*
X41794Y-53279D01*
X42004Y-53279D01*
X42197Y-53199D01*
X42345Y-53052D01*
X42400Y-52920D01*
X42454Y-53051D01*
X42601Y-53199D01*
X42794Y-53279D01*
X43004Y-53279D01*
X43197Y-53199D01*
X43345Y-53052D01*
X43400Y-52920D01*
X43454Y-53051D01*
X43601Y-53199D01*
X43794Y-53279D01*
X44004Y-53279D01*
X44197Y-53199D01*
X44345Y-53052D01*
X44400Y-52920D01*
X44454Y-53051D01*
X44601Y-53199D01*
X44794Y-53279D01*
X45004Y-53279D01*
X45197Y-53199D01*
X45345Y-53052D01*
X45425Y-52858D01*
X45425Y-52649D01*
X45345Y-52456D01*
X45198Y-52308D01*
X45005Y-52228D01*
X44795Y-52228D01*
X44602Y-52308D01*
X44454Y-52455D01*
X44399Y-52587D01*
X44345Y-52456D01*
X44209Y-52319D01*
X44209Y-51606D01*
X44288Y-51527D01*
X44350Y-51377D01*
X44350Y-51241D01*
X45033Y-51925D01*
X45033Y-51970D01*
X45089Y-52106D01*
X45193Y-52209D01*
X45328Y-52266D01*
X45474Y-52266D01*
X45610Y-52210D01*
X45713Y-52106D01*
X45770Y-51971D01*
X45770Y-51825D01*
X45714Y-51689D01*
X45610Y-51586D01*
X45475Y-51529D01*
X45429Y-51529D01*
X44579Y-50679D01*
X44864Y-50394D01*
X44864Y-50394D01*
X44864Y-50394D01*
X44925Y-50303D01*
X44925Y-50303D01*
X44933Y-50264D01*
X44974Y-50282D01*
X45120Y-50282D01*
X45256Y-50226D01*
X45359Y-50122D01*
X45416Y-49987D01*
X45416Y-49841D01*
X45360Y-49705D01*
X45327Y-49672D01*
X45327Y-48787D01*
X45677Y-48438D01*
X45722Y-48438D01*
X45858Y-48382D01*
X45961Y-48278D01*
X46018Y-48143D01*
X46018Y-47997D01*
X45989Y-47928D01*
X46827Y-47928D01*
X46827Y-48033D01*
X46883Y-48169D01*
X46907Y-48193D01*
X46907Y-48295D01*
X46875Y-48328D01*
X46818Y-48463D01*
X46818Y-48609D01*
X46874Y-48745D01*
X46978Y-48848D01*
X47113Y-48905D01*
X47259Y-48905D01*
X47395Y-48849D01*
X47498Y-48745D01*
X47555Y-48610D01*
X47555Y-48464D01*
X47499Y-48328D01*
X47466Y-48295D01*
X47466Y-48211D01*
X47507Y-48169D01*
X47564Y-48034D01*
X47564Y-47928D01*
X49969Y-47928D01*
X51013Y-48972D01*
X50964Y-49020D01*
X50902Y-49170D01*
X50902Y-49332D01*
X50964Y-49482D01*
X51078Y-49597D01*
X51228Y-49659D01*
X51280Y-49659D01*
X51420Y-49800D01*
X51420Y-50695D01*
X51444Y-50813D01*
X51511Y-50913D01*
X51548Y-50951D01*
X51548Y-51680D01*
X51078Y-51680D01*
X51078Y-50197D01*
X51022Y-50061D01*
X50918Y-49958D01*
X50783Y-49901D01*
X50737Y-49901D01*
X50599Y-49764D01*
X50508Y-49703D01*
X50402Y-49682D01*
X50048Y-49682D01*
X49950Y-49584D01*
X49815Y-49527D01*
X49669Y-49527D01*
X49533Y-49583D01*
X49430Y-49687D01*
X49373Y-49822D01*
X49373Y-49968D01*
X49429Y-50104D01*
X49533Y-50207D01*
X49668Y-50264D01*
X49814Y-50264D01*
X49869Y-50241D01*
X50286Y-50241D01*
X50341Y-50297D01*
X50341Y-50342D01*
X50397Y-50478D01*
X50501Y-50581D01*
X50636Y-50638D01*
X50782Y-50638D01*
X50918Y-50582D01*
X51021Y-50478D01*
X51078Y-50343D01*
X51078Y-50197D01*
X51078Y-51680D01*
X49782Y-51680D01*
X49663Y-51704D01*
X49563Y-51771D01*
X48371Y-52963D01*
X48304Y-53063D01*
X48280Y-53182D01*
X48280Y-54593D01*
X48177Y-54490D01*
X48135Y-54389D01*
X48021Y-54274D01*
X47871Y-54212D01*
X47709Y-54212D01*
X47559Y-54274D01*
X47444Y-54388D01*
X47382Y-54538D01*
X47382Y-54700D01*
X47444Y-54850D01*
X47558Y-54965D01*
X47708Y-55027D01*
X47840Y-55027D01*
X48182Y-55369D01*
X48182Y-55420D01*
X48244Y-55570D01*
X48358Y-55685D01*
X48508Y-55747D01*
X48670Y-55747D01*
X48820Y-55685D01*
X48857Y-55649D01*
X49642Y-55649D01*
X49648Y-55655D01*
X49798Y-55717D01*
X49960Y-55717D01*
X50110Y-55655D01*
X50225Y-55541D01*
X50287Y-55391D01*
X50287Y-55229D01*
X50225Y-55079D01*
X50111Y-54964D01*
X49961Y-54902D01*
X49799Y-54902D01*
X49649Y-54964D01*
X49582Y-55030D01*
X48899Y-55030D01*
X48899Y-53310D01*
X49910Y-52299D01*
X51858Y-52299D01*
X54356Y-52299D01*
X54356Y-53894D01*
X54320Y-53930D01*
X54258Y-54080D01*
X54258Y-54242D01*
X54320Y-54392D01*
X54434Y-54507D01*
X54584Y-54569D01*
X54746Y-54569D01*
X54896Y-54507D01*
X55011Y-54393D01*
X55073Y-54243D01*
X55073Y-54081D01*
X55011Y-53931D01*
X54975Y-53894D01*
X54975Y-52375D01*
X55070Y-52335D01*
X55185Y-52221D01*
X55247Y-52071D01*
X55247Y-51909D01*
X55185Y-51759D01*
X55071Y-51644D01*
X54921Y-51582D01*
X54759Y-51582D01*
X54609Y-51644D01*
X54572Y-51680D01*
X52167Y-51680D01*
X52167Y-50823D01*
X52143Y-50704D01*
X52143Y-50704D01*
X52076Y-50604D01*
X52039Y-50566D01*
X52039Y-49998D01*
X52148Y-50107D01*
X52148Y-50107D01*
X52202Y-50143D01*
X52239Y-50168D01*
X52239Y-50168D01*
X52346Y-50189D01*
X57555Y-50189D01*
X57555Y-50225D01*
X57611Y-50361D01*
X57644Y-50394D01*
X57644Y-52764D01*
X57665Y-52870D01*
X57726Y-52961D01*
X58806Y-54042D01*
X58806Y-54087D01*
X58862Y-54223D01*
X58966Y-54326D01*
X59101Y-54383D01*
X59247Y-54383D01*
X59383Y-54327D01*
X59486Y-54223D01*
X59505Y-54179D01*
X59571Y-54179D01*
X59707Y-54123D01*
X59810Y-54019D01*
X59867Y-53884D01*
X59867Y-53738D01*
X59811Y-53602D01*
X59707Y-53499D01*
X59572Y-53442D01*
X59426Y-53442D01*
X59318Y-53487D01*
X58437Y-52606D01*
X58437Y-50758D01*
X58469Y-50725D01*
X58526Y-50590D01*
X58526Y-50528D01*
X59071Y-51073D01*
X59071Y-51073D01*
X59162Y-51134D01*
X59162Y-51134D01*
X59247Y-51151D01*
X59268Y-51155D01*
X59268Y-51155D01*
X59269Y-51155D01*
X60857Y-51155D01*
X60857Y-51196D01*
X60893Y-51282D01*
X60871Y-51335D01*
X60769Y-51377D01*
X60666Y-51481D01*
X60609Y-51616D01*
X60609Y-51762D01*
X60665Y-51898D01*
X60707Y-51940D01*
X60633Y-52015D01*
X60576Y-52150D01*
X60576Y-52296D01*
X60632Y-52432D01*
X60736Y-52535D01*
X60871Y-52592D01*
X61017Y-52592D01*
X61153Y-52536D01*
X61213Y-52476D01*
X62541Y-52476D01*
X62526Y-52510D01*
X62526Y-52558D01*
X62525Y-52558D01*
X62422Y-52662D01*
X62365Y-52797D01*
X62365Y-52943D01*
X62421Y-53079D01*
X62525Y-53182D01*
X62660Y-53239D01*
X62806Y-53239D01*
X62942Y-53183D01*
X62975Y-53150D01*
X65201Y-53150D01*
X65220Y-53168D01*
X65355Y-53225D01*
X65501Y-53225D01*
X65637Y-53169D01*
X65740Y-53065D01*
X65756Y-53027D01*
X65787Y-53057D01*
X65787Y-53057D01*
X65878Y-53118D01*
X65878Y-53118D01*
X65963Y-53135D01*
X65984Y-53139D01*
X65984Y-53139D01*
X65985Y-53139D01*
X69913Y-53139D01*
X69946Y-53171D01*
X70081Y-53228D01*
X70104Y-53228D01*
X70015Y-53316D01*
X69970Y-53316D01*
X69834Y-53372D01*
X69731Y-53476D01*
X69674Y-53611D01*
X69674Y-53757D01*
X69730Y-53893D01*
X69834Y-53996D01*
X69969Y-54053D01*
X70115Y-54053D01*
X70214Y-54012D01*
X70232Y-54029D01*
X70367Y-54086D01*
X70513Y-54086D01*
X70649Y-54030D01*
X70752Y-53926D01*
X70809Y-53791D01*
X70809Y-53738D01*
X71882Y-52664D01*
X71882Y-52664D01*
X71882Y-52664D01*
X71943Y-52573D01*
X71944Y-52568D01*
X72063Y-52618D01*
X72299Y-52618D01*
X72518Y-52528D01*
X72685Y-52361D01*
X72776Y-52142D01*
X72776Y-51906D01*
X72686Y-51687D01*
X72519Y-51520D01*
X72300Y-51429D01*
X72064Y-51429D01*
X71964Y-51470D01*
X71964Y-50978D01*
X71976Y-50978D01*
X72112Y-50922D01*
X72215Y-50818D01*
X72272Y-50683D01*
X72272Y-50650D01*
X72272Y-50650D01*
X72330Y-50562D01*
X72330Y-50562D01*
X72347Y-50477D01*
X72351Y-50456D01*
X72351Y-50456D01*
X72351Y-50456D01*
X72351Y-49932D01*
X72421Y-50003D01*
X72571Y-50065D01*
X72577Y-50199D01*
X72647Y-50370D01*
X72747Y-50403D01*
X73095Y-50056D01*
X73089Y-50050D01*
X73160Y-49979D01*
X73166Y-49985D01*
X73171Y-49979D01*
X73242Y-50050D01*
X73236Y-50056D01*
X73584Y-50403D01*
X73684Y-50370D01*
X73765Y-50148D01*
X73754Y-49912D01*
X73684Y-49741D01*
X73584Y-49708D01*
X73626Y-49666D01*
X73848Y-49666D01*
X73848Y-50668D01*
X73872Y-50786D01*
X73939Y-50886D01*
X74407Y-51354D01*
X74288Y-51354D01*
X74152Y-51410D01*
X74073Y-51489D01*
X73934Y-51489D01*
X73924Y-51493D01*
X73918Y-51488D01*
X73783Y-51431D01*
X73765Y-51431D01*
X73637Y-51431D01*
X73513Y-51482D01*
X73513Y-50474D01*
X73166Y-50126D01*
X72818Y-50474D01*
X72851Y-50574D01*
X73073Y-50655D01*
X73309Y-50644D01*
X73480Y-50574D01*
X73513Y-50474D01*
X73513Y-51482D01*
X73501Y-51487D01*
X73398Y-51591D01*
X73341Y-51726D01*
X73341Y-51772D01*
X73302Y-51812D01*
X73241Y-51903D01*
X73220Y-52010D01*
X73220Y-52678D01*
X73188Y-52711D01*
X73131Y-52846D01*
X73131Y-52992D01*
X73187Y-53128D01*
X73291Y-53231D01*
X73426Y-53288D01*
X73572Y-53288D01*
X73708Y-53232D01*
X73723Y-53217D01*
X73772Y-53238D01*
X73918Y-53238D01*
X74054Y-53182D01*
X74157Y-53078D01*
X74214Y-52943D01*
X74214Y-52913D01*
X74226Y-52925D01*
X74361Y-52982D01*
X74507Y-52982D01*
X74578Y-52952D01*
X74578Y-54585D01*
X74228Y-54936D01*
X74167Y-54876D01*
X74067Y-54809D01*
X73949Y-54785D01*
X69312Y-54785D01*
X69276Y-54749D01*
X69126Y-54687D01*
X69074Y-54687D01*
X67943Y-53556D01*
X67843Y-53489D01*
X67725Y-53465D01*
X67152Y-53465D01*
X67116Y-53429D01*
X66966Y-53367D01*
X66804Y-53367D01*
X66654Y-53429D01*
X66539Y-53543D01*
X66477Y-53693D01*
X66477Y-53855D01*
X66539Y-54005D01*
X66653Y-54120D01*
X66803Y-54182D01*
X66965Y-54182D01*
X67115Y-54120D01*
X67152Y-54084D01*
X67596Y-54084D01*
X68637Y-55124D01*
X68637Y-55175D01*
X68699Y-55325D01*
X68813Y-55440D01*
X68963Y-55502D01*
X69125Y-55502D01*
X69275Y-55440D01*
X69312Y-55404D01*
X73820Y-55404D01*
X73820Y-55454D01*
X73882Y-55604D01*
X73996Y-55719D01*
X74146Y-55781D01*
X74308Y-55781D01*
X74458Y-55719D01*
X74573Y-55605D01*
X74635Y-55455D01*
X74635Y-55403D01*
X75106Y-54932D01*
X75106Y-54932D01*
X75106Y-54932D01*
X75173Y-54832D01*
X75173Y-54832D01*
X75197Y-54714D01*
X75197Y-51398D01*
X75197Y-51397D01*
X75197Y-51397D01*
X75192Y-51374D01*
X75173Y-51279D01*
X75173Y-51279D01*
X75106Y-51179D01*
X75106Y-51179D01*
X74467Y-50539D01*
X74467Y-49624D01*
X74503Y-49588D01*
X74565Y-49438D01*
X74565Y-49276D01*
X74503Y-49126D01*
X74389Y-49011D01*
X74239Y-48949D01*
X74077Y-48949D01*
X73927Y-49011D01*
X73890Y-49047D01*
X72954Y-49047D01*
X72953Y-49047D01*
X72930Y-49052D01*
X72835Y-49071D01*
X72735Y-49138D01*
X72735Y-49138D01*
X72623Y-49250D01*
X72572Y-49250D01*
X72422Y-49312D01*
X72351Y-49383D01*
X72351Y-47582D01*
X72379Y-47571D01*
X72482Y-47467D01*
X72539Y-47332D01*
X72539Y-47268D01*
X73146Y-47268D01*
X73252Y-47247D01*
X73343Y-47186D01*
X73975Y-46554D01*
X73975Y-46554D01*
X73975Y-46554D01*
X74036Y-46463D01*
X74036Y-46463D01*
X74053Y-46378D01*
X74057Y-46357D01*
X74057Y-46357D01*
X74057Y-46357D01*
X74057Y-44221D01*
X74141Y-44137D01*
X74202Y-44046D01*
X74223Y-43940D01*
X74223Y-43226D01*
X74258Y-43143D01*
X74258Y-42997D01*
X74202Y-42861D01*
X74098Y-42758D01*
X73963Y-42701D01*
X73817Y-42701D01*
X73681Y-42757D01*
X73578Y-42861D01*
X73521Y-42996D01*
X73521Y-43142D01*
X73523Y-43147D01*
X73420Y-43189D01*
X73317Y-43293D01*
X73260Y-43428D01*
X73260Y-43574D01*
X73316Y-43710D01*
X73349Y-43743D01*
X73349Y-46205D01*
X72994Y-46560D01*
X72553Y-46560D01*
X72553Y-46520D01*
X72497Y-46384D01*
X72464Y-46351D01*
X72464Y-42183D01*
X72443Y-42076D01*
X72382Y-41985D01*
X72382Y-41985D01*
X69125Y-38728D01*
X69197Y-38656D01*
X69254Y-38521D01*
X69254Y-38475D01*
X69754Y-37974D01*
X71123Y-37974D01*
X71067Y-38108D01*
X71067Y-38270D01*
X71129Y-38420D01*
X71165Y-38457D01*
X71165Y-38571D01*
X71159Y-38571D01*
X71023Y-38627D01*
X70920Y-38731D01*
X70863Y-38866D01*
X70863Y-39012D01*
X70919Y-39148D01*
X70952Y-39181D01*
X70952Y-39646D01*
X70929Y-39670D01*
X70872Y-39805D01*
X70872Y-39951D01*
X70928Y-40087D01*
X71032Y-40190D01*
X71167Y-40247D01*
X71298Y-40247D01*
X71324Y-40310D01*
X71438Y-40425D01*
X71588Y-40487D01*
X71750Y-40487D01*
X71900Y-40425D01*
X71937Y-40389D01*
X73851Y-40389D01*
X73874Y-40445D01*
X73988Y-40560D01*
X74138Y-40622D01*
X74300Y-40622D01*
X74450Y-40560D01*
X74565Y-40446D01*
X74627Y-40296D01*
X74627Y-40134D01*
X74565Y-39984D01*
X74451Y-39869D01*
X74301Y-39807D01*
X74222Y-39807D01*
X74203Y-39794D01*
X74085Y-39770D01*
X71937Y-39770D01*
X71901Y-39734D01*
X71784Y-39686D01*
X71784Y-38457D01*
X71820Y-38421D01*
X71882Y-38271D01*
X71882Y-38109D01*
X71820Y-37959D01*
X71818Y-37956D01*
X71836Y-37953D01*
X71927Y-37892D01*
X72475Y-37344D01*
X72754Y-37344D01*
X72759Y-37348D01*
X72894Y-37405D01*
X72990Y-37405D01*
X72990Y-38363D01*
X72908Y-38446D01*
X72851Y-38581D01*
X72851Y-38727D01*
X72907Y-38863D01*
X73011Y-38966D01*
X73146Y-39023D01*
X73180Y-39023D01*
X73180Y-39027D01*
X73236Y-39163D01*
X73340Y-39266D01*
X73475Y-39323D01*
X73621Y-39323D01*
X73757Y-39267D01*
X73860Y-39163D01*
X73917Y-39028D01*
X73917Y-38882D01*
X73863Y-38752D01*
X73863Y-37400D01*
X73876Y-37406D01*
X74022Y-37406D01*
X74158Y-37350D01*
X74191Y-37317D01*
X75195Y-37317D01*
X75301Y-37296D01*
X75392Y-37235D01*
X76021Y-36606D01*
X76059Y-36632D01*
X76270Y-36674D01*
X76480Y-36632D01*
X76658Y-36513D01*
X76770Y-36346D01*
X76881Y-36513D01*
X77059Y-36632D01*
X77270Y-36674D01*
X77480Y-36632D01*
X77544Y-36589D01*
X78880Y-37926D01*
X78774Y-37881D01*
X78628Y-37881D01*
X78497Y-37935D01*
X78454Y-37917D01*
X78308Y-37917D01*
X78172Y-37973D01*
X78162Y-37983D01*
X78076Y-37947D01*
X77930Y-37947D01*
X77811Y-37996D01*
X77698Y-37949D01*
X77552Y-37949D01*
X77427Y-38001D01*
X77333Y-37961D01*
X77187Y-37961D01*
X77051Y-38017D01*
X77048Y-38021D01*
X76961Y-37984D01*
X76815Y-37984D01*
X76679Y-38040D01*
X76674Y-38045D01*
X76593Y-38011D01*
X76447Y-38011D01*
X76311Y-38067D01*
X76208Y-38171D01*
X76151Y-38306D01*
X76151Y-38452D01*
X76207Y-38588D01*
X76311Y-38691D01*
X76446Y-38748D01*
X76492Y-38748D01*
X77080Y-39335D01*
X77080Y-47453D01*
X77101Y-47559D01*
X77162Y-47650D01*
X78309Y-48798D01*
X78309Y-48843D01*
X78365Y-48979D01*
X78469Y-49082D01*
X78604Y-49139D01*
X78750Y-49139D01*
X78886Y-49083D01*
X78989Y-48979D01*
X79046Y-48844D01*
X79046Y-48698D01*
X78990Y-48562D01*
X78886Y-48459D01*
X78751Y-48402D01*
X78705Y-48402D01*
X77639Y-47337D01*
X77639Y-46783D01*
X78321Y-47466D01*
X78321Y-47511D01*
X78377Y-47647D01*
X78481Y-47750D01*
X78616Y-47807D01*
X78762Y-47807D01*
X78898Y-47751D01*
X79001Y-47647D01*
X79058Y-47512D01*
X79058Y-47366D01*
X79002Y-47230D01*
X78898Y-47127D01*
X78763Y-47070D01*
X78717Y-47070D01*
X77859Y-46213D01*
X77859Y-45627D01*
X78318Y-46087D01*
X78318Y-46132D01*
X78374Y-46268D01*
X78478Y-46371D01*
X78613Y-46428D01*
X78759Y-46428D01*
X78895Y-46372D01*
X78998Y-46268D01*
X79055Y-46133D01*
X79055Y-45987D01*
X78999Y-45851D01*
X78895Y-45748D01*
X78760Y-45691D01*
X78714Y-45691D01*
X78084Y-45062D01*
X78084Y-44225D01*
X78314Y-44456D01*
X78314Y-44501D01*
X78370Y-44637D01*
X78474Y-44740D01*
X78609Y-44797D01*
X78755Y-44797D01*
X78891Y-44741D01*
X78994Y-44637D01*
X79051Y-44502D01*
X79051Y-44356D01*
X78995Y-44220D01*
X78891Y-44117D01*
X78756Y-44060D01*
X78710Y-44060D01*
X78339Y-43690D01*
X78339Y-42950D01*
X78379Y-43048D01*
X78483Y-43151D01*
X78618Y-43208D01*
X78764Y-43208D01*
X78900Y-43152D01*
X79003Y-43048D01*
X79060Y-42913D01*
X79060Y-42767D01*
X79004Y-42631D01*
X78900Y-42528D01*
X78765Y-42471D01*
X78719Y-42471D01*
X78546Y-42299D01*
X78546Y-41610D01*
X78636Y-41648D01*
X78782Y-41648D01*
X78918Y-41592D01*
X79021Y-41488D01*
X79078Y-41353D01*
X79078Y-41207D01*
X79022Y-41071D01*
X78918Y-40968D01*
X78783Y-40911D01*
X78737Y-40911D01*
X78719Y-40894D01*
X78719Y-40418D01*
X78792Y-40418D01*
X78928Y-40362D01*
X79031Y-40258D01*
X79088Y-40123D01*
X79088Y-39977D01*
X79032Y-39841D01*
X78980Y-39789D01*
X78980Y-38491D01*
X79012Y-38458D01*
X79069Y-38323D01*
X79069Y-38177D01*
X79025Y-38070D01*
X80190Y-39235D01*
X80190Y-50869D01*
X80155Y-50835D01*
X80020Y-50778D01*
X79874Y-50778D01*
X79738Y-50834D01*
X79705Y-50867D01*
X79198Y-50867D01*
X79168Y-50838D01*
X79033Y-50781D01*
X78887Y-50781D01*
X78751Y-50837D01*
X78648Y-50941D01*
X78591Y-51076D01*
X78591Y-51222D01*
X78647Y-51358D01*
X78751Y-51461D01*
X78886Y-51518D01*
X79032Y-51518D01*
X79168Y-51462D01*
X79204Y-51426D01*
X79705Y-51426D01*
X79729Y-51450D01*
X79672Y-51461D01*
X79581Y-51522D01*
X78898Y-52205D01*
X78175Y-52205D01*
X78065Y-52094D01*
X78065Y-52049D01*
X78009Y-51913D01*
X77905Y-51810D01*
X77770Y-51753D01*
X77624Y-51753D01*
X77488Y-51809D01*
X77385Y-51913D01*
X77328Y-52048D01*
X77328Y-52194D01*
X77384Y-52330D01*
X77488Y-52433D01*
X77623Y-52490D01*
X77669Y-52490D01*
X77862Y-52682D01*
X77953Y-52743D01*
X78060Y-52764D01*
X78591Y-52764D01*
X78490Y-52865D01*
X77741Y-52865D01*
X77716Y-52854D01*
X77570Y-52854D01*
X77434Y-52910D01*
X77331Y-53014D01*
X77274Y-53149D01*
X77274Y-53295D01*
X77330Y-53431D01*
X77434Y-53534D01*
X77569Y-53591D01*
X77715Y-53591D01*
X77851Y-53535D01*
X77954Y-53431D01*
X77957Y-53424D01*
X78440Y-53424D01*
X78440Y-53474D01*
X78254Y-53660D01*
X77496Y-53660D01*
X77389Y-53681D01*
X77382Y-53685D01*
X77382Y-53685D01*
X77309Y-53685D01*
X77173Y-53741D01*
X77070Y-53845D01*
X77013Y-53980D01*
X77013Y-54126D01*
X77069Y-54262D01*
X77173Y-54365D01*
X77308Y-54422D01*
X77454Y-54422D01*
X77590Y-54366D01*
X77693Y-54262D01*
X77711Y-54219D01*
X78370Y-54219D01*
X78476Y-54198D01*
X78567Y-54137D01*
X78917Y-53787D01*
X78917Y-53787D01*
X78917Y-53787D01*
X78978Y-53696D01*
X78978Y-53696D01*
X78995Y-53611D01*
X78999Y-53590D01*
X78999Y-53590D01*
X78999Y-53590D01*
X78999Y-53531D01*
X79041Y-53549D01*
X79187Y-53549D01*
X79323Y-53493D01*
X79426Y-53389D01*
X79483Y-53254D01*
X79483Y-53208D01*
X79632Y-53058D01*
X79644Y-53069D01*
X79779Y-53126D01*
X79925Y-53126D01*
X80061Y-53070D01*
X80164Y-52966D01*
X80221Y-52831D01*
X80221Y-52685D01*
X80165Y-52549D01*
X80061Y-52446D01*
X79989Y-52416D01*
X80015Y-52389D01*
X80400Y-52389D01*
X80506Y-52368D01*
X80597Y-52307D01*
X80828Y-52076D01*
X80828Y-52788D01*
X80849Y-52894D01*
X80910Y-52985D01*
X81051Y-53127D01*
X81051Y-53172D01*
X81107Y-53308D01*
X81211Y-53411D01*
X81346Y-53468D01*
X81492Y-53468D01*
X81628Y-53412D01*
X81731Y-53308D01*
X81788Y-53173D01*
X81788Y-53027D01*
X81732Y-52891D01*
X81628Y-52788D01*
X81493Y-52731D01*
X81447Y-52731D01*
X81387Y-52672D01*
X81387Y-52148D01*
X81507Y-52148D01*
X81643Y-52092D01*
X81746Y-51988D01*
X81803Y-51853D01*
X81803Y-51707D01*
X81747Y-51571D01*
X81643Y-51468D01*
X81549Y-51428D01*
X81549Y-36586D01*
X81658Y-36513D01*
X81778Y-36334D01*
X81820Y-36124D01*
X81820Y-57369D01*
X81690Y-57056D01*
X81395Y-56760D01*
X81009Y-56600D01*
X80592Y-56599D01*
X80206Y-56759D01*
X79910Y-57054D01*
X79750Y-57440D01*
X79749Y-57857D01*
X79909Y-58244D01*
X80095Y-58430D01*
X57750Y-58430D01*
X57750Y-53543D01*
X57694Y-53407D01*
X57590Y-53304D01*
X57470Y-53253D01*
X57470Y-53150D01*
X57414Y-53014D01*
X57310Y-52911D01*
X57175Y-52854D01*
X57123Y-52854D01*
X57111Y-52824D01*
X57007Y-52721D01*
X56872Y-52664D01*
X56726Y-52664D01*
X56693Y-52678D01*
X56693Y-50942D01*
X56637Y-50806D01*
X56533Y-50703D01*
X56398Y-50646D01*
X56252Y-50646D01*
X56116Y-50702D01*
X56013Y-50806D01*
X55956Y-50941D01*
X55956Y-51087D01*
X56012Y-51223D01*
X56030Y-51240D01*
X56030Y-51613D01*
X55998Y-51646D01*
X55941Y-51781D01*
X55941Y-51927D01*
X55997Y-52063D01*
X56101Y-52166D01*
X56236Y-52223D01*
X56382Y-52223D01*
X56518Y-52167D01*
X56621Y-52063D01*
X56678Y-51928D01*
X56678Y-51782D01*
X56622Y-51646D01*
X56589Y-51613D01*
X56589Y-51271D01*
X56636Y-51223D01*
X56693Y-51088D01*
X56693Y-50942D01*
X56693Y-52678D01*
X56590Y-52720D01*
X56557Y-52753D01*
X56267Y-52753D01*
X56229Y-52716D01*
X56094Y-52659D01*
X55948Y-52659D01*
X55812Y-52715D01*
X55709Y-52819D01*
X55652Y-52954D01*
X55652Y-53100D01*
X55691Y-53194D01*
X55674Y-53233D01*
X55674Y-53379D01*
X55708Y-53461D01*
X55679Y-53530D01*
X55679Y-53676D01*
X55707Y-53744D01*
X55677Y-53815D01*
X55677Y-53961D01*
X55733Y-54097D01*
X55837Y-54200D01*
X55972Y-54257D01*
X56118Y-54257D01*
X56254Y-54201D01*
X56324Y-54131D01*
X57146Y-54131D01*
X57252Y-54110D01*
X57343Y-54049D01*
X57409Y-53984D01*
X57454Y-53984D01*
X57590Y-53928D01*
X57693Y-53824D01*
X57750Y-53689D01*
X57750Y-53543D01*
X57750Y-58430D01*
X46947Y-58430D01*
X46947Y-55176D01*
X46939Y-54881D01*
X46841Y-54645D01*
X46726Y-54594D01*
X46655Y-54665D01*
X46655Y-54524D01*
X46604Y-54409D01*
X46328Y-54303D01*
X46033Y-54311D01*
X45797Y-54409D01*
X45746Y-54524D01*
X46201Y-54978D01*
X46655Y-54524D01*
X46655Y-54665D01*
X46271Y-55049D01*
X46726Y-55503D01*
X46841Y-55452D01*
X46947Y-55176D01*
X46947Y-58430D01*
X46655Y-58430D01*
X46655Y-55574D01*
X46201Y-55119D01*
X46195Y-55125D01*
X46124Y-55054D01*
X46130Y-55049D01*
X45676Y-54594D01*
X45560Y-54645D01*
X45455Y-54921D01*
X45463Y-55216D01*
X45522Y-55360D01*
X45223Y-55360D01*
X44925Y-55483D01*
X44925Y-53649D01*
X44845Y-53456D01*
X44698Y-53308D01*
X44505Y-53228D01*
X44295Y-53228D01*
X44102Y-53308D01*
X43954Y-53455D01*
X43899Y-53587D01*
X43845Y-53456D01*
X43698Y-53308D01*
X43505Y-53228D01*
X43295Y-53228D01*
X43102Y-53308D01*
X42954Y-53455D01*
X42899Y-53587D01*
X42845Y-53456D01*
X42698Y-53308D01*
X42505Y-53228D01*
X42295Y-53228D01*
X42102Y-53308D01*
X41954Y-53455D01*
X41899Y-53587D01*
X41845Y-53456D01*
X41698Y-53308D01*
X41505Y-53228D01*
X41295Y-53228D01*
X41102Y-53308D01*
X40954Y-53455D01*
X40874Y-53648D01*
X40874Y-53858D01*
X40954Y-54051D01*
X41101Y-54199D01*
X41294Y-54279D01*
X41504Y-54279D01*
X41697Y-54199D01*
X41845Y-54052D01*
X41900Y-53920D01*
X41954Y-54051D01*
X42101Y-54199D01*
X42294Y-54279D01*
X42504Y-54279D01*
X42697Y-54199D01*
X42845Y-54052D01*
X42900Y-53920D01*
X42954Y-54051D01*
X43101Y-54199D01*
X43294Y-54279D01*
X43504Y-54279D01*
X43697Y-54199D01*
X43845Y-54052D01*
X43900Y-53920D01*
X43954Y-54051D01*
X44101Y-54199D01*
X44294Y-54279D01*
X44504Y-54279D01*
X44697Y-54199D01*
X44845Y-54052D01*
X44925Y-53858D01*
X44925Y-53649D01*
X44925Y-55483D01*
X44896Y-55495D01*
X44646Y-55745D01*
X44510Y-56072D01*
X44510Y-56426D01*
X44645Y-56753D01*
X44895Y-57003D01*
X45222Y-57139D01*
X45576Y-57139D01*
X45903Y-57004D01*
X46153Y-56754D01*
X46289Y-56427D01*
X46289Y-56073D01*
X46173Y-55792D01*
X46368Y-55787D01*
X46604Y-55689D01*
X46655Y-55574D01*
X46655Y-58430D01*
X46195Y-58430D01*
X46195Y-57712D01*
X46112Y-57511D01*
X45959Y-57358D01*
X45758Y-57274D01*
X45542Y-57274D01*
X45341Y-57357D01*
X45188Y-57510D01*
X45144Y-57614D01*
X45102Y-57511D01*
X44949Y-57358D01*
X44748Y-57274D01*
X44532Y-57274D01*
X44331Y-57357D01*
X44178Y-57510D01*
X44094Y-57711D01*
X44094Y-57927D01*
X44177Y-58128D01*
X44330Y-58281D01*
X44531Y-58365D01*
X44747Y-58365D01*
X44948Y-58282D01*
X45101Y-58129D01*
X45145Y-58025D01*
X45187Y-58128D01*
X45340Y-58281D01*
X45541Y-58365D01*
X45757Y-58365D01*
X45958Y-58282D01*
X46111Y-58129D01*
X46195Y-57928D01*
X46195Y-57712D01*
X46195Y-58430D01*
X42195Y-58430D01*
X42195Y-57712D01*
X42112Y-57511D01*
X41959Y-57358D01*
X41789Y-57287D01*
X41789Y-56073D01*
X41654Y-55746D01*
X41404Y-55496D01*
X41077Y-55360D01*
X40774Y-55360D01*
X40844Y-55176D01*
X40836Y-54881D01*
X40739Y-54645D01*
X40623Y-54594D01*
X40553Y-54665D01*
X40553Y-54524D01*
X40502Y-54409D01*
X40226Y-54303D01*
X39931Y-54311D01*
X39695Y-54409D01*
X39644Y-54524D01*
X40098Y-54978D01*
X40553Y-54524D01*
X40553Y-54665D01*
X40169Y-55049D01*
X40175Y-55054D01*
X40104Y-55125D01*
X40098Y-55119D01*
X40028Y-55190D01*
X40028Y-55049D01*
X39573Y-54594D01*
X39458Y-54645D01*
X39352Y-54921D01*
X39360Y-55216D01*
X39458Y-55452D01*
X39573Y-55503D01*
X40028Y-55049D01*
X40028Y-55190D01*
X39644Y-55574D01*
X39695Y-55689D01*
X39971Y-55795D01*
X40127Y-55790D01*
X40010Y-56072D01*
X40010Y-56426D01*
X40145Y-56753D01*
X40395Y-57003D01*
X40722Y-57139D01*
X41076Y-57139D01*
X41403Y-57004D01*
X41653Y-56754D01*
X41789Y-56427D01*
X41789Y-56073D01*
X41789Y-57287D01*
X41758Y-57274D01*
X41542Y-57274D01*
X41341Y-57357D01*
X41188Y-57510D01*
X41155Y-57590D01*
X41122Y-57511D01*
X40969Y-57358D01*
X40768Y-57274D01*
X40552Y-57274D01*
X40351Y-57357D01*
X40198Y-57510D01*
X40114Y-57711D01*
X40114Y-57927D01*
X40197Y-58128D01*
X40350Y-58281D01*
X40551Y-58365D01*
X40767Y-58365D01*
X40968Y-58282D01*
X41121Y-58129D01*
X41154Y-58049D01*
X41187Y-58128D01*
X41340Y-58281D01*
X41541Y-58365D01*
X41757Y-58365D01*
X41958Y-58282D01*
X42111Y-58129D01*
X42195Y-57928D01*
X42195Y-57712D01*
X42195Y-58430D01*
X37162Y-58430D01*
X37162Y-46781D01*
X37097Y-46624D01*
X36977Y-46504D01*
X36820Y-46439D01*
X36650Y-46438D01*
X36493Y-46503D01*
X36373Y-46623D01*
X36308Y-46780D01*
X36307Y-46950D01*
X36372Y-47107D01*
X36492Y-47227D01*
X36649Y-47292D01*
X36819Y-47293D01*
X36976Y-47228D01*
X37096Y-47108D01*
X37161Y-46951D01*
X37162Y-46781D01*
X37162Y-58430D01*
X36604Y-58430D01*
X36789Y-58245D01*
X36949Y-57859D01*
X36950Y-57442D01*
X36790Y-57056D01*
X36495Y-56760D01*
X36109Y-56600D01*
X35692Y-56599D01*
X35306Y-56759D01*
X35010Y-57054D01*
X34919Y-57272D01*
X34919Y-20627D01*
X35009Y-20844D01*
X35304Y-21139D01*
X35690Y-21299D01*
X36107Y-21300D01*
X36494Y-21140D01*
X36789Y-20845D01*
X36949Y-20459D01*
X36950Y-20042D01*
X36790Y-19656D01*
X36600Y-19465D01*
X46428Y-19465D01*
X46408Y-19527D01*
X46756Y-19875D01*
X47103Y-19527D01*
X47083Y-19465D01*
X51084Y-19465D01*
X50826Y-19572D01*
X50561Y-19836D01*
X50418Y-20181D01*
X50418Y-20554D01*
X50560Y-20900D01*
X50824Y-21164D01*
X51169Y-21307D01*
X51543Y-21308D01*
X51888Y-21165D01*
X52153Y-20901D01*
X52296Y-20556D01*
X52296Y-20182D01*
X52153Y-19837D01*
X51890Y-19573D01*
X51630Y-19465D01*
X80099Y-19465D01*
X79910Y-19654D01*
X79750Y-20040D01*
X79749Y-20457D01*
X79909Y-20844D01*
X80204Y-21139D01*
X80590Y-21299D01*
X81007Y-21300D01*
X81394Y-21140D01*
X81689Y-20845D01*
X81830Y-20506D01*
X81830Y-32191D01*
X81575Y-31935D01*
X81230Y-31792D01*
X80856Y-31791D01*
X80511Y-31934D01*
X80246Y-32198D01*
X80103Y-32543D01*
X80103Y-32917D01*
X80246Y-33262D01*
X80509Y-33526D01*
X80854Y-33669D01*
X81228Y-33670D01*
X81573Y-33527D01*
X81830Y-33271D01*
X81830Y-57393D01*
M02*
