M48
;DRILL file {Pcbnew (2013-07-07 BZR 4022)-stable} date 03/02/2018 19:35:19
;FORMAT={-:-/ absolute / inch / decimal}
FMAT,2
INCH,TZ
T1C0.008
T2C0.016
T3C0.035
T4C0.035
T5C0.039
T6C0.039
T7C0.063
T8C0.079
T9C0.120
%
G90
G05
M72
T1
X3.6321Y-5.3708
X3.7044Y-5.3681
X3.7961Y-5.215
X3.8624Y-3.8097
X3.8687Y-3.9011
X3.872Y-4.997
X3.9195Y-4.227
X3.9291Y-5.1058
X3.9354Y-5.1821
X3.9597Y-4.2021
X4.0523Y-4.5486
X4.086Y-4.986
X4.19Y-3.112
X4.1998Y-3.289
X4.2087Y-5.1144
X4.2287Y-3.2137
X4.2371Y-3.6316
X4.2465Y-4.872
X4.265Y-3.17
X4.2768Y-4.5468
X4.2847Y-4.7194
X4.2882Y-4.4261
X4.289Y-2.933
X4.29Y-3.0316
X4.3061Y-4.6053
X4.3088Y-4.7012
X4.3362Y-5.1933
X4.34Y-4.249
X4.353Y-4.5501
X4.3701Y-4.8474
X4.3846Y-4.1008
X4.3952Y-4.7268
X4.405Y-3.151
X4.41Y-4.9945
X4.4112Y-4.8522
X4.4793Y-4.7999
X4.5033Y-3.8022
X4.5041Y-3.8439
X4.5045Y-4.6571
X4.5048Y-4.9914
X4.5105Y-3.7545
X4.5402Y-5.1898
X4.5536Y-4.6431
X4.565Y-4.807
X4.578Y-4.5618
X4.5882Y-4.6577
X4.623Y-3.8031
X4.6247Y-3.8466
X4.6386Y-4.633
X4.6406Y-4.4862
X4.6437Y-4.5693
X4.662Y-4.5104
X4.668Y-4.4613
X4.6922Y-4.6598
X4.7007Y-3.8397
X4.7187Y-4.8537
X4.7196Y-4.7961
X4.764Y-5.573
X4.795Y-4.7201
X4.7971Y-4.7964
X4.7985Y-4.8566
X4.8207Y-4.0821
X4.8407Y-4.5468
X4.9046Y-4.5684
X4.9191Y-4.0806
X4.9742Y-4.9896
X4.988Y-5.57
X4.9998Y-4.1325
X5.0328Y-4.734
X5.071Y-5.027
X5.1219Y-4.1315
X5.1435Y-4.7505
X5.1494Y-4.4231
X5.2227Y-4.4649
X5.2448Y-4.4195
X5.25Y-4.6228
X5.26Y-4.555
X5.264Y-4.5885
X5.2654Y-4.4884
X5.307Y-3.846
X5.309Y-2.258
X5.3271Y-4.7193
X5.3334Y-3.8291
X5.3438Y-4.6949
X5.3598Y-3.8115
X5.4099Y-2.1501
X5.43Y-4.779
X5.499Y-4.7613
X5.4996Y-4.8219
X5.5143Y-4.6926
X5.539Y-4.768
X5.5426Y-4.4247
X5.545Y-4.662
X5.5643Y-4.2948
X5.565Y-4.326
X5.5672Y-4.555
X5.5678Y-4.2624
X5.5697Y-4.5849
X5.5776Y-4.4991
X5.5809Y-4.4244
X5.5893Y-4.6626
X5.6021Y-5.3028
X5.6043Y-5.3307
X5.6046Y-5.3889
X5.6048Y-5.3604
X5.6076Y-4.6041
X5.6153Y-4.4987
X5.6188Y-4.8054
X5.6286Y-4.2738
X5.631Y-5.1855
X5.6325Y-5.1015
X5.6475Y-4.302
X5.6535Y-4.8606
X5.6553Y-4.4226
X5.6642Y-4.1454
X5.6691Y-4.2543
X5.6707Y-4.326
X5.6799Y-5.3033
X5.6931Y-4.1655
X5.6934Y-4.2348
X5.7006Y-5.3577
X5.7102Y-5.3223
X5.7382Y-5.3616
X5.747Y-4.123
X5.7687Y-4.557
X5.77Y-4.6474
X5.7726Y-4.587
X5.7902Y-4.6143
X5.7924Y-5.0153
X5.8158Y-5.0517
X5.8528Y-4.4298
X5.8604Y-4.6467
X5.8635Y-3.822
X5.883Y-3.8451
X5.8838Y-4.4436
X5.9064Y-3.8673
X5.9175Y-5.4015
X5.9265Y-3.2355
X5.927Y-3.8898
X5.9472Y-3.9123
X5.9499Y-5.3811
X5.9654Y-3.9333
X5.982Y-3.204
X5.9822Y-3.1731
X5.9856Y-3.9558
X5.9877Y-4.6112
X6.0081Y-3.9789
X6.0294Y-3.9966
X6.0333Y-4.7667
X6.051Y-4.793
X6.0515Y-4.0175
X6.0651Y-2.2446
X6.0656Y-4.1252
X6.072Y-4.0392
X6.0851Y-4.2826
X6.093Y-2.296
X6.093Y-4.0617
X6.0932Y-4.6073
X6.0945Y-4.5147
X6.0945Y-5.2224
X6.0978Y-5.169
X6.101Y-4.5434
X6.1029Y-5.0364
X6.1034Y-4.2588
X6.1038Y-4.5753
X6.1159Y-5.1961
X6.1176Y-4.2312
X6.1188Y-5.0662
X6.1223Y-5.1449
X6.1226Y-5.1124
X6.123Y-2.41
X6.126Y-4.795
X6.1302Y-4.761
X6.1548Y-4.6588
X6.158Y-4.6283
X6.177Y-4.5731
X6.1779Y-4.5426
X6.1794Y-4.5135
X6.186Y-4.6007
X6.2734Y-5.2871
X6.2895Y-5.2584
X6.3118Y-3.7576
X6.3332Y-4.4148
X6.3565Y-4.4351
X6.378Y-4.277
X6.395Y-4.8362
X6.4036Y-4.3505
X6.411Y-3.522
X6.4113Y-3.717
X6.4211Y-4.8186
X6.4484Y-4.3799
X6.478Y-5.186
X6.4782Y-4.4069
X6.48Y-4.4364
X6.4893Y-5.1444
X6.5205Y-5.1147
X6.5429Y-5.2857
X6.5517Y-5.0988
X6.5723Y-5.0711
X6.5844Y-4.4033
X6.5936Y-4.4348
X6.6294Y-3.6609
X6.6318Y-3.6134
X6.642Y-3.2025
X6.6432Y-3.7122
X6.644Y-3.171
X6.672Y-3.2685
X6.6942Y-4.0955
X6.7245Y-4.479
X6.7424Y-4.7677
X6.751Y-4.699
X6.7683Y-4.6501
X6.7692Y-4.7254
X6.7704Y-3.7345
X6.7892Y-3.8943
X6.7949Y-3.6512
X6.8012Y-3.6113
X6.8156Y-3.9148
X6.8187Y-4.2616
X6.863Y-3.8214
X6.8886Y-3.8448
X6.9342Y-2.8518
X6.9811Y-2.6663
X7.0043Y-5.3685
X7.0155Y-5.286
X7.0191Y-3.7229
X7.0343Y-2.7328
X7.0441Y-5.3718
X7.0898Y-4.6377
X7.1232Y-3.894
X7.1241Y-3.9879
X7.1424Y-5.0638
X7.182Y-4.7236
X7.1848Y-4.6564
X7.1904Y-5.061
X7.2171Y-4.7259
X7.2185Y-4.6593
X7.2527Y-2.94
X7.2808Y-2.9534
X7.281Y-5.225
X7.287Y-2.4892
X7.2968Y-3.7037
X7.2999Y-3.6729
X7.3161Y-2.9658
X7.322Y-3.8655
X7.329Y-2.8532
X7.35Y-5.292
X7.3549Y-3.8955
X7.3629Y-4.3502
X7.371Y-5.18
X7.374Y-2.886
X7.3846Y-5.287
X7.389Y-4.307
X7.3917Y-3.6734
X7.395Y-3.7038
X7.4007Y-5.1858
X7.4074Y-2.6908
X7.4361Y-5.1723
X7.4435Y-5.2614
X7.5132Y-2.9633
X7.5215Y-4.0033
X7.5236Y-4.1384
X7.5908Y-2.9477
X7.652Y-3.838
X7.6888Y-3.8353
X7.726Y-3.833
X7.7382Y-5.4054
X7.7625Y-3.8318
X7.7643Y-5.3223
X7.7697Y-5.2122
X7.8003Y-3.8316
X7.8381Y-3.8286
X7.8678Y-4.8771
X7.8683Y-4.4429
X7.8687Y-4.606
X7.869Y-4.7439
X7.8692Y-4.284
X7.8701Y-3.825
X7.871Y-4.128
X7.872Y-4.005
X7.896Y-5.115
X7.9115Y-5.3181
X7.9853Y-5.2758
X7.9947Y-5.1147
X8.142Y-5.31
X8.1435Y-5.178
T2
X3.5794Y-4.1008
X3.6149Y-4.5045
X4.031Y-3.479
X4.2952Y-3.9781
X4.347Y-3.816
X4.3943Y-5.1296
X4.4051Y-2.3261
X4.4861Y-3.5019
X4.5423Y-2.9705
X4.779Y-5.462
X4.793Y-2.782
X4.859Y-5.534
X4.948Y-2.782
X4.988Y-5.531
X5.131Y-4.9252
X5.4666Y-5.4162
X5.484Y-5.199
X5.7564Y-4.1949
X5.8257Y-4.7223
X5.8268Y-4.5115
X5.8397Y-4.8123
X6.01Y-4.736
X6.0368Y-4.2294
X6.129Y-4.8411
X6.1809Y-4.7667
X6.4328Y-4.6418
X6.4776Y-4.809
X6.542Y-4.854
X6.6689Y-3.801
X6.6885Y-5.3775
X6.8398Y-4.9434
X6.8551Y-3.6246
X6.882Y-3.06
X6.9045Y-5.5095
X7.021Y-3.3705
X7.0356Y-4.9764
X7.05Y-3.06
X7.1475Y-3.819
X7.167Y-4.008
X7.1925Y-3.6813
X7.2653Y-4.9658
X7.4158Y-4.9357
X7.422Y-4.0215
X7.4228Y-5.5374
T3
X4.6756Y-1.9946
X4.6756Y-2.1914
X4.8724Y-2.093
X6.7071Y-5.0046
X6.8055Y-5.2014
X6.9039Y-5.0046
X7.1198Y-5.0056
X7.2182Y-5.2024
X7.3166Y-5.0056
T4
X4.066Y-5.782
X4.14Y-5.3754
X4.165Y-5.782
X4.19Y-5.2754
X4.24Y-5.3754
X4.29Y-5.2754
X4.34Y-5.3754
X4.39Y-5.2754
X4.44Y-5.3754
X4.464Y-5.782
X4.49Y-5.2754
X4.565Y-5.782
T5
X5.3602Y-2.0448
X5.4602Y-2.0448
X5.5602Y-2.0448
X5.6602Y-2.0448
X5.7602Y-2.0448
X5.8602Y-2.0448
X5.9602Y-2.0448
X6.0602Y-2.0448
X6.1602Y-2.0448
X6.2602Y-2.0448
X6.3602Y-2.0448
X6.4602Y-2.0448
X6.5602Y-2.0448
X6.6602Y-2.0448
X6.7602Y-2.0448
X6.8602Y-2.0448
T6
X3.6015Y-2.8895
X3.6015Y-2.9895
X3.6015Y-3.0895
X3.6015Y-3.1895
X3.6015Y-3.2895
X3.6015Y-3.3895
X3.994Y-2.889
X3.994Y-2.989
X3.994Y-3.089
X3.994Y-3.189
X3.994Y-3.289
X3.994Y-3.389
X4.407Y-3.4855
X4.407Y-3.5855
X4.6825Y-3.499
X4.6825Y-3.599
X4.7825Y-3.499
X4.7825Y-3.599
X4.8825Y-3.499
X4.8825Y-3.599
X4.9825Y-3.499
X4.9825Y-3.599
X5.0825Y-3.499
X5.0825Y-3.599
X5.1825Y-3.499
X5.1825Y-3.599
X5.2825Y-3.499
X5.2825Y-3.599
X5.3825Y-3.499
X5.3825Y-3.599
X5.4825Y-3.499
X5.4825Y-3.599
X5.5825Y-3.499
X5.5825Y-3.599
X5.6825Y-3.499
X5.6825Y-3.599
X5.7825Y-3.499
X5.7825Y-3.599
X7.027Y-3.492
X7.027Y-3.592
X7.127Y-3.492
X7.127Y-3.592
X7.227Y-3.492
X7.227Y-3.592
X7.327Y-3.492
X7.327Y-3.592
X7.427Y-3.492
X7.427Y-3.592
X7.527Y-3.492
X7.527Y-3.592
X7.627Y-3.492
X7.627Y-3.592
X7.727Y-3.492
X7.727Y-3.592
X7.827Y-3.492
X7.827Y-3.592
X7.927Y-3.492
X7.927Y-3.592
X8.027Y-3.492
X8.027Y-3.592
X8.127Y-3.492
X8.127Y-3.592
T7
X4.0099Y-5.5049
X4.6201Y-5.5049
T8
X3.8041Y-3.5963
X3.8041Y-4.1137
T9
X3.59Y-2.025
X3.59Y-5.765
X8.08Y-2.025
X8.08Y-5.765
T5
X3.6387Y-2.4147G85X3.6387Y-2.5053
G05
X3.804Y-2.6529G85X3.7134Y-2.6529
G05
X3.8749Y-2.4147G85X3.8749Y-2.5053
G05
T0
M30
