G04 (created by PCBNEW (2013-07-07 BZR 4022)-stable) date 03/02/2018 19:35:14*
%MOIN*%
G04 Gerber Fmt 3.4, Leading zero omitted, Abs format*
%FSLAX34Y34*%
G01*
G70*
G90*
G04 APERTURE LIST*
%ADD10C,0.00590551*%
%ADD11C,0.0551181*%
%ADD12C,0.0984252*%
%ADD13C,0.127953*%
%ADD14C,0.0590551*%
%ADD15R,0.0866X0.06*%
%ADD16O,0.0866X0.06*%
%ADD17C,0.137795*%
%ADD18O,0.0590551X0.0866142*%
%ADD19C,0.16*%
%ADD20O,0.177701X0.177701*%
%ADD21O,0.158098X0.158098*%
%ADD22C,0.0354*%
%ADD23C,0.1181*%
%ADD24C,0.0689*%
%ADD25R,0.06X0.0787*%
%ADD26O,0.06X0.0787*%
G04 APERTURE END LIST*
G54D10*
G54D11*
X42400Y-53753D03*
X41400Y-53753D03*
X41900Y-52753D03*
X42900Y-52753D03*
X43400Y-53753D03*
X43900Y-52753D03*
X44400Y-53753D03*
X44900Y-52753D03*
G54D12*
X40098Y-55049D03*
X46201Y-55049D03*
G54D13*
X40900Y-56250D03*
X45400Y-56250D03*
G54D14*
X44640Y-57820D03*
X45650Y-57820D03*
X40660Y-57820D03*
X41650Y-57820D03*
G54D15*
X44070Y-34855D03*
G54D16*
X44070Y-35855D03*
G54D17*
X51357Y-20368D03*
X81042Y-32731D03*
G54D18*
X53601Y-20447D03*
X54601Y-20447D03*
X55601Y-20447D03*
X56601Y-20447D03*
X57601Y-20447D03*
X58601Y-20447D03*
X59601Y-20447D03*
X60601Y-20447D03*
X61601Y-20447D03*
X62601Y-20447D03*
X63601Y-20447D03*
X64601Y-20447D03*
X65601Y-20447D03*
X66601Y-20447D03*
X67601Y-20447D03*
X68601Y-20447D03*
G54D19*
X80800Y-57650D03*
X35900Y-57650D03*
X80800Y-20250D03*
G54D20*
X38749Y-24600D03*
G54D21*
X37587Y-26529D03*
X36387Y-24600D03*
G54D19*
X35900Y-20250D03*
G54D22*
X36735Y-45134D03*
X36735Y-46866D03*
G54D23*
X38041Y-35963D03*
X38041Y-41137D03*
G54D24*
X46756Y-19946D03*
X48724Y-20930D03*
X46756Y-21914D03*
X73166Y-50056D03*
X72182Y-52024D03*
X71198Y-50056D03*
X69039Y-50046D03*
X68055Y-52014D03*
X67071Y-50046D03*
G54D15*
X39940Y-28890D03*
G54D16*
X39940Y-29890D03*
X39940Y-30890D03*
X39940Y-31890D03*
X39940Y-32890D03*
X39940Y-33890D03*
G54D15*
X36015Y-28895D03*
G54D16*
X36015Y-29895D03*
X36015Y-30895D03*
X36015Y-31895D03*
X36015Y-32895D03*
X36015Y-33895D03*
G54D25*
X46825Y-36088D03*
G54D26*
X46825Y-34892D03*
X47825Y-36088D03*
X47825Y-34892D03*
X48825Y-36088D03*
X48825Y-34892D03*
X49825Y-36088D03*
X49825Y-34892D03*
X50825Y-36088D03*
X50825Y-34892D03*
X51825Y-36088D03*
X51825Y-34892D03*
X52825Y-36088D03*
X52825Y-34892D03*
X53825Y-36088D03*
X53825Y-34892D03*
X54825Y-36088D03*
X54825Y-34892D03*
X55825Y-36088D03*
X55825Y-34892D03*
X56825Y-36088D03*
X56825Y-34892D03*
X57825Y-36088D03*
X57825Y-34892D03*
G54D25*
X70270Y-36018D03*
G54D26*
X70270Y-34822D03*
X71270Y-36018D03*
X71270Y-34822D03*
X72270Y-36018D03*
X72270Y-34822D03*
X73270Y-36018D03*
X73270Y-34822D03*
X74270Y-36018D03*
X74270Y-34822D03*
X75270Y-36018D03*
X75270Y-34822D03*
X76270Y-36018D03*
X76270Y-34822D03*
X77270Y-36018D03*
X77270Y-34822D03*
X78270Y-36018D03*
X78270Y-34822D03*
X79270Y-36018D03*
X79270Y-34822D03*
X80270Y-36018D03*
X80270Y-34822D03*
X81270Y-36018D03*
X81270Y-34822D03*
M02*
